<svg id="svg" version="1.1" xmlns="http://www.w3.org/2000/svg" xmlns:xlink="http://www.w3.org/1999/xlink" width="400" height="400" viewBox="0, 0, 400,400"><g id="svgg"><path id="path0" d="M193.200 47.247 C 192.210 47.445,188.678 47.858,185.352 48.166 C 181.735 48.501,178.826 48.973,178.115 49.340 C 177.462 49.678,175.864 50.225,174.564 50.556 C 169.046 51.959,165.583 53.397,159.400 56.852 C 158.300 57.467,156.827 58.244,156.126 58.580 C 153.794 59.695,143.773 67.396,141.812 69.579 C 140.925 70.568,140.912 72.984,141.789 74.000 C 142.074 74.330,142.733 75.383,143.253 76.340 C 143.774 77.297,144.650 78.854,145.200 79.799 C 145.750 80.744,146.707 82.391,147.326 83.459 C 147.945 84.526,148.890 86.120,149.425 87.000 C 149.960 87.880,150.763 89.356,151.209 90.280 C 152.652 93.270,154.687 94.250,155.820 92.500 C 156.830 90.939,159.173 88.463,162.347 85.600 C 163.990 84.118,169.166 80.464,170.800 79.633 C 171.790 79.130,173.680 78.172,175.000 77.506 C 176.320 76.840,178.444 76.048,179.720 75.747 C 180.996 75.446,182.573 74.924,183.224 74.588 C 187.149 72.558,207.000 72.666,211.091 74.739 C 211.921 75.160,213.371 75.632,214.313 75.789 C 215.254 75.946,217.324 76.774,218.913 77.629 C 220.501 78.483,222.398 79.464,223.129 79.809 C 229.202 82.670,239.465 92.700,242.178 98.425 C 242.537 99.181,243.471 100.970,244.254 102.400 C 245.037 103.830,246.005 106.080,246.405 107.400 C 246.805 108.720,247.401 110.520,247.729 111.400 C 248.056 112.280,248.536 114.771,248.793 116.935 C 249.051 119.100,249.515 121.840,249.823 123.025 C 251.117 127.990,250.366 128.400,239.989 128.400 C 231.219 128.400,230.773 128.563,232.548 131.125 C 233.127 131.960,233.600 132.845,233.600 133.091 C 233.600 133.337,234.009 134.047,234.509 134.669 C 235.009 135.291,235.738 136.430,236.129 137.200 C 236.520 137.970,237.274 139.320,237.806 140.200 C 238.337 141.080,239.273 142.674,239.886 143.741 C 240.499 144.809,241.450 146.456,242.000 147.400 C 242.550 148.344,243.502 149.991,244.115 151.059 C 244.728 152.126,245.748 153.900,246.383 155.000 C 247.017 156.100,247.931 157.767,248.415 158.705 C 248.898 159.643,249.447 160.505,249.635 160.622 C 249.823 160.738,250.348 161.591,250.801 162.517 C 251.254 163.442,252.063 164.920,252.598 165.800 C 253.133 166.680,254.073 168.274,254.686 169.341 C 255.299 170.409,256.250 172.056,256.800 173.000 C 258.104 175.239,259.782 178.172,260.986 180.316 C 262.838 183.612,264.288 184.270,265.359 182.300 C 265.747 181.585,266.493 180.213,267.015 179.251 C 267.537 178.289,268.205 177.209,268.498 176.851 C 268.792 176.493,269.350 175.570,269.739 174.800 C 270.129 174.030,270.932 172.564,271.524 171.541 C 272.116 170.519,273.102 168.809,273.715 167.741 C 277.532 161.093,278.944 158.669,280.202 156.600 C 280.737 155.720,281.546 154.242,281.999 153.317 C 282.452 152.391,282.993 151.528,283.200 151.400 C 283.407 151.272,283.950 150.409,284.405 149.483 C 284.860 148.558,285.720 146.964,286.316 145.941 C 288.449 142.284,289.812 139.870,290.547 138.446 C 290.958 137.651,291.432 136.910,291.600 136.800 C 291.768 136.690,292.242 135.949,292.653 135.154 C 293.064 134.358,293.905 132.769,294.523 131.622 C 296.263 128.389,296.292 128.400,285.827 128.400 C 275.164 128.400,275.779 128.678,275.453 123.717 C 275.320 121.692,275.042 119.262,274.836 118.317 C 274.629 117.373,274.257 114.530,274.009 112.000 C 273.760 109.458,273.277 106.863,272.930 106.200 C 272.584 105.540,271.975 103.740,271.575 102.200 C 270.704 98.840,269.364 94.902,268.718 93.800 C 268.460 93.360,267.831 92.190,267.321 91.200 C 263.145 83.101,260.517 79.149,255.977 74.144 C 255.550 73.673,254.526 72.477,253.700 71.487 C 252.397 69.922,243.542 62.334,240.627 60.285 C 239.658 59.604,237.097 58.197,231.800 55.435 C 230.480 54.747,228.950 53.886,228.400 53.521 C 227.850 53.157,226.680 52.732,225.800 52.576 C 224.920 52.419,223.570 51.978,222.800 51.594 C 222.030 51.210,220.590 50.764,219.600 50.603 C 218.610 50.442,216.810 49.903,215.600 49.405 C 214.031 48.760,212.146 48.419,209.026 48.218 C 206.620 48.063,203.200 47.681,201.426 47.369 C 197.851 46.740,195.887 46.711,193.200 47.247 M130.426 68.100 C 129.952 69.035,128.952 70.790,128.203 72.000 C 127.455 73.210,126.551 74.740,126.195 75.400 C 124.725 78.122,123.726 79.862,123.019 80.928 C 122.063 82.370,121.059 84.157,120.009 86.283 C 119.551 87.209,119.007 88.072,118.800 88.200 C 118.593 88.328,118.052 89.191,117.599 90.117 C 117.146 91.042,116.337 92.520,115.802 93.400 C 115.267 94.280,114.327 95.874,113.714 96.941 C 113.101 98.009,112.150 99.656,111.600 100.600 C 111.050 101.544,110.060 103.254,109.400 104.400 C 108.740 105.546,107.750 107.256,107.200 108.200 C 106.650 109.144,105.699 110.791,105.086 111.859 C 104.473 112.926,103.537 114.520,103.006 115.400 C 102.474 116.280,101.739 117.630,101.371 118.400 C 101.003 119.170,100.557 120.092,100.380 120.449 C 99.767 121.680,101.658 122.000,109.557 122.000 C 118.554 122.000,118.399 121.926,118.401 126.231 C 118.402 127.754,118.657 130.530,118.969 132.400 C 119.280 134.270,119.656 137.330,119.804 139.199 C 119.951 141.069,120.344 143.319,120.676 144.199 C 121.009 145.080,121.616 146.970,122.025 148.400 C 123.160 152.361,124.425 156.132,124.844 156.800 C 125.050 157.130,125.676 158.300,126.235 159.400 C 126.793 160.500,127.771 162.300,128.407 163.400 C 129.044 164.500,129.859 166.019,130.219 166.775 C 131.663 169.809,140.175 179.961,144.068 183.292 C 151.196 189.392,153.311 191.063,154.804 191.773 C 155.572 192.138,157.280 193.040,158.600 193.779 C 159.920 194.518,161.616 195.414,162.369 195.770 C 163.122 196.126,164.004 196.638,164.327 196.909 C 164.944 197.423,169.061 198.943,171.800 199.668 C 172.680 199.901,174.570 200.525,176.000 201.055 C 177.430 201.585,180.580 202.283,183.000 202.606 C 185.420 202.929,188.570 203.371,190.000 203.589 C 196.208 204.533,212.808 203.068,217.075 201.200 C 217.996 200.797,219.796 200.256,221.075 199.997 C 222.354 199.738,223.763 199.297,224.206 199.016 C 224.649 198.735,225.639 198.372,226.406 198.209 C 227.173 198.047,228.429 197.528,229.198 197.057 C 229.967 196.586,231.227 195.888,231.998 195.506 C 238.591 192.241,241.386 190.391,247.600 185.175 C 255.612 178.450,255.655 178.349,252.610 173.400 C 252.068 172.520,251.254 171.042,250.801 170.117 C 250.348 169.191,249.807 168.328,249.600 168.200 C 249.393 168.072,248.855 167.209,248.405 166.283 C 247.956 165.358,246.967 163.610,246.208 162.400 C 245.449 161.190,244.637 159.769,244.402 159.242 C 243.340 156.856,240.400 154.139,240.400 155.544 C 240.400 155.733,239.815 156.539,239.100 157.335 C 238.385 158.131,236.900 159.803,235.800 161.050 C 234.700 162.298,233.565 163.517,233.278 163.759 C 232.991 164.002,232.241 164.650,231.612 165.200 C 230.983 165.750,230.048 166.566,229.534 167.013 C 227.669 168.636,224.131 170.831,220.800 172.433 C 219.810 172.909,218.730 173.521,218.400 173.793 C 218.070 174.065,216.918 174.502,215.840 174.765 C 214.761 175.027,213.376 175.502,212.761 175.820 C 207.189 178.702,186.845 178.719,181.292 175.848 C 180.626 175.503,179.208 175.031,178.141 174.797 C 177.073 174.563,175.747 174.044,175.192 173.642 C 174.638 173.241,173.738 172.775,173.192 172.607 C 172.647 172.439,171.953 172.099,171.650 171.851 C 171.348 171.603,170.224 170.950,169.153 170.400 C 162.865 167.173,154.596 158.310,150.502 150.407 C 149.535 148.541,148.582 146.820,148.385 146.582 C 148.187 146.343,147.775 145.075,147.469 143.763 C 147.163 142.451,146.621 140.814,146.265 140.126 C 145.909 139.437,145.339 136.562,144.998 133.737 C 144.657 130.912,144.203 128.078,143.989 127.440 C 143.440 125.805,143.505 122.908,144.100 122.524 C 144.375 122.346,148.920 122.110,154.200 122.000 L 163.800 121.800 163.935 120.846 C 164.009 120.321,163.707 119.400,163.263 118.799 C 162.819 118.199,162.164 117.099,161.806 116.354 C 161.023 114.720,160.038 112.993,159.024 111.472 C 158.205 110.245,157.311 108.690,155.992 106.200 C 155.526 105.320,154.532 103.610,153.783 102.400 C 153.034 101.190,152.071 99.455,151.644 98.544 C 151.216 97.633,150.676 96.771,150.444 96.627 C 150.213 96.484,149.652 95.609,149.199 94.683 C 148.746 93.758,147.937 92.280,147.402 91.400 C 146.867 90.520,145.927 88.926,145.314 87.859 C 144.701 86.791,143.750 85.144,143.200 84.200 C 141.872 81.920,140.015 78.673,138.879 76.645 C 138.372 75.740,137.523 74.280,136.993 73.400 C 136.463 72.520,135.577 70.961,135.025 69.935 C 134.186 68.375,132.207 66.400,131.482 66.400 C 131.375 66.400,130.900 67.165,130.426 68.100 M163.412 219.226 C 162.319 219.409,161.059 219.740,160.612 219.961 C 160.165 220.183,159.170 220.644,158.400 220.985 C 156.590 221.788,154.299 223.469,153.846 224.327 C 153.651 224.697,153.155 225.372,152.744 225.827 C 150.974 227.788,149.192 234.090,149.987 235.576 L 150.435 236.412 199.603 236.306 C 244.733 236.209,248.826 236.146,249.433 235.538 C 250.217 234.754,248.860 228.485,247.584 227.000 C 247.206 226.560,246.650 225.723,246.349 225.139 C 245.797 224.072,241.777 220.802,241.011 220.798 C 240.785 220.796,240.065 220.516,239.412 220.175 C 238.758 219.835,236.958 219.391,235.412 219.190 C 231.922 218.737,166.145 218.770,163.412 219.226 M146.181 239.966 C 145.255 240.118,143.861 240.795,142.925 241.548 C 139.837 244.029,140.000 240.875,140.000 298.054 C 140.000 354.645,139.833 351.303,142.807 354.207 L 144.439 355.800 200.000 355.800 L 255.561 355.800 257.193 354.207 C 260.167 351.303,260.000 354.645,260.000 298.054 C 260.000 240.902,260.161 244.028,257.088 241.558 C 256.076 240.745,254.772 240.138,253.632 239.950 C 251.385 239.579,148.442 239.595,146.181 239.966 M253.970 248.784 C 255.510 249.608,255.647 251.727,255.521 272.889 L 255.400 293.178 254.489 294.089 L 253.578 295.000 200.489 295.000 C 142.688 295.000,145.421 295.107,144.804 292.814 C 143.997 289.818,144.452 250.789,145.309 249.482 L 146.018 248.400 199.636 248.400 C 233.109 248.400,253.522 248.544,253.970 248.784 M170.550 335.181 C 173.172 336.178,173.175 345.950,170.553 347.045 C 168.610 347.857,150.889 347.846,149.776 347.032 C 148.780 346.304,148.590 336.618,149.549 335.461 C 150.181 334.699,168.635 334.453,170.550 335.181 M250.451 335.461 C 251.410 336.618,251.220 346.304,250.224 347.032 C 249.110 347.846,231.390 347.857,229.446 347.045 C 226.926 345.992,226.742 336.561,229.217 335.309 C 230.882 334.467,249.738 334.602,250.451 335.461 M149.452 358.605 C 148.207 359.850,148.322 369.612,149.610 372.019 C 150.317 373.339,154.347 373.595,156.241 372.440 C 157.743 371.524,157.989 370.386,157.996 364.326 C 158.002 357.999,158.003 358.000,153.638 358.000 C 150.976 358.000,149.902 358.155,149.452 358.605 M161.029 358.629 C 160.259 359.399,160.137 367.003,160.850 369.833 C 161.989 374.355,168.144 374.537,169.648 370.094 C 170.527 367.495,170.367 359.259,169.424 358.568 C 168.282 357.733,161.878 357.779,161.029 358.629 M230.576 358.568 C 229.595 359.286,229.449 366.990,230.357 370.119 C 231.655 374.589,238.004 374.382,239.150 369.833 C 239.863 367.003,239.741 359.399,238.971 358.629 C 238.122 357.779,231.718 357.733,230.576 358.568 M242.414 358.774 C 241.961 359.621,241.844 368.321,242.258 370.391 C 242.902 373.608,249.847 374.323,250.700 371.260 C 251.296 369.117,251.056 358.808,250.400 358.392 C 249.170 357.613,242.874 357.914,242.414 358.774 " stroke="none" fill="#f7faf6" fill-rule="evenodd"></path><path id="path1" d="M53.600 0.600 C 53.600 1.080,53.000 1.200,50.600 1.200 C 47.667 1.200,47.600 1.222,47.600 2.200 C 47.600 3.183,47.547 3.200,44.400 3.200 C 41.272 3.200,41.200 3.222,41.200 4.178 C 41.200 5.061,41.015 5.168,39.300 5.278 C 37.798 5.374,37.320 5.583,37.017 6.272 C 36.745 6.892,36.109 7.239,34.817 7.474 C 33.362 7.739,32.975 7.984,32.872 8.702 C 32.776 9.379,32.479 9.600,31.667 9.600 C 30.933 9.600,30.464 9.887,30.195 10.500 C 29.926 11.112,29.352 11.464,28.400 11.600 C 27.458 11.735,26.873 12.089,26.612 12.684 C 26.399 13.170,25.859 13.620,25.412 13.684 C 24.860 13.763,24.559 14.153,24.473 14.900 C 24.367 15.821,24.156 16.000,23.173 16.000 C 22.188 16.000,22.000 16.161,22.000 17.000 C 22.000 17.800,21.800 18.000,21.000 18.000 C 20.200 18.000,20.000 18.200,20.000 19.000 C 20.000 19.800,19.800 20.000,19.000 20.000 C 18.200 20.000,18.000 20.200,18.000 21.000 C 18.000 21.800,17.800 22.000,17.000 22.000 C 16.161 22.000,16.000 22.188,16.000 23.173 C 16.000 24.156,15.821 24.367,14.900 24.473 C 14.153 24.559,13.763 24.860,13.684 25.412 C 13.620 25.859,13.170 26.399,12.684 26.612 C 12.089 26.873,11.735 27.458,11.600 28.400 C 11.464 29.352,11.112 29.926,10.500 30.195 C 9.887 30.464,9.600 30.933,9.600 31.667 C 9.600 32.479,9.379 32.776,8.702 32.872 C 7.984 32.975,7.739 33.362,7.474 34.817 C 7.239 36.109,6.892 36.745,6.272 37.017 C 5.583 37.320,5.374 37.798,5.278 39.300 C 5.168 41.015,5.061 41.200,4.178 41.200 C 3.222 41.200,3.200 41.272,3.200 44.400 C 3.200 47.547,3.183 47.600,2.200 47.600 C 1.222 47.600,1.200 47.667,1.200 50.600 C 1.200 53.000,1.080 53.600,0.600 53.600 C 0.068 53.600,0.000 70.133,0.000 200.000 C 0.000 329.867,0.068 346.400,0.600 346.400 C 1.080 346.400,1.200 347.000,1.200 349.400 C 1.200 352.333,1.222 352.400,2.200 352.400 C 3.183 352.400,3.200 352.453,3.200 355.600 C 3.200 358.728,3.222 358.800,4.178 358.800 C 5.061 358.800,5.168 358.985,5.278 360.700 C 5.374 362.202,5.583 362.680,6.272 362.983 C 6.892 363.255,7.239 363.891,7.474 365.183 C 7.739 366.638,7.984 367.025,8.702 367.128 C 9.379 367.224,9.600 367.521,9.600 368.333 C 9.600 369.067,9.887 369.536,10.500 369.805 C 11.112 370.074,11.464 370.648,11.600 371.600 C 11.735 372.542,12.089 373.127,12.684 373.388 C 13.170 373.601,13.620 374.141,13.684 374.588 C 13.763 375.140,14.153 375.441,14.900 375.527 C 15.821 375.633,16.000 375.844,16.000 376.827 C 16.000 377.812,16.161 378.000,17.000 378.000 C 17.800 378.000,18.000 378.200,18.000 379.000 C 18.000 379.800,18.200 380.000,19.000 380.000 C 19.800 380.000,20.000 380.200,20.000 381.000 C 20.000 381.800,20.200 382.000,21.000 382.000 C 21.800 382.000,22.000 382.200,22.000 383.000 C 22.000 383.839,22.188 384.000,23.173 384.000 C 24.156 384.000,24.367 384.179,24.473 385.100 C 24.559 385.847,24.860 386.237,25.412 386.316 C 25.859 386.380,26.399 386.830,26.612 387.316 C 26.873 387.911,27.458 388.265,28.400 388.400 C 29.352 388.536,29.926 388.888,30.195 389.500 C 30.464 390.113,30.933 390.400,31.667 390.400 C 32.479 390.400,32.776 390.621,32.872 391.298 C 32.975 392.016,33.362 392.261,34.817 392.526 C 36.109 392.761,36.745 393.108,37.017 393.728 C 37.320 394.417,37.798 394.626,39.300 394.722 C 41.015 394.832,41.200 394.939,41.200 395.822 C 41.200 396.778,41.272 396.800,44.400 396.800 C 47.547 396.800,47.600 396.817,47.600 397.800 C 47.600 398.778,47.667 398.800,50.600 398.800 C 53.000 398.800,53.600 398.920,53.600 399.400 C 53.600 399.932,70.133 400.000,200.000 400.000 C 329.867 400.000,346.400 399.932,346.400 399.400 C 346.400 398.920,347.000 398.800,349.400 398.800 C 352.333 398.800,352.400 398.778,352.400 397.800 C 352.400 396.817,352.453 396.800,355.600 396.800 C 358.728 396.800,358.800 396.778,358.800 395.822 C 358.800 394.939,358.985 394.832,360.700 394.722 C 362.202 394.626,362.680 394.417,362.983 393.728 C 363.255 393.108,363.891 392.761,365.183 392.526 C 366.638 392.261,367.025 392.016,367.128 391.298 C 367.224 390.621,367.521 390.400,368.333 390.400 C 369.067 390.400,369.536 390.113,369.805 389.500 C 370.074 388.888,370.648 388.536,371.600 388.400 C 372.542 388.265,373.127 387.911,373.388 387.316 C 373.601 386.830,374.141 386.380,374.588 386.316 C 375.140 386.237,375.441 385.847,375.527 385.100 C 375.633 384.179,375.844 384.000,376.827 384.000 C 377.812 384.000,378.000 383.839,378.000 383.000 C 378.000 382.200,378.200 382.000,379.000 382.000 C 379.800 382.000,380.000 381.800,380.000 381.000 C 380.000 380.200,380.200 380.000,381.000 380.000 C 381.800 380.000,382.000 379.800,382.000 379.000 C 382.000 378.200,382.200 378.000,383.000 378.000 C 383.839 378.000,384.000 377.812,384.000 376.827 C 384.000 375.844,384.179 375.633,385.100 375.527 C 385.847 375.441,386.237 375.140,386.316 374.588 C 386.380 374.141,386.830 373.601,387.316 373.388 C 387.911 373.127,388.265 372.542,388.400 371.600 C 388.536 370.648,388.888 370.074,389.500 369.805 C 390.113 369.536,390.400 369.067,390.400 368.333 C 390.400 367.521,390.621 367.224,391.298 367.128 C 392.016 367.025,392.261 366.638,392.526 365.183 C 392.761 363.891,393.108 363.255,393.728 362.983 C 394.417 362.680,394.626 362.202,394.722 360.700 C 394.832 358.985,394.939 358.800,395.822 358.800 C 396.778 358.800,396.800 358.728,396.800 355.600 C 396.800 352.453,396.817 352.400,397.800 352.400 C 398.778 352.400,398.800 352.333,398.800 349.400 C 398.800 347.000,398.920 346.400,399.400 346.400 C 399.932 346.400,400.000 329.867,400.000 200.000 C 400.000 70.133,399.932 53.600,399.400 53.600 C 398.920 53.600,398.800 53.000,398.800 50.600 C 398.800 47.667,398.778 47.600,397.800 47.600 C 396.817 47.600,396.800 47.547,396.800 44.400 C 396.800 41.272,396.778 41.200,395.822 41.200 C 394.939 41.200,394.832 41.015,394.722 39.300 C 394.626 37.798,394.417 37.320,393.728 37.017 C 393.108 36.745,392.761 36.109,392.526 34.817 C 392.261 33.362,392.016 32.975,391.298 32.872 C 390.621 32.776,390.400 32.479,390.400 31.667 C 390.400 30.933,390.113 30.464,389.500 30.195 C 388.888 29.926,388.536 29.352,388.400 28.400 C 388.265 27.458,387.911 26.873,387.316 26.612 C 386.830 26.399,386.380 25.859,386.316 25.412 C 386.237 24.860,385.847 24.559,385.100 24.473 C 384.179 24.367,384.000 24.156,384.000 23.173 C 384.000 22.188,383.839 22.000,383.000 22.000 C 382.200 22.000,382.000 21.800,382.000 21.000 C 382.000 20.200,381.800 20.000,381.000 20.000 C 380.200 20.000,380.000 19.800,380.000 19.000 C 380.000 18.200,379.800 18.000,379.000 18.000 C 378.200 18.000,378.000 17.800,378.000 17.000 C 378.000 16.161,377.812 16.000,376.827 16.000 C 375.844 16.000,375.633 15.821,375.527 14.900 C 375.441 14.153,375.140 13.763,374.588 13.684 C 374.141 13.620,373.601 13.170,373.388 12.684 C 373.127 12.089,372.542 11.735,371.600 11.600 C 370.648 11.464,370.074 11.112,369.805 10.500 C 369.536 9.887,369.067 9.600,368.333 9.600 C 367.521 9.600,367.224 9.379,367.128 8.702 C 367.025 7.984,366.638 7.739,365.183 7.474 C 363.891 7.239,363.255 6.892,362.983 6.272 C 362.680 5.583,362.202 5.374,360.700 5.278 C 358.985 5.168,358.800 5.061,358.800 4.178 C 358.800 3.222,358.728 3.200,355.600 3.200 C 352.453 3.200,352.400 3.183,352.400 2.200 C 352.400 1.222,352.333 1.200,349.400 1.200 C 347.000 1.200,346.400 1.080,346.400 0.600 C 346.400 0.068,329.867 0.000,200.000 0.000 C 70.133 0.000,53.600 0.068,53.600 0.600 M201.426 47.369 C 203.200 47.681,206.620 48.063,209.026 48.218 C 212.146 48.419,214.031 48.760,215.600 49.405 C 216.810 49.903,218.610 50.442,219.600 50.603 C 220.590 50.764,222.030 51.210,222.800 51.594 C 223.570 51.978,224.920 52.419,225.800 52.576 C 226.680 52.732,227.850 53.157,228.400 53.521 C 228.950 53.886,230.480 54.747,231.800 55.435 C 237.097 58.197,239.658 59.604,240.627 60.285 C 243.542 62.334,252.397 69.922,253.700 71.487 C 254.526 72.477,255.550 73.673,255.977 74.144 C 260.517 79.149,263.145 83.101,267.321 91.200 C 267.831 92.190,268.460 93.360,268.718 93.800 C 269.364 94.902,270.704 98.840,271.575 102.200 C 271.975 103.740,272.584 105.540,272.930 106.200 C 273.277 106.863,273.760 109.458,274.009 112.000 C 274.257 114.530,274.629 117.373,274.836 118.317 C 275.042 119.262,275.320 121.692,275.453 123.717 C 275.779 128.678,275.164 128.400,285.827 128.400 C 296.292 128.400,296.263 128.389,294.523 131.622 C 293.905 132.769,293.064 134.358,292.653 135.154 C 292.242 135.949,291.768 136.690,291.600 136.800 C 291.432 136.910,290.958 137.651,290.547 138.446 C 289.812 139.870,288.449 142.284,286.316 145.941 C 285.720 146.964,284.860 148.558,284.405 149.483 C 283.950 150.409,283.407 151.272,283.200 151.400 C 282.993 151.528,282.452 152.391,281.999 153.317 C 281.546 154.242,280.737 155.720,280.202 156.600 C 278.944 158.669,277.532 161.093,273.715 167.741 C 273.102 168.809,272.116 170.519,271.524 171.541 C 270.932 172.564,270.129 174.030,269.739 174.800 C 269.350 175.570,268.792 176.493,268.498 176.851 C 268.205 177.209,267.537 178.289,267.015 179.251 C 266.493 180.213,265.747 181.585,265.359 182.300 C 264.288 184.270,262.838 183.612,260.986 180.316 C 259.782 178.172,258.104 175.239,256.800 173.000 C 256.250 172.056,255.299 170.409,254.686 169.341 C 254.073 168.274,253.133 166.680,252.598 165.800 C 252.063 164.920,251.254 163.442,250.801 162.517 C 250.348 161.591,249.823 160.738,249.635 160.622 C 249.447 160.505,248.898 159.643,248.415 158.705 C 247.931 157.767,247.017 156.100,246.383 155.000 C 245.748 153.900,244.728 152.126,244.115 151.059 C 243.502 149.991,242.550 148.344,242.000 147.400 C 241.450 146.456,240.499 144.809,239.886 143.741 C 239.273 142.674,238.337 141.080,237.806 140.200 C 237.274 139.320,236.520 137.970,236.129 137.200 C 235.738 136.430,235.009 135.291,234.509 134.669 C 234.009 134.047,233.600 133.337,233.600 133.091 C 233.600 132.845,233.127 131.960,232.548 131.125 C 230.773 128.563,231.219 128.400,239.989 128.400 C 250.366 128.400,251.117 127.990,249.823 123.025 C 249.515 121.840,249.051 119.100,248.793 116.935 C 248.536 114.771,248.056 112.280,247.729 111.400 C 247.401 110.520,246.805 108.720,246.405 107.400 C 246.005 106.080,245.037 103.830,244.254 102.400 C 243.471 100.970,242.537 99.181,242.178 98.425 C 239.465 92.700,229.202 82.670,223.129 79.809 C 222.398 79.464,220.501 78.483,218.913 77.629 C 217.324 76.774,215.254 75.946,214.313 75.789 C 213.371 75.632,211.921 75.160,211.091 74.739 C 207.000 72.666,187.149 72.558,183.224 74.588 C 182.573 74.924,180.996 75.446,179.720 75.747 C 178.444 76.048,176.320 76.840,175.000 77.506 C 173.680 78.172,171.790 79.130,170.800 79.633 C 169.166 80.464,163.990 84.118,162.347 85.600 C 159.173 88.463,156.830 90.939,155.820 92.500 C 154.687 94.250,152.652 93.270,151.209 90.280 C 150.763 89.356,149.960 87.880,149.425 87.000 C 148.890 86.120,147.945 84.526,147.326 83.459 C 146.707 82.391,145.750 80.744,145.200 79.799 C 144.650 78.854,143.774 77.297,143.253 76.340 C 142.733 75.383,142.074 74.330,141.789 74.000 C 140.912 72.984,140.925 70.568,141.812 69.579 C 143.773 67.396,153.794 59.695,156.126 58.580 C 156.827 58.244,158.300 57.467,159.400 56.852 C 165.583 53.397,169.046 51.959,174.564 50.556 C 175.864 50.225,177.462 49.678,178.115 49.340 C 178.826 48.973,181.735 48.501,185.352 48.166 C 188.678 47.858,192.210 47.445,193.200 47.247 C 195.887 46.711,197.851 46.740,201.426 47.369 M132.849 67.235 C 133.494 67.694,134.474 68.909,135.025 69.935 C 135.577 70.961,136.463 72.520,136.993 73.400 C 137.523 74.280,138.372 75.740,138.879 76.645 C 140.015 78.673,141.872 81.920,143.200 84.200 C 143.750 85.144,144.701 86.791,145.314 87.859 C 145.927 88.926,146.867 90.520,147.402 91.400 C 147.937 92.280,148.746 93.758,149.199 94.683 C 149.652 95.609,150.213 96.484,150.444 96.627 C 150.676 96.771,151.216 97.633,151.644 98.544 C 152.071 99.455,153.034 101.190,153.783 102.400 C 154.532 103.610,155.526 105.320,155.992 106.200 C 157.311 108.690,158.205 110.245,159.024 111.472 C 160.038 112.993,161.023 114.720,161.806 116.354 C 162.164 117.099,162.819 118.199,163.263 118.799 C 163.707 119.400,164.009 120.321,163.935 120.846 L 163.800 121.800 154.200 122.000 C 148.920 122.110,144.375 122.346,144.100 122.524 C 143.505 122.908,143.440 125.805,143.989 127.440 C 144.203 128.078,144.657 130.912,144.998 133.737 C 145.339 136.562,145.909 139.437,146.265 140.126 C 146.621 140.814,147.163 142.451,147.469 143.763 C 147.775 145.075,148.187 146.343,148.385 146.582 C 148.582 146.820,149.535 148.541,150.502 150.407 C 154.596 158.310,162.865 167.173,169.153 170.400 C 170.224 170.950,171.348 171.603,171.650 171.851 C 171.953 172.099,172.647 172.439,173.192 172.607 C 173.738 172.775,174.638 173.241,175.192 173.642 C 175.747 174.044,177.073 174.563,178.141 174.797 C 179.208 175.031,180.626 175.503,181.292 175.848 C 186.845 178.719,207.189 178.702,212.761 175.820 C 213.376 175.502,214.761 175.027,215.840 174.765 C 216.918 174.502,218.070 174.065,218.400 173.793 C 218.730 173.521,219.810 172.909,220.800 172.433 C 224.131 170.831,227.669 168.636,229.534 167.013 C 230.048 166.566,230.983 165.750,231.612 165.200 C 232.241 164.650,232.991 164.002,233.278 163.759 C 233.565 163.517,234.700 162.298,235.800 161.050 C 236.900 159.803,238.385 158.131,239.100 157.335 C 239.815 156.539,240.400 155.733,240.400 155.544 C 240.400 154.139,243.340 156.856,244.402 159.242 C 244.637 159.769,245.449 161.190,246.208 162.400 C 246.967 163.610,247.956 165.358,248.405 166.283 C 248.855 167.209,249.393 168.072,249.600 168.200 C 249.807 168.328,250.348 169.191,250.801 170.117 C 251.254 171.042,252.068 172.520,252.610 173.400 C 255.655 178.349,255.612 178.450,247.600 185.175 C 241.386 190.391,238.591 192.241,231.998 195.506 C 231.227 195.888,229.967 196.586,229.198 197.057 C 228.429 197.528,227.173 198.047,226.406 198.209 C 225.639 198.372,224.649 198.735,224.206 199.016 C 223.763 199.297,222.354 199.738,221.075 199.997 C 219.796 200.256,217.996 200.797,217.075 201.200 C 212.808 203.068,196.208 204.533,190.000 203.589 C 188.570 203.371,185.420 202.929,183.000 202.606 C 180.580 202.283,177.430 201.585,176.000 201.055 C 174.570 200.525,172.680 199.901,171.800 199.668 C 169.061 198.943,164.944 197.423,164.327 196.909 C 164.004 196.638,163.122 196.126,162.369 195.770 C 161.616 195.414,159.920 194.518,158.600 193.779 C 157.280 193.040,155.572 192.138,154.804 191.773 C 153.311 191.063,151.196 189.392,144.068 183.292 C 140.175 179.961,131.663 169.809,130.219 166.775 C 129.859 166.019,129.044 164.500,128.407 163.400 C 127.771 162.300,126.793 160.500,126.235 159.400 C 125.676 158.300,125.050 157.130,124.844 156.800 C 124.425 156.132,123.160 152.361,122.025 148.400 C 121.616 146.970,121.009 145.080,120.676 144.199 C 120.344 143.319,119.951 141.069,119.804 139.199 C 119.656 137.330,119.280 134.270,118.969 132.400 C 118.657 130.530,118.402 127.754,118.401 126.231 C 118.399 121.926,118.554 122.000,109.557 122.000 C 101.658 122.000,99.767 121.680,100.380 120.449 C 100.557 120.092,101.003 119.170,101.371 118.400 C 101.739 117.630,102.474 116.280,103.006 115.400 C 103.537 114.520,104.473 112.926,105.086 111.859 C 105.699 110.791,106.650 109.144,107.200 108.200 C 107.750 107.256,108.740 105.546,109.400 104.400 C 110.060 103.254,111.050 101.544,111.600 100.600 C 112.150 99.656,113.101 98.009,113.714 96.941 C 114.327 95.874,115.267 94.280,115.802 93.400 C 116.337 92.520,117.146 91.042,117.599 90.117 C 118.052 89.191,118.593 88.328,118.800 88.200 C 119.007 88.072,119.551 87.209,120.009 86.283 C 121.059 84.157,122.063 82.370,123.019 80.928 C 123.726 79.862,124.725 78.122,126.195 75.400 C 126.551 74.740,127.455 73.210,128.203 72.000 C 128.952 70.790,129.952 69.035,130.426 68.100 C 131.429 66.123,131.334 66.156,132.849 67.235 M235.412 219.190 C 236.958 219.391,238.758 219.835,239.412 220.175 C 240.065 220.516,240.785 220.796,241.011 220.798 C 241.777 220.802,245.797 224.072,246.349 225.139 C 246.650 225.723,247.206 226.560,247.584 227.000 C 248.860 228.485,250.217 234.754,249.433 235.538 C 248.826 236.146,244.733 236.209,199.603 236.306 L 150.435 236.412 149.987 235.576 C 149.192 234.090,150.974 227.788,152.744 225.827 C 153.155 225.372,153.651 224.697,153.846 224.327 C 154.299 223.469,156.590 221.788,158.400 220.985 C 159.170 220.644,160.165 220.183,160.612 219.961 C 161.059 219.740,162.319 219.409,163.412 219.226 C 166.145 218.770,231.922 218.737,235.412 219.190 M253.632 239.950 C 254.772 240.138,256.076 240.745,257.088 241.558 C 260.161 244.028,260.000 240.902,260.000 298.054 C 260.000 354.645,260.167 351.303,257.193 354.207 L 255.561 355.800 200.000 355.800 L 144.439 355.800 142.807 354.207 C 139.833 351.303,140.000 354.645,140.000 298.054 C 140.000 240.875,139.837 244.029,142.925 241.548 C 143.861 240.795,145.255 240.118,146.181 239.966 C 148.442 239.595,251.385 239.579,253.632 239.950 M145.309 249.482 C 144.452 250.789,143.997 289.818,144.804 292.814 C 145.421 295.107,142.688 295.000,200.489 295.000 L 253.578 295.000 254.489 294.089 L 255.400 293.178 255.521 272.889 C 255.647 251.727,255.510 249.608,253.970 248.784 C 253.522 248.544,233.109 248.400,199.636 248.400 L 146.018 248.400 145.309 249.482 M149.549 335.461 C 148.590 336.618,148.780 346.304,149.776 347.032 C 150.889 347.846,168.610 347.857,170.553 347.045 C 173.175 345.950,173.172 336.178,170.550 335.181 C 168.635 334.453,150.181 334.699,149.549 335.461 M229.217 335.309 C 227.992 335.929,227.690 336.989,227.640 340.850 C 227.581 345.390,227.871 346.387,229.446 347.045 C 231.390 347.857,249.110 347.846,250.224 347.032 C 251.220 346.304,251.410 336.618,250.451 335.461 C 249.738 334.602,230.882 334.467,229.217 335.309 M157.610 359.026 C 158.045 360.171,158.131 367.751,157.736 370.142 C 157.324 372.639,154.908 373.682,151.236 372.947 C 149.562 372.612,149.335 372.082,148.764 367.172 C 147.832 359.153,148.445 358.000,153.638 358.000 C 157.115 358.000,157.231 358.030,157.610 359.026 M169.424 358.568 C 170.367 359.259,170.527 367.495,169.648 370.094 C 168.144 374.537,161.989 374.355,160.850 369.833 C 160.137 367.003,160.259 359.399,161.029 358.629 C 161.878 357.779,168.282 357.733,169.424 358.568 M238.971 358.629 C 239.741 359.399,239.863 367.003,239.150 369.833 C 238.004 374.382,231.655 374.589,230.357 370.119 C 229.449 366.990,229.595 359.286,230.576 358.568 C 231.718 357.733,238.122 357.779,238.971 358.629 M250.400 358.392 C 251.056 358.808,251.296 369.117,250.700 371.260 C 249.847 374.323,242.902 373.608,242.258 370.391 C 241.844 368.321,241.961 359.621,242.414 358.774 C 242.874 357.914,249.170 357.613,250.400 358.392 " stroke="none" fill="#008000" fill-rule="evenodd"></path></g></svg>
