<svg id="svg" version="1.1" xmlns="http://www.w3.org/2000/svg" xmlns:xlink="http://www.w3.org/1999/xlink" width="400" height="400" viewBox="0, 0, 400,400"><g id="svgg"><path id="path0" d="M117.400 44.718 C 115.640 45.345,114.141 46.419,113.000 47.872 L 111.800 49.400 111.696 110.319 C 111.586 175.098,111.560 174.149,113.398 171.843 C 113.886 171.232,114.659 170.522,115.116 170.266 C 115.573 170.010,117.174 169.101,118.673 168.248 C 120.746 167.067,122.215 166.567,124.800 166.161 C 129.330 165.449,132.314 164.602,133.240 163.764 C 133.976 163.097,134.000 161.906,134.000 125.538 L 134.000 88.000 134.986 88.000 C 135.781 88.000,136.423 88.674,138.286 91.466 C 141.455 96.212,141.397 96.126,145.000 101.398 C 146.760 103.973,148.650 106.769,149.200 107.612 C 149.750 108.454,150.932 110.191,151.826 111.472 C 152.720 112.752,153.575 114.070,153.726 114.400 C 153.877 114.730,154.627 115.810,155.393 116.800 C 156.159 117.790,157.152 119.230,157.600 120.000 C 158.048 120.770,159.043 122.210,159.813 123.200 C 160.582 124.190,161.498 125.630,161.849 126.400 C 162.199 127.170,162.741 128.070,163.052 128.400 C 164.297 129.719,165.984 132.118,166.240 132.935 C 166.389 133.411,166.891 134.172,167.356 134.627 C 168.148 135.404,169.065 136.798,170.351 139.180 C 170.654 139.741,171.298 140.650,171.782 141.200 C 172.267 141.750,173.228 143.100,173.918 144.200 C 174.608 145.300,175.762 146.875,176.483 147.700 L 177.793 149.200 189.597 149.194 C 196.088 149.191,201.635 149.038,201.923 148.856 C 202.608 148.421,202.159 146.471,201.128 145.400 C 200.704 144.960,199.746 143.610,199.000 142.400 C 197.488 139.949,196.335 138.267,194.700 136.129 C 194.095 135.337,193.600 134.467,193.600 134.194 C 193.600 133.921,193.310 133.457,192.955 133.163 C 192.601 132.868,191.619 131.541,190.774 130.214 C 188.993 127.414,187.837 125.738,186.300 123.729 C 185.695 122.937,185.200 122.067,185.200 121.794 C 185.200 121.521,184.919 121.065,184.575 120.779 C 184.232 120.494,183.304 119.257,182.514 118.030 C 180.840 115.432,180.728 115.264,177.700 110.841 C 176.435 108.993,175.220 107.186,175.000 106.826 C 174.780 106.465,173.880 105.127,173.000 103.852 C 172.120 102.578,171.040 100.952,170.600 100.240 C 170.160 99.527,169.141 98.033,168.335 96.920 C 167.529 95.806,166.581 94.379,166.227 93.748 C 165.873 93.116,164.955 91.790,164.186 90.800 C 163.418 89.810,162.524 88.427,162.200 87.727 C 161.877 87.027,161.434 86.344,161.216 86.210 C 160.730 85.909,158.000 81.836,158.000 81.411 C 158.000 81.243,157.505 80.503,156.900 79.768 C 154.822 77.240,154.000 76.073,154.000 75.651 C 154.000 75.418,153.500 74.637,152.888 73.914 C 151.362 72.110,149.600 69.445,149.600 68.940 C 149.600 68.711,149.253 68.210,148.828 67.826 C 148.404 67.442,147.459 66.133,146.728 64.918 C 145.998 63.702,144.905 62.120,144.300 61.401 C 143.695 60.682,143.200 59.955,143.200 59.785 C 143.200 59.615,142.750 58.886,142.200 58.164 C 141.650 57.443,141.200 56.668,141.200 56.440 C 141.200 56.213,140.705 55.495,140.100 54.845 C 139.495 54.194,138.468 52.793,137.818 51.731 C 134.039 45.554,132.486 44.737,124.200 44.560 C 120.900 44.490,117.840 44.561,117.400 44.718 M220.890 107.478 C 218.608 107.930,218.618 107.837,218.400 131.364 L 218.200 152.964 217.200 153.242 C 216.650 153.395,201.980 153.541,184.600 153.566 C 167.220 153.592,152.801 153.744,152.559 153.906 C 151.956 154.307,149.602 158.852,149.601 159.615 C 149.600 159.954,149.228 160.944,148.774 161.815 C 148.319 162.687,147.585 164.348,147.143 165.506 C 146.093 168.254,145.052 168.792,140.720 168.825 C 137.342 168.851,134.190 169.145,126.950 170.110 C 121.822 170.793,115.317 173.827,113.120 176.559 L 111.800 178.200 111.693 208.678 L 111.585 239.156 112.834 240.578 L 114.083 242.000 134.815 242.000 C 157.620 242.000,157.486 241.987,157.675 244.280 C 157.786 245.630,157.986 245.884,159.460 246.551 C 161.035 247.263,161.134 247.411,161.386 249.423 C 161.531 250.591,161.936 251.781,162.287 252.072 C 163.154 252.792,236.900 252.860,237.619 252.141 C 237.871 251.889,238.195 250.721,238.339 249.547 C 238.569 247.667,238.744 247.347,239.800 246.884 C 242.021 245.911,242.200 245.724,242.325 244.240 C 242.515 241.997,242.488 242.000,264.537 242.000 C 287.078 242.000,285.965 242.148,286.749 239.036 C 287.340 236.690,287.390 112.501,286.801 110.382 C 285.891 107.103,289.220 107.406,253.532 107.349 C 236.080 107.320,221.391 107.379,220.890 107.478 M281.578 114.378 C 282.827 115.627,282.837 115.983,282.716 157.132 C 282.603 195.535,282.582 196.478,281.824 197.032 C 281.170 197.510,276.528 197.600,252.546 197.600 L 224.045 197.600 223.423 196.711 C 222.692 195.667,222.455 116.959,223.177 115.060 C 223.718 113.638,222.469 113.697,252.900 113.646 C 280.033 113.601,280.821 113.621,281.578 114.378 M282.156 202.351 C 282.776 203.036,282.825 204.487,282.718 218.787 L 282.600 234.471 281.646 235.243 C 280.427 236.231,224.506 236.266,223.520 235.280 C 222.805 234.566,222.534 203.002,223.236 202.157 C 224.065 201.158,281.246 201.346,282.156 202.351 M151.234 258.758 C 150.555 259.614,150.000 260.508,150.000 260.743 C 150.000 262.086,148.405 261.986,147.829 260.607 C 146.960 258.529,146.034 258.337,137.553 258.477 C 130.870 258.587,129.993 258.680,129.241 259.362 L 128.400 260.124 128.400 294.813 C 128.400 326.568,128.456 329.548,129.060 330.051 C 129.758 330.631,144.334 331.104,146.302 330.610 C 148.192 330.136,148.400 328.668,148.400 315.787 C 148.400 308.390,148.555 303.657,148.814 303.174 C 149.451 301.984,150.581 302.231,151.228 303.700 C 152.055 305.579,150.028 305.501,199.244 305.553 C 249.605 305.606,247.791 305.674,248.618 303.694 C 249.689 301.132,249.462 260.318,248.367 258.547 L 247.535 257.200 200.001 257.200 L 152.467 257.200 151.234 258.758 M107.200 258.684 C 105.071 259.466,105.200 257.145,105.200 294.813 C 105.200 326.569,105.256 329.548,105.860 330.051 C 107.066 331.054,122.792 331.059,124.029 330.057 L 125.000 329.271 125.000 294.801 L 125.000 260.331 123.878 259.365 C 122.781 258.422,109.399 257.875,107.200 258.684 M253.682 258.807 C 253.177 259.016,252.507 259.804,252.192 260.557 C 251.877 261.310,251.480 261.988,251.310 262.063 C 250.836 262.272,251.517 326.719,252.012 328.493 C 252.241 329.315,252.789 330.180,253.230 330.416 C 254.473 331.081,270.087 330.759,270.940 330.051 C 271.544 329.548,271.600 326.569,271.600 294.813 L 271.600 260.124 270.759 259.362 C 269.809 258.501,255.538 258.037,253.682 258.807 M276.149 259.343 L 275.000 260.331 275.000 294.801 L 275.000 329.271 275.971 330.057 C 277.208 331.059,292.934 331.054,294.140 330.051 C 294.744 329.548,294.800 326.569,294.800 294.813 L 294.800 260.124 293.959 259.362 C 293.203 258.677,292.324 258.588,285.208 258.477 L 277.298 258.354 276.149 259.343 " stroke="none" fill="#fafbfa" fill-rule="evenodd"></path><path id="path1" d="M51.600 0.600 C 51.600 1.053,51.112 1.200,49.608 1.200 C 47.816 1.200,47.590 1.301,47.364 2.200 C 47.125 3.154,46.977 3.200,44.157 3.200 C 41.291 3.200,41.200 3.230,41.200 4.173 C 41.200 4.938,40.964 5.174,40.100 5.273 C 39.312 5.364,38.964 5.656,38.872 6.300 C 38.774 6.988,38.481 7.200,37.628 7.200 C 34.403 7.200,32.800 7.683,32.800 8.654 C 32.800 9.438,32.595 9.600,31.600 9.600 C 30.587 9.600,30.400 9.756,30.400 10.600 C 30.400 11.449,30.215 11.600,29.174 11.600 C 27.684 11.600,26.400 12.235,26.400 12.971 C 26.400 13.269,25.950 13.626,25.400 13.764 C 24.669 13.948,24.400 14.283,24.400 15.008 C 24.400 15.844,24.211 16.000,23.200 16.000 C 22.187 16.000,22.000 16.156,22.000 17.000 C 22.000 17.800,21.800 18.000,21.000 18.000 C 20.200 18.000,20.000 18.200,20.000 19.000 C 20.000 19.800,19.800 20.000,19.000 20.000 C 18.200 20.000,18.000 20.200,18.000 21.000 C 18.000 21.800,17.800 22.000,17.000 22.000 C 16.156 22.000,16.000 22.187,16.000 23.200 C 16.000 24.211,15.844 24.400,15.008 24.400 C 14.283 24.400,13.948 24.669,13.764 25.400 C 13.626 25.950,13.269 26.400,12.971 26.400 C 12.235 26.400,11.600 27.684,11.600 29.174 C 11.600 30.215,11.449 30.400,10.600 30.400 C 9.756 30.400,9.600 30.587,9.600 31.600 C 9.600 32.595,9.438 32.800,8.654 32.800 C 7.683 32.800,7.200 34.403,7.200 37.628 C 7.200 38.481,6.988 38.774,6.300 38.872 C 5.656 38.964,5.364 39.312,5.273 40.100 C 5.174 40.964,4.938 41.200,4.173 41.200 C 3.230 41.200,3.200 41.291,3.200 44.157 C 3.200 46.977,3.154 47.125,2.200 47.364 C 1.301 47.590,1.200 47.816,1.200 49.608 C 1.200 51.112,1.053 51.600,0.600 51.600 C 0.068 51.600,0.000 68.356,0.000 200.000 C 0.000 331.644,0.068 348.400,0.600 348.400 C 1.053 348.400,1.200 348.888,1.200 350.392 C 1.200 352.184,1.301 352.410,2.200 352.636 C 3.154 352.875,3.200 353.023,3.200 355.843 C 3.200 358.709,3.230 358.800,4.173 358.800 C 4.938 358.800,5.174 359.036,5.273 359.900 C 5.364 360.688,5.656 361.036,6.300 361.128 C 6.988 361.226,7.200 361.519,7.200 362.372 C 7.200 365.597,7.683 367.200,8.654 367.200 C 9.438 367.200,9.600 367.405,9.600 368.400 C 9.600 369.413,9.756 369.600,10.600 369.600 C 11.472 369.600,11.600 369.775,11.600 370.971 C 11.600 372.243,12.418 373.600,13.185 373.600 C 13.366 373.600,13.626 374.050,13.764 374.600 C 13.948 375.331,14.283 375.600,15.008 375.600 C 15.844 375.600,16.000 375.789,16.000 376.800 C 16.000 377.813,16.156 378.000,17.000 378.000 C 17.800 378.000,18.000 378.200,18.000 379.000 C 18.000 379.800,18.200 380.000,19.000 380.000 C 19.800 380.000,20.000 380.200,20.000 381.000 C 20.000 381.800,20.200 382.000,21.000 382.000 C 21.800 382.000,22.000 382.200,22.000 383.000 C 22.000 383.844,22.187 384.000,23.200 384.000 C 24.211 384.000,24.400 384.156,24.400 384.992 C 24.400 385.717,24.669 386.052,25.400 386.236 C 25.950 386.374,26.400 386.634,26.400 386.815 C 26.400 387.582,27.757 388.400,29.029 388.400 C 30.225 388.400,30.400 388.528,30.400 389.400 C 30.400 390.244,30.587 390.400,31.600 390.400 C 32.595 390.400,32.800 390.562,32.800 391.346 C 32.800 392.317,34.403 392.800,37.628 392.800 C 38.481 392.800,38.774 393.012,38.872 393.700 C 38.964 394.344,39.312 394.636,40.100 394.727 C 40.964 394.826,41.200 395.062,41.200 395.827 C 41.200 396.770,41.291 396.800,44.157 396.800 C 46.977 396.800,47.125 396.846,47.364 397.800 C 47.590 398.699,47.816 398.800,49.608 398.800 C 51.112 398.800,51.600 398.947,51.600 399.400 C 51.600 399.932,68.356 400.000,200.000 400.000 C 331.644 400.000,348.400 399.932,348.400 399.400 C 348.400 398.947,348.888 398.800,350.392 398.800 C 352.184 398.800,352.410 398.699,352.636 397.800 C 352.875 396.846,353.023 396.800,355.843 396.800 C 358.709 396.800,358.800 396.770,358.800 395.827 C 358.800 395.062,359.036 394.826,359.900 394.727 C 360.688 394.636,361.036 394.344,361.128 393.700 C 361.226 393.012,361.519 392.800,362.372 392.800 C 365.597 392.800,367.200 392.317,367.200 391.346 C 367.200 390.562,367.405 390.400,368.400 390.400 C 369.413 390.400,369.600 390.244,369.600 389.400 C 369.600 388.528,369.775 388.400,370.971 388.400 C 372.243 388.400,373.600 387.582,373.600 386.815 C 373.600 386.634,374.050 386.374,374.600 386.236 C 375.331 386.052,375.600 385.717,375.600 384.992 C 375.600 384.156,375.789 384.000,376.800 384.000 C 377.813 384.000,378.000 383.844,378.000 383.000 C 378.000 382.200,378.200 382.000,379.000 382.000 C 379.800 382.000,380.000 381.800,380.000 381.000 C 380.000 380.200,380.200 380.000,381.000 380.000 C 381.800 380.000,382.000 379.800,382.000 379.000 C 382.000 378.200,382.200 378.000,383.000 378.000 C 383.844 378.000,384.000 377.813,384.000 376.800 C 384.000 375.789,384.156 375.600,384.992 375.600 C 385.717 375.600,386.052 375.331,386.236 374.600 C 386.374 374.050,386.634 373.600,386.815 373.600 C 387.582 373.600,388.400 372.243,388.400 370.971 C 388.400 369.775,388.528 369.600,389.400 369.600 C 390.244 369.600,390.400 369.413,390.400 368.400 C 390.400 367.405,390.562 367.200,391.346 367.200 C 392.317 367.200,392.800 365.597,392.800 362.372 C 392.800 361.519,393.012 361.226,393.700 361.128 C 394.344 361.036,394.636 360.688,394.727 359.900 C 394.826 359.036,395.062 358.800,395.827 358.800 C 396.770 358.800,396.800 358.709,396.800 355.843 C 396.800 353.023,396.846 352.875,397.800 352.636 C 398.699 352.410,398.800 352.184,398.800 350.392 C 398.800 348.888,398.947 348.400,399.400 348.400 C 399.932 348.400,400.000 331.644,400.000 200.000 C 400.000 68.356,399.932 51.600,399.400 51.600 C 398.947 51.600,398.800 51.112,398.800 49.608 C 398.800 47.816,398.699 47.590,397.800 47.364 C 396.846 47.125,396.800 46.977,396.800 44.157 C 396.800 41.291,396.770 41.200,395.827 41.200 C 395.062 41.200,394.826 40.964,394.727 40.100 C 394.636 39.312,394.344 38.964,393.700 38.872 C 393.012 38.774,392.800 38.481,392.800 37.628 C 392.800 34.403,392.317 32.800,391.346 32.800 C 390.562 32.800,390.400 32.595,390.400 31.600 C 390.400 30.587,390.244 30.400,389.400 30.400 C 388.551 30.400,388.400 30.215,388.400 29.174 C 388.400 27.684,387.765 26.400,387.029 26.400 C 386.731 26.400,386.374 25.950,386.236 25.400 C 386.052 24.669,385.717 24.400,384.992 24.400 C 384.156 24.400,384.000 24.211,384.000 23.200 C 384.000 22.187,383.844 22.000,383.000 22.000 C 382.200 22.000,382.000 21.800,382.000 21.000 C 382.000 20.200,381.800 20.000,381.000 20.000 C 380.200 20.000,380.000 19.800,380.000 19.000 C 380.000 18.200,379.800 18.000,379.000 18.000 C 378.200 18.000,378.000 17.800,378.000 17.000 C 378.000 16.156,377.813 16.000,376.800 16.000 C 375.789 16.000,375.600 15.844,375.600 15.008 C 375.600 14.283,375.331 13.948,374.600 13.764 C 374.050 13.626,373.600 13.269,373.600 12.971 C 373.600 12.235,372.316 11.600,370.826 11.600 C 369.785 11.600,369.600 11.449,369.600 10.600 C 369.600 9.756,369.413 9.600,368.400 9.600 C 367.405 9.600,367.200 9.438,367.200 8.654 C 367.200 7.683,365.597 7.200,362.372 7.200 C 361.519 7.200,361.226 6.988,361.128 6.300 C 361.036 5.656,360.688 5.364,359.900 5.273 C 359.036 5.174,358.800 4.938,358.800 4.173 C 358.800 3.230,358.709 3.200,355.843 3.200 C 353.023 3.200,352.875 3.154,352.636 2.200 C 352.410 1.301,352.184 1.200,350.392 1.200 C 348.888 1.200,348.400 1.053,348.400 0.600 C 348.400 0.068,331.644 0.000,200.000 0.000 C 68.356 0.000,51.600 0.068,51.600 0.600 M132.000 45.521 C 133.879 46.390,135.815 48.457,137.818 51.731 C 138.468 52.793,139.495 54.194,140.100 54.845 C 140.705 55.495,141.200 56.213,141.200 56.440 C 141.200 56.668,141.650 57.443,142.200 58.164 C 142.750 58.886,143.200 59.615,143.200 59.785 C 143.200 59.955,143.695 60.682,144.300 61.401 C 144.905 62.120,145.998 63.702,146.728 64.918 C 147.459 66.133,148.404 67.442,148.828 67.826 C 149.253 68.210,149.600 68.711,149.600 68.940 C 149.600 69.445,151.362 72.110,152.888 73.914 C 153.500 74.637,154.000 75.418,154.000 75.651 C 154.000 76.073,154.822 77.240,156.900 79.768 C 157.505 80.503,158.000 81.243,158.000 81.411 C 158.000 81.836,160.730 85.909,161.216 86.210 C 161.434 86.344,161.877 87.027,162.200 87.727 C 162.524 88.427,163.418 89.810,164.186 90.800 C 164.955 91.790,165.873 93.116,166.227 93.748 C 166.581 94.379,167.529 95.806,168.335 96.920 C 169.141 98.033,170.160 99.527,170.600 100.240 C 171.040 100.952,172.120 102.578,173.000 103.852 C 173.880 105.127,174.780 106.465,175.000 106.826 C 175.220 107.186,176.435 108.993,177.700 110.841 C 180.728 115.264,180.840 115.432,182.514 118.030 C 183.304 119.257,184.232 120.494,184.575 120.779 C 184.919 121.065,185.200 121.521,185.200 121.794 C 185.200 122.067,185.695 122.937,186.300 123.729 C 187.837 125.738,188.993 127.414,190.774 130.214 C 191.619 131.541,192.601 132.868,192.955 133.163 C 193.310 133.457,193.600 133.921,193.600 134.194 C 193.600 134.467,194.095 135.337,194.700 136.129 C 196.335 138.267,197.488 139.949,199.000 142.400 C 199.746 143.610,200.704 144.960,201.128 145.400 C 202.159 146.471,202.608 148.421,201.923 148.856 C 201.635 149.038,196.088 149.191,189.597 149.194 L 177.793 149.200 176.483 147.700 C 175.762 146.875,174.608 145.300,173.918 144.200 C 173.228 143.100,172.267 141.750,171.782 141.200 C 171.298 140.650,170.654 139.741,170.351 139.180 C 169.065 136.798,168.148 135.404,167.356 134.627 C 166.891 134.172,166.389 133.411,166.240 132.935 C 165.984 132.118,164.297 129.719,163.052 128.400 C 162.741 128.070,162.199 127.170,161.849 126.400 C 161.498 125.630,160.582 124.190,159.813 123.200 C 159.043 122.210,158.048 120.770,157.600 120.000 C 157.152 119.230,156.159 117.790,155.393 116.800 C 154.627 115.810,153.877 114.730,153.726 114.400 C 153.575 114.070,152.720 112.752,151.826 111.472 C 150.932 110.191,149.750 108.454,149.200 107.612 C 148.650 106.769,146.760 103.973,145.000 101.398 C 141.397 96.126,141.455 96.212,138.286 91.466 C 136.423 88.674,135.781 88.000,134.986 88.000 L 134.000 88.000 134.000 125.538 C 134.000 161.906,133.976 163.097,133.240 163.764 C 132.314 164.602,129.330 165.449,124.800 166.161 C 122.215 166.567,120.746 167.067,118.673 168.248 C 117.174 169.101,115.573 170.010,115.116 170.266 C 114.659 170.522,113.886 171.232,113.398 171.843 C 111.560 174.149,111.586 175.098,111.696 110.319 L 111.800 49.400 113.000 47.872 C 114.141 46.419,115.640 45.345,117.400 44.718 C 119.268 44.052,130.115 44.649,132.000 45.521 M285.836 108.182 C 286.150 108.611,286.585 109.601,286.801 110.382 C 287.390 112.501,287.340 236.690,286.749 239.036 C 285.965 242.148,287.078 242.000,264.537 242.000 C 242.488 242.000,242.515 241.997,242.325 244.240 C 242.200 245.724,242.021 245.911,239.800 246.884 C 238.744 247.347,238.569 247.667,238.339 249.547 C 238.195 250.721,237.871 251.889,237.619 252.141 C 236.900 252.860,163.154 252.792,162.287 252.072 C 161.936 251.781,161.531 250.591,161.386 249.423 C 161.134 247.411,161.035 247.263,159.460 246.551 C 157.986 245.884,157.786 245.630,157.675 244.280 C 157.486 241.987,157.620 242.000,134.815 242.000 L 114.083 242.000 112.834 240.578 L 111.585 239.156 111.693 208.678 L 111.800 178.200 113.120 176.559 C 115.317 173.827,121.822 170.793,126.950 170.110 C 134.190 169.145,137.342 168.851,140.720 168.825 C 145.052 168.792,146.093 168.254,147.143 165.506 C 147.585 164.348,148.319 162.687,148.774 161.815 C 149.228 160.944,149.600 159.954,149.601 159.615 C 149.602 158.852,151.956 154.307,152.559 153.906 C 152.801 153.744,167.220 153.592,184.600 153.566 C 201.980 153.541,216.650 153.395,217.200 153.242 L 218.200 152.964 218.400 131.364 C 218.618 107.837,218.608 107.930,220.890 107.478 C 224.417 106.778,285.293 107.438,285.836 108.182 M224.277 113.880 C 223.880 113.983,223.385 114.514,223.177 115.060 C 222.455 116.959,222.692 195.667,223.423 196.711 L 224.045 197.600 252.546 197.600 C 276.528 197.600,281.170 197.510,281.824 197.032 C 282.601 196.464,283.326 120.552,282.593 116.478 C 282.038 113.389,284.187 113.594,252.900 113.646 C 237.555 113.672,224.675 113.777,224.277 113.880 M223.236 202.157 C 222.534 203.002,222.805 234.566,223.520 235.280 C 224.506 236.266,280.427 236.231,281.646 235.243 L 282.600 234.471 282.718 218.787 C 282.825 204.487,282.776 203.036,282.156 202.351 C 281.246 201.346,224.065 201.158,223.236 202.157 M248.367 258.547 C 249.462 260.318,249.689 301.132,248.618 303.694 C 247.791 305.674,249.605 305.606,199.244 305.553 C 150.028 305.501,152.055 305.579,151.228 303.700 C 150.581 302.231,149.451 301.984,148.814 303.174 C 148.555 303.657,148.400 308.390,148.400 315.787 C 148.400 328.668,148.192 330.136,146.302 330.610 C 144.334 331.104,129.758 330.631,129.060 330.051 C 128.456 329.548,128.400 326.568,128.400 294.813 L 128.400 260.124 129.241 259.362 C 129.993 258.680,130.870 258.587,137.553 258.477 C 146.034 258.337,146.960 258.529,147.829 260.607 C 148.405 261.986,150.000 262.086,150.000 260.743 C 150.000 260.508,150.555 259.614,151.234 258.758 L 152.467 257.200 200.001 257.200 L 247.535 257.200 248.367 258.547 M123.878 259.365 L 125.000 260.331 125.000 294.801 L 125.000 329.271 124.029 330.057 C 122.792 331.059,107.066 331.054,105.860 330.051 C 104.811 329.179,104.850 260.429,105.900 259.514 C 107.047 258.515,107.485 258.464,115.278 258.432 C 122.627 258.401,122.775 258.417,123.878 259.365 M270.759 259.362 L 271.600 260.124 271.600 294.813 C 271.600 326.569,271.544 329.548,270.940 330.051 C 270.087 330.759,254.473 331.081,253.230 330.416 C 252.789 330.180,252.241 329.315,252.012 328.493 C 251.517 326.719,250.836 262.272,251.310 262.063 C 251.480 261.988,251.877 261.310,252.192 260.557 C 253.021 258.573,253.788 258.417,262.259 258.513 C 269.158 258.591,270.002 258.676,270.759 259.362 M293.959 259.362 L 294.800 260.124 294.800 294.813 C 294.800 326.569,294.744 329.548,294.140 330.051 C 292.934 331.054,277.208 331.059,275.971 330.057 L 275.000 329.271 275.000 294.801 L 275.000 260.331 276.149 259.343 L 277.298 258.354 285.208 258.477 C 292.324 258.588,293.203 258.677,293.959 259.362 " stroke="none" fill="#008000" fill-rule="evenodd"></path></g></svg>
