<svg id="svg" version="1.1" xmlns="http://www.w3.org/2000/svg" xmlns:xlink="http://www.w3.org/1999/xlink" width="400" height="400" viewBox="0, 0, 400,400"><g id="svgg"><path id="path0" d="M193.200 47.247 C 192.210 47.445,188.678 47.858,185.352 48.166 C 181.735 48.501,178.826 48.973,178.115 49.340 C 177.462 49.678,175.864 50.225,174.564 50.556 C 169.046 51.959,165.583 53.397,159.400 56.852 C 158.300 57.467,156.791 58.259,156.046 58.613 C 154.373 59.407,152.843 60.470,150.000 62.813 C 148.790 63.810,147.170 65.095,146.400 65.670 C 141.362 69.427,139.986 71.912,141.789 74.000 C 142.074 74.330,142.733 75.383,143.253 76.340 C 143.774 77.297,144.650 78.854,145.200 79.799 C 145.750 80.744,146.707 82.391,147.326 83.459 C 147.945 84.526,148.890 86.120,149.425 87.000 C 149.960 87.880,150.763 89.356,151.209 90.280 C 152.652 93.270,154.687 94.250,155.820 92.500 C 158.213 88.804,166.116 82.015,170.800 79.633 C 176.371 76.800,177.617 76.253,179.992 75.602 C 181.426 75.208,183.320 74.605,184.200 74.261 C 185.080 73.917,186.700 73.615,187.800 73.591 C 188.900 73.567,191.435 73.331,193.434 73.068 C 195.432 72.805,197.772 72.708,198.634 72.853 C 199.495 72.999,202.308 73.309,204.884 73.542 C 208.004 73.825,210.073 74.224,211.084 74.736 C 211.918 75.158,213.371 75.632,214.313 75.789 C 215.254 75.946,217.324 76.774,218.913 77.629 C 220.501 78.483,222.371 79.453,223.068 79.783 C 229.325 82.747,238.718 91.904,242.200 98.433 C 244.559 102.855,246.400 106.768,246.400 107.357 C 246.400 107.724,246.829 109.054,247.353 110.312 C 247.915 111.662,248.493 114.240,248.764 116.600 C 249.016 118.800,249.487 121.680,249.811 123.000 C 251.065 128.107,250.708 128.305,240.149 128.360 C 231.207 128.407,230.773 128.564,232.548 131.125 C 233.127 131.960,233.600 132.845,233.600 133.091 C 233.600 133.337,234.009 134.047,234.509 134.669 C 235.009 135.291,235.738 136.430,236.129 137.200 C 236.520 137.970,237.274 139.320,237.806 140.200 C 238.337 141.080,239.273 142.674,239.886 143.741 C 240.499 144.809,241.450 146.456,242.000 147.400 C 242.550 148.344,243.540 150.054,244.200 151.200 C 244.860 152.346,245.885 154.119,246.477 155.141 C 247.069 156.164,247.781 157.450,248.057 158.000 C 248.334 158.550,248.929 159.540,249.380 160.200 C 250.271 161.506,251.095 162.922,252.408 165.400 C 252.874 166.280,253.868 167.990,254.617 169.200 C 255.366 170.410,256.329 172.145,256.756 173.056 C 257.184 173.967,257.724 174.829,257.956 174.973 C 258.187 175.116,258.748 175.991,259.201 176.917 C 262.261 183.165,264.044 184.726,265.353 182.300 C 265.739 181.585,266.576 180.100,267.213 179.000 C 267.850 177.900,268.872 176.126,269.485 175.059 C 270.098 173.991,271.050 172.344,271.600 171.400 C 272.150 170.456,273.102 168.809,273.715 167.741 C 277.447 161.241,278.914 158.720,280.197 156.600 C 280.730 155.720,281.519 154.255,281.950 153.344 C 282.381 152.433,282.924 151.571,283.156 151.427 C 283.387 151.284,283.950 150.409,284.405 149.483 C 284.860 148.558,285.720 146.964,286.316 145.941 C 287.694 143.579,289.539 140.356,290.721 138.245 C 291.228 137.340,292.077 135.880,292.607 135.000 C 296.764 128.102,297.080 128.400,285.600 128.400 C 275.194 128.400,275.779 128.670,275.453 123.717 C 275.320 121.692,275.042 119.262,274.836 118.317 C 274.629 117.373,274.259 114.552,274.014 112.049 C 273.759 109.450,273.287 106.962,272.915 106.249 C 272.556 105.562,271.944 103.740,271.556 102.200 C 270.725 98.908,269.381 94.931,268.718 93.800 C 268.460 93.360,267.831 92.190,267.321 91.200 C 262.760 82.354,261.064 79.940,252.537 70.154 C 248.769 65.831,237.885 58.217,230.807 54.954 C 230.040 54.600,229.000 53.986,228.495 53.589 C 227.990 53.191,226.817 52.740,225.888 52.586 C 224.960 52.432,223.712 52.056,223.116 51.751 C 222.520 51.445,220.884 50.930,219.481 50.604 C 218.078 50.279,216.136 49.670,215.165 49.251 C 214.000 48.749,211.912 48.396,209.026 48.213 C 206.620 48.061,203.200 47.681,201.426 47.369 C 197.851 46.740,195.887 46.711,193.200 47.247 M130.466 68.100 C 129.974 69.035,128.958 70.790,128.207 72.000 C 127.457 73.210,126.564 74.740,126.225 75.400 C 125.885 76.060,125.069 77.500,124.411 78.600 C 123.248 80.546,122.356 82.076,119.981 86.200 C 117.570 90.387,116.718 91.850,115.788 93.400 C 115.261 94.280,114.327 95.874,113.714 96.941 C 113.101 98.009,112.150 99.656,111.600 100.600 C 111.050 101.544,110.098 103.191,109.485 104.259 C 108.872 105.326,107.846 107.100,107.205 108.200 C 106.564 109.300,105.673 110.941,105.225 111.847 C 104.776 112.753,104.137 113.720,103.805 113.996 C 103.472 114.272,103.200 114.685,103.200 114.914 C 103.200 115.143,102.682 116.156,102.049 117.165 C 99.186 121.728,99.605 122.000,109.512 122.000 C 118.502 122.000,118.401 121.954,118.399 126.031 C 118.398 127.444,118.662 130.400,118.985 132.600 C 119.307 134.800,119.749 138.266,119.965 140.303 C 120.181 142.340,120.635 144.500,120.974 145.103 C 121.312 145.706,121.850 147.280,122.169 148.600 C 123.312 153.330,125.094 157.546,128.426 163.400 C 129.052 164.500,129.850 165.997,130.198 166.726 C 132.223 170.961,140.401 180.203,147.076 185.800 C 152.560 190.398,154.145 191.498,158.600 193.795 C 162.120 195.610,162.979 196.079,164.000 196.746 C 165.059 197.437,169.125 198.960,171.800 199.668 C 172.680 199.901,174.570 200.525,176.000 201.055 C 177.430 201.585,180.580 202.283,183.000 202.606 C 185.420 202.929,188.570 203.371,190.000 203.589 C 196.118 204.519,212.852 203.041,217.075 201.198 C 217.996 200.796,219.791 200.251,221.064 199.987 C 222.336 199.723,224.010 199.167,224.783 198.753 C 225.556 198.339,226.572 198.000,227.040 198.000 C 227.509 198.000,228.321 197.666,228.846 197.257 C 229.371 196.849,230.610 196.132,231.600 195.664 C 237.034 193.098,241.460 190.335,245.400 187.049 C 246.720 185.948,248.160 184.754,248.600 184.394 C 254.057 179.937,255.320 177.650,253.674 175.200 C 253.305 174.650,252.774 173.750,252.493 173.200 C 252.213 172.650,251.362 171.210,250.602 170.000 C 249.843 168.790,248.852 167.080,248.400 166.200 C 247.948 165.320,246.960 163.610,246.204 162.400 C 245.447 161.190,244.637 159.769,244.402 159.242 C 243.340 156.856,240.400 154.139,240.400 155.544 C 240.400 155.733,239.815 156.538,239.100 157.332 C 238.385 158.127,236.990 159.712,236.000 160.856 C 231.631 165.902,226.919 169.491,220.800 172.433 C 219.810 172.909,218.730 173.528,218.400 173.809 C 218.070 174.089,216.810 174.590,215.600 174.921 C 214.390 175.252,212.680 175.793,211.800 176.123 C 204.635 178.810,186.707 178.648,181.292 175.848 C 180.626 175.503,179.208 175.031,178.141 174.797 C 177.073 174.563,175.747 174.044,175.192 173.642 C 174.638 173.241,173.740 172.772,173.198 172.599 C 172.655 172.427,171.578 171.900,170.805 171.428 C 170.032 170.956,168.917 170.307,168.328 169.985 C 165.806 168.610,159.667 163.123,156.848 159.727 C 152.814 154.866,152.482 154.380,150.519 150.474 C 149.595 148.634,148.666 146.920,148.455 146.664 C 148.244 146.409,147.771 145.038,147.403 143.618 C 147.036 142.197,146.470 140.523,146.146 139.896 C 145.822 139.269,145.299 136.561,144.983 133.878 C 144.667 131.195,144.227 128.371,144.004 127.603 C 142.467 122.289,142.996 122.002,154.326 121.994 C 159.097 121.991,163.244 121.833,163.543 121.644 C 164.131 121.271,163.852 119.003,163.166 118.579 C 162.962 118.453,162.456 117.686,162.044 116.875 C 160.437 113.717,159.615 112.279,159.059 111.652 C 158.740 111.294,158.188 110.370,157.831 109.600 C 157.474 108.830,156.111 106.400,154.803 104.200 C 153.495 102.000,152.074 99.455,151.645 98.544 C 151.217 97.633,150.676 96.771,150.444 96.627 C 150.213 96.484,149.652 95.609,149.199 94.683 C 148.746 93.758,147.937 92.280,147.402 91.400 C 146.867 90.520,145.927 88.926,145.314 87.859 C 144.701 86.791,143.750 85.144,143.200 84.200 C 142.650 83.256,141.701 81.609,141.092 80.541 C 140.483 79.474,139.446 77.700,138.789 76.600 C 138.131 75.500,137.327 74.027,137.003 73.327 C 136.678 72.627,136.214 71.933,135.973 71.783 C 135.731 71.634,135.205 70.746,134.804 69.810 C 134.215 68.435,132.254 66.400,131.518 66.400 C 131.431 66.400,130.957 67.165,130.466 68.100 M154.200 219.221 C 150.721 219.685,147.692 221.186,145.178 223.692 C 139.616 229.237,140.000 224.515,140.000 287.372 C 140.000 344.479,140.037 345.503,142.208 348.083 C 142.723 348.695,143.251 349.529,143.380 349.937 C 143.675 350.866,145.884 352.628,149.000 354.420 L 151.400 355.800 200.000 355.800 L 248.600 355.800 250.800 354.619 C 253.477 353.182,256.318 350.887,256.628 349.913 C 256.753 349.519,257.277 348.695,257.792 348.083 C 259.963 345.503,260.000 344.479,260.000 287.372 C 260.000 224.515,260.384 229.237,254.822 223.692 C 252.225 221.104,249.276 219.694,245.400 219.189 C 241.974 218.743,157.565 218.773,154.200 219.221 M241.514 229.486 C 244.787 230.647,247.733 234.000,248.933 237.927 C 249.720 240.504,249.755 241.740,249.891 272.400 C 250.060 310.569,250.009 311.104,245.806 315.307 C 243.818 317.295,243.310 317.573,239.899 318.541 L 236.168 319.600 200.000 319.600 L 163.832 319.600 160.101 318.541 C 156.690 317.573,156.182 317.295,154.194 315.307 C 149.991 311.104,149.940 310.569,150.109 272.400 C 150.245 241.740,150.280 240.504,151.067 237.927 C 152.447 233.411,155.957 229.869,159.530 229.389 C 160.558 229.250,161.580 229.072,161.800 228.993 C 162.959 228.576,240.298 229.054,241.514 229.486 M167.359 327.656 C 173.541 331.751,173.087 343.154,166.600 346.716 C 164.863 347.670,157.094 347.655,155.400 346.694 C 148.781 342.939,148.338 331.831,154.641 327.656 C 156.482 326.436,156.666 326.400,161.000 326.400 C 165.334 326.400,165.518 326.436,167.359 327.656 M245.359 327.656 C 251.662 331.831,251.219 342.939,244.600 346.694 C 242.906 347.655,235.137 347.670,233.400 346.716 C 229.991 344.844,228.395 341.722,228.404 336.938 C 228.418 329.527,231.562 326.400,239.000 326.400 C 243.334 326.400,243.518 326.436,245.359 327.656 M157.949 358.662 C 156.399 360.531,157.483 369.217,159.547 371.478 C 161.222 373.311,172.012 373.963,175.233 372.426 C 178.056 371.078,180.258 359.820,177.980 358.379 C 176.833 357.654,158.571 357.911,157.949 358.662 M222.020 358.379 C 219.742 359.820,221.944 371.078,224.767 372.426 C 227.988 373.963,238.778 373.311,240.453 371.478 C 242.532 369.202,243.611 360.546,242.051 358.663 C 241.429 357.911,223.167 357.653,222.020 358.379 " stroke="none" fill="#ffffff" fill-rule="evenodd"></path><path id="path1" d="M53.600 0.600 C 53.600 1.080,53.000 1.200,50.600 1.200 C 47.667 1.200,47.600 1.222,47.600 2.200 C 47.600 3.183,47.547 3.200,44.400 3.200 C 41.272 3.200,41.200 3.222,41.200 4.178 C 41.200 5.061,41.015 5.168,39.300 5.278 C 37.798 5.374,37.320 5.583,37.017 6.272 C 36.745 6.892,36.109 7.239,34.817 7.474 C 33.362 7.739,32.975 7.984,32.872 8.702 C 32.776 9.379,32.479 9.600,31.667 9.600 C 30.933 9.600,30.464 9.887,30.195 10.500 C 29.926 11.112,29.352 11.464,28.400 11.600 C 27.458 11.735,26.873 12.089,26.612 12.684 C 26.399 13.170,25.859 13.620,25.412 13.684 C 24.860 13.763,24.559 14.153,24.473 14.900 C 24.367 15.821,24.156 16.000,23.173 16.000 C 22.188 16.000,22.000 16.161,22.000 17.000 C 22.000 17.800,21.800 18.000,21.000 18.000 C 20.200 18.000,20.000 18.200,20.000 19.000 C 20.000 19.800,19.800 20.000,19.000 20.000 C 18.200 20.000,18.000 20.200,18.000 21.000 C 18.000 21.800,17.800 22.000,17.000 22.000 C 16.161 22.000,16.000 22.188,16.000 23.173 C 16.000 24.156,15.821 24.367,14.900 24.473 C 14.153 24.559,13.763 24.860,13.684 25.412 C 13.620 25.859,13.170 26.399,12.684 26.612 C 12.089 26.873,11.735 27.458,11.600 28.400 C 11.464 29.352,11.112 29.926,10.500 30.195 C 9.887 30.464,9.600 30.933,9.600 31.667 C 9.600 32.479,9.379 32.776,8.702 32.872 C 7.984 32.975,7.739 33.362,7.474 34.817 C 7.239 36.109,6.892 36.745,6.272 37.017 C 5.583 37.320,5.374 37.798,5.278 39.300 C 5.168 41.015,5.061 41.200,4.178 41.200 C 3.222 41.200,3.200 41.272,3.200 44.400 C 3.200 47.547,3.183 47.600,2.200 47.600 C 1.222 47.600,1.200 47.667,1.200 50.600 C 1.200 53.000,1.080 53.600,0.600 53.600 C 0.068 53.600,0.000 70.133,0.000 200.000 C 0.000 329.867,0.068 346.400,0.600 346.400 C 1.080 346.400,1.200 347.000,1.200 349.400 C 1.200 352.333,1.222 352.400,2.200 352.400 C 3.183 352.400,3.200 352.453,3.200 355.600 C 3.200 358.728,3.222 358.800,4.178 358.800 C 5.061 358.800,5.168 358.985,5.278 360.700 C 5.374 362.202,5.583 362.680,6.272 362.983 C 6.892 363.255,7.239 363.891,7.474 365.183 C 7.739 366.638,7.984 367.025,8.702 367.128 C 9.379 367.224,9.600 367.521,9.600 368.333 C 9.600 369.067,9.887 369.536,10.500 369.805 C 11.112 370.074,11.464 370.648,11.600 371.600 C 11.735 372.542,12.089 373.127,12.684 373.388 C 13.170 373.601,13.620 374.141,13.684 374.588 C 13.763 375.140,14.153 375.441,14.900 375.527 C 15.821 375.633,16.000 375.844,16.000 376.827 C 16.000 377.812,16.161 378.000,17.000 378.000 C 17.800 378.000,18.000 378.200,18.000 379.000 C 18.000 379.800,18.200 380.000,19.000 380.000 C 19.800 380.000,20.000 380.200,20.000 381.000 C 20.000 381.800,20.200 382.000,21.000 382.000 C 21.800 382.000,22.000 382.200,22.000 383.000 C 22.000 383.839,22.188 384.000,23.173 384.000 C 24.156 384.000,24.367 384.179,24.473 385.100 C 24.559 385.847,24.860 386.237,25.412 386.316 C 25.859 386.380,26.399 386.830,26.612 387.316 C 26.873 387.911,27.458 388.265,28.400 388.400 C 29.352 388.536,29.926 388.888,30.195 389.500 C 30.464 390.113,30.933 390.400,31.667 390.400 C 32.479 390.400,32.776 390.621,32.872 391.298 C 32.975 392.016,33.362 392.261,34.817 392.526 C 36.109 392.761,36.745 393.108,37.017 393.728 C 37.320 394.417,37.798 394.626,39.300 394.722 C 41.015 394.832,41.200 394.939,41.200 395.822 C 41.200 396.778,41.272 396.800,44.400 396.800 C 47.547 396.800,47.600 396.817,47.600 397.800 C 47.600 398.778,47.667 398.800,50.600 398.800 C 53.000 398.800,53.600 398.920,53.600 399.400 C 53.600 399.932,70.133 400.000,200.000 400.000 C 329.867 400.000,346.400 399.932,346.400 399.400 C 346.400 398.920,347.000 398.800,349.400 398.800 C 352.333 398.800,352.400 398.778,352.400 397.800 C 352.400 396.817,352.453 396.800,355.600 396.800 C 358.728 396.800,358.800 396.778,358.800 395.822 C 358.800 394.939,358.985 394.832,360.700 394.722 C 362.202 394.626,362.680 394.417,362.983 393.728 C 363.255 393.108,363.891 392.761,365.183 392.526 C 366.638 392.261,367.025 392.016,367.128 391.298 C 367.224 390.621,367.521 390.400,368.333 390.400 C 369.067 390.400,369.536 390.113,369.805 389.500 C 370.074 388.888,370.648 388.536,371.600 388.400 C 372.542 388.265,373.127 387.911,373.388 387.316 C 373.601 386.830,374.141 386.380,374.588 386.316 C 375.140 386.237,375.441 385.847,375.527 385.100 C 375.633 384.179,375.844 384.000,376.827 384.000 C 377.812 384.000,378.000 383.839,378.000 383.000 C 378.000 382.200,378.200 382.000,379.000 382.000 C 379.800 382.000,380.000 381.800,380.000 381.000 C 380.000 380.200,380.200 380.000,381.000 380.000 C 381.800 380.000,382.000 379.800,382.000 379.000 C 382.000 378.200,382.200 378.000,383.000 378.000 C 383.839 378.000,384.000 377.812,384.000 376.827 C 384.000 375.844,384.179 375.633,385.100 375.527 C 385.847 375.441,386.237 375.140,386.316 374.588 C 386.380 374.141,386.830 373.601,387.316 373.388 C 387.911 373.127,388.265 372.542,388.400 371.600 C 388.536 370.648,388.888 370.074,389.500 369.805 C 390.113 369.536,390.400 369.067,390.400 368.333 C 390.400 367.521,390.621 367.224,391.298 367.128 C 392.016 367.025,392.261 366.638,392.526 365.183 C 392.761 363.891,393.108 363.255,393.728 362.983 C 394.417 362.680,394.626 362.202,394.722 360.700 C 394.832 358.985,394.939 358.800,395.822 358.800 C 396.778 358.800,396.800 358.728,396.800 355.600 C 396.800 352.453,396.817 352.400,397.800 352.400 C 398.778 352.400,398.800 352.333,398.800 349.400 C 398.800 347.000,398.920 346.400,399.400 346.400 C 399.932 346.400,400.000 329.867,400.000 200.000 C 400.000 70.133,399.932 53.600,399.400 53.600 C 398.920 53.600,398.800 53.000,398.800 50.600 C 398.800 47.667,398.778 47.600,397.800 47.600 C 396.817 47.600,396.800 47.547,396.800 44.400 C 396.800 41.272,396.778 41.200,395.822 41.200 C 394.939 41.200,394.832 41.015,394.722 39.300 C 394.626 37.798,394.417 37.320,393.728 37.017 C 393.108 36.745,392.761 36.109,392.526 34.817 C 392.261 33.362,392.016 32.975,391.298 32.872 C 390.621 32.776,390.400 32.479,390.400 31.667 C 390.400 30.933,390.113 30.464,389.500 30.195 C 388.888 29.926,388.536 29.352,388.400 28.400 C 388.265 27.458,387.911 26.873,387.316 26.612 C 386.830 26.399,386.380 25.859,386.316 25.412 C 386.237 24.860,385.847 24.559,385.100 24.473 C 384.179 24.367,384.000 24.156,384.000 23.173 C 384.000 22.188,383.839 22.000,383.000 22.000 C 382.200 22.000,382.000 21.800,382.000 21.000 C 382.000 20.200,381.800 20.000,381.000 20.000 C 380.200 20.000,380.000 19.800,380.000 19.000 C 380.000 18.200,379.800 18.000,379.000 18.000 C 378.200 18.000,378.000 17.800,378.000 17.000 C 378.000 16.161,377.812 16.000,376.827 16.000 C 375.844 16.000,375.633 15.821,375.527 14.900 C 375.441 14.153,375.140 13.763,374.588 13.684 C 374.141 13.620,373.601 13.170,373.388 12.684 C 373.127 12.089,372.542 11.735,371.600 11.600 C 370.648 11.464,370.074 11.112,369.805 10.500 C 369.536 9.887,369.067 9.600,368.333 9.600 C 367.521 9.600,367.224 9.379,367.128 8.702 C 367.025 7.984,366.638 7.739,365.183 7.474 C 363.891 7.239,363.255 6.892,362.983 6.272 C 362.680 5.583,362.202 5.374,360.700 5.278 C 358.985 5.168,358.800 5.061,358.800 4.178 C 358.800 3.222,358.728 3.200,355.600 3.200 C 352.453 3.200,352.400 3.183,352.400 2.200 C 352.400 1.222,352.333 1.200,349.400 1.200 C 347.000 1.200,346.400 1.080,346.400 0.600 C 346.400 0.068,329.867 0.000,200.000 0.000 C 70.133 0.000,53.600 0.068,53.600 0.600 M201.426 47.369 C 203.200 47.681,206.620 48.061,209.026 48.213 C 211.912 48.396,214.000 48.749,215.165 49.251 C 216.136 49.670,218.078 50.279,219.481 50.604 C 220.884 50.930,222.520 51.445,223.116 51.751 C 223.712 52.056,224.960 52.432,225.888 52.586 C 226.817 52.740,227.990 53.191,228.495 53.589 C 229.000 53.986,230.040 54.600,230.807 54.954 C 237.885 58.217,248.769 65.831,252.537 70.154 C 261.064 79.940,262.760 82.354,267.321 91.200 C 267.831 92.190,268.460 93.360,268.718 93.800 C 269.381 94.931,270.725 98.908,271.556 102.200 C 271.944 103.740,272.556 105.562,272.915 106.249 C 273.287 106.962,273.759 109.450,274.014 112.049 C 274.259 114.552,274.629 117.373,274.836 118.317 C 275.042 119.262,275.320 121.692,275.453 123.717 C 275.779 128.670,275.194 128.400,285.600 128.400 C 297.080 128.400,296.764 128.102,292.607 135.000 C 292.077 135.880,291.228 137.340,290.721 138.245 C 289.539 140.356,287.694 143.579,286.316 145.941 C 285.720 146.964,284.860 148.558,284.405 149.483 C 283.950 150.409,283.387 151.284,283.156 151.427 C 282.924 151.571,282.381 152.433,281.950 153.344 C 281.519 154.255,280.730 155.720,280.197 156.600 C 278.914 158.720,277.447 161.241,273.715 167.741 C 273.102 168.809,272.150 170.456,271.600 171.400 C 271.050 172.344,270.098 173.991,269.485 175.059 C 268.872 176.126,267.850 177.900,267.213 179.000 C 266.576 180.100,265.739 181.585,265.353 182.300 C 264.476 183.926,264.065 183.926,262.528 182.300 C 261.313 181.014,260.805 180.193,259.201 176.917 C 258.748 175.991,258.187 175.116,257.956 174.973 C 257.724 174.829,257.184 173.967,256.756 173.056 C 256.329 172.145,255.366 170.410,254.617 169.200 C 253.868 167.990,252.874 166.280,252.408 165.400 C 251.095 162.922,250.271 161.506,249.380 160.200 C 248.929 159.540,248.334 158.550,248.057 158.000 C 247.781 157.450,247.069 156.164,246.477 155.141 C 245.885 154.119,244.860 152.346,244.200 151.200 C 243.540 150.054,242.550 148.344,242.000 147.400 C 241.450 146.456,240.499 144.809,239.886 143.741 C 239.273 142.674,238.337 141.080,237.806 140.200 C 237.274 139.320,236.520 137.970,236.129 137.200 C 235.738 136.430,235.009 135.291,234.509 134.669 C 234.009 134.047,233.600 133.337,233.600 133.091 C 233.600 132.845,233.127 131.960,232.548 131.125 C 230.773 128.564,231.207 128.407,240.149 128.360 C 250.708 128.305,251.065 128.107,249.811 123.000 C 249.487 121.680,249.016 118.800,248.764 116.600 C 248.493 114.240,247.915 111.662,247.353 110.312 C 246.829 109.054,246.400 107.724,246.400 107.357 C 246.400 106.768,244.559 102.855,242.200 98.433 C 238.718 91.904,229.325 82.747,223.068 79.783 C 222.371 79.453,220.501 78.483,218.913 77.629 C 217.324 76.774,215.254 75.946,214.313 75.789 C 213.371 75.632,211.918 75.158,211.084 74.736 C 210.073 74.224,208.004 73.825,204.884 73.542 C 202.308 73.309,199.495 72.999,198.634 72.853 C 197.772 72.708,195.432 72.805,193.434 73.068 C 191.435 73.331,188.900 73.567,187.800 73.591 C 186.700 73.615,185.080 73.917,184.200 74.261 C 183.320 74.605,181.426 75.208,179.992 75.602 C 177.617 76.253,176.371 76.800,170.800 79.633 C 166.116 82.015,158.213 88.804,155.820 92.500 C 154.687 94.250,152.652 93.270,151.209 90.280 C 150.763 89.356,149.960 87.880,149.425 87.000 C 148.890 86.120,147.945 84.526,147.326 83.459 C 146.707 82.391,145.750 80.744,145.200 79.799 C 144.650 78.854,143.774 77.297,143.253 76.340 C 142.733 75.383,142.074 74.330,141.789 74.000 C 139.986 71.912,141.362 69.427,146.400 65.670 C 147.170 65.095,148.790 63.810,150.000 62.813 C 152.843 60.470,154.373 59.407,156.046 58.613 C 156.791 58.259,158.300 57.467,159.400 56.852 C 165.583 53.397,169.046 51.959,174.564 50.556 C 175.864 50.225,177.462 49.678,178.115 49.340 C 178.826 48.973,181.735 48.501,185.352 48.166 C 188.678 47.858,192.210 47.445,193.200 47.247 C 195.887 46.711,197.851 46.740,201.426 47.369 M132.876 67.254 C 133.535 67.723,134.403 68.874,134.804 69.810 C 135.205 70.746,135.731 71.634,135.973 71.783 C 136.214 71.933,136.678 72.627,137.003 73.327 C 137.327 74.027,138.131 75.500,138.789 76.600 C 139.446 77.700,140.483 79.474,141.092 80.541 C 141.701 81.609,142.650 83.256,143.200 84.200 C 143.750 85.144,144.701 86.791,145.314 87.859 C 145.927 88.926,146.867 90.520,147.402 91.400 C 147.937 92.280,148.746 93.758,149.199 94.683 C 149.652 95.609,150.213 96.484,150.444 96.627 C 150.676 96.771,151.217 97.633,151.645 98.544 C 152.074 99.455,153.495 102.000,154.803 104.200 C 156.111 106.400,157.474 108.830,157.831 109.600 C 158.188 110.370,158.740 111.294,159.059 111.652 C 159.615 112.279,160.437 113.717,162.044 116.875 C 162.456 117.686,162.962 118.453,163.166 118.579 C 163.852 119.003,164.131 121.271,163.543 121.644 C 163.244 121.833,159.097 121.991,154.326 121.994 C 142.996 122.002,142.467 122.289,144.004 127.603 C 144.227 128.371,144.667 131.195,144.983 133.878 C 145.299 136.561,145.822 139.269,146.146 139.896 C 146.470 140.523,147.036 142.197,147.403 143.618 C 147.771 145.038,148.244 146.409,148.455 146.664 C 148.666 146.920,149.595 148.634,150.519 150.474 C 153.999 157.399,162.669 166.898,168.328 169.985 C 168.917 170.307,170.032 170.956,170.805 171.428 C 171.578 171.900,172.655 172.427,173.198 172.599 C 173.740 172.772,174.638 173.241,175.192 173.642 C 175.747 174.044,177.073 174.563,178.141 174.797 C 179.208 175.031,180.626 175.503,181.292 175.848 C 186.707 178.648,204.635 178.810,211.800 176.123 C 212.680 175.793,214.390 175.252,215.600 174.921 C 216.810 174.590,218.070 174.089,218.400 173.809 C 218.730 173.528,219.810 172.909,220.800 172.433 C 226.919 169.491,231.631 165.902,236.000 160.856 C 236.990 159.712,238.385 158.127,239.100 157.332 C 239.815 156.538,240.400 155.733,240.400 155.544 C 240.400 154.139,243.340 156.856,244.402 159.242 C 244.637 159.769,245.447 161.190,246.204 162.400 C 246.960 163.610,247.948 165.320,248.400 166.200 C 248.852 167.080,249.843 168.790,250.602 170.000 C 251.362 171.210,252.213 172.650,252.493 173.200 C 252.774 173.750,253.305 174.650,253.674 175.200 C 255.320 177.650,254.057 179.937,248.600 184.394 C 248.160 184.754,246.720 185.948,245.400 187.049 C 241.460 190.335,237.034 193.098,231.600 195.664 C 230.610 196.132,229.371 196.849,228.846 197.257 C 228.321 197.666,227.509 198.000,227.040 198.000 C 226.572 198.000,225.556 198.339,224.783 198.753 C 224.010 199.167,222.336 199.723,221.064 199.987 C 219.791 200.251,217.996 200.796,217.075 201.198 C 212.852 203.041,196.118 204.519,190.000 203.589 C 188.570 203.371,185.420 202.929,183.000 202.606 C 180.580 202.283,177.430 201.585,176.000 201.055 C 174.570 200.525,172.680 199.901,171.800 199.668 C 169.125 198.960,165.059 197.437,164.000 196.746 C 162.979 196.079,162.120 195.610,158.600 193.795 C 154.145 191.498,152.560 190.398,147.076 185.800 C 140.401 180.203,132.223 170.961,130.198 166.726 C 129.850 165.997,129.052 164.500,128.426 163.400 C 125.094 157.546,123.312 153.330,122.169 148.600 C 121.850 147.280,121.312 145.706,120.974 145.103 C 120.635 144.500,120.181 142.340,119.965 140.303 C 119.749 138.266,119.307 134.800,118.985 132.600 C 118.662 130.400,118.398 127.444,118.399 126.031 C 118.401 121.954,118.502 122.000,109.512 122.000 C 99.605 122.000,99.186 121.728,102.049 117.165 C 102.682 116.156,103.200 115.143,103.200 114.914 C 103.200 114.685,103.472 114.272,103.805 113.996 C 104.137 113.720,104.776 112.753,105.225 111.847 C 105.673 110.941,106.564 109.300,107.205 108.200 C 107.846 107.100,108.872 105.326,109.485 104.259 C 110.098 103.191,111.050 101.544,111.600 100.600 C 112.150 99.656,113.101 98.009,113.714 96.941 C 114.327 95.874,115.261 94.280,115.788 93.400 C 116.718 91.850,117.570 90.387,119.981 86.200 C 122.356 82.076,123.248 80.546,124.411 78.600 C 125.069 77.500,125.885 76.060,126.225 75.400 C 126.564 74.740,127.457 73.210,128.207 72.000 C 128.958 70.790,129.974 69.035,130.466 68.100 C 131.510 66.113,131.352 66.169,132.876 67.254 M245.400 219.189 C 249.276 219.694,252.225 221.104,254.822 223.692 C 260.384 229.237,260.000 224.515,260.000 287.372 C 260.000 344.479,259.963 345.503,257.792 348.083 C 257.277 348.695,256.753 349.519,256.628 349.913 C 256.318 350.887,253.477 353.182,250.800 354.619 L 248.600 355.800 200.000 355.800 L 151.400 355.800 149.000 354.420 C 145.884 352.628,143.675 350.866,143.380 349.937 C 143.251 349.529,142.723 348.695,142.208 348.083 C 140.037 345.503,140.000 344.479,140.000 287.372 C 140.000 224.515,139.616 229.237,145.178 223.692 C 147.692 221.186,150.721 219.685,154.200 219.221 C 157.565 218.773,241.974 218.743,245.400 219.189 M161.800 228.993 C 161.580 229.072,160.558 229.250,159.530 229.389 C 157.249 229.695,155.205 231.104,152.946 233.927 C 150.258 237.284,150.265 237.190,150.109 272.400 C 149.940 310.569,149.991 311.104,154.194 315.307 C 156.182 317.295,156.690 317.573,160.101 318.541 L 163.832 319.600 200.000 319.600 L 236.168 319.600 239.899 318.541 C 243.310 317.573,243.818 317.295,245.806 315.307 C 250.009 311.104,250.060 310.569,249.891 272.400 C 249.755 241.740,249.720 240.504,248.933 237.927 C 247.733 234.000,244.787 230.647,241.514 229.486 C 240.298 229.054,162.959 228.576,161.800 228.993 M154.641 327.656 C 148.338 331.831,148.781 342.939,155.400 346.694 C 157.094 347.655,164.863 347.670,166.600 346.716 C 170.009 344.844,171.605 341.722,171.596 336.938 C 171.582 329.527,168.438 326.400,161.000 326.400 C 156.666 326.400,156.482 326.436,154.641 327.656 M232.641 327.656 C 226.459 331.751,226.913 343.154,233.400 346.716 C 235.137 347.670,242.906 347.655,244.600 346.694 C 251.219 342.939,251.662 331.831,245.359 327.656 C 243.518 326.436,243.334 326.400,239.000 326.400 C 234.666 326.400,234.482 326.436,232.641 327.656 M177.980 358.379 C 180.258 359.820,178.056 371.078,175.233 372.426 C 172.012 373.963,161.222 373.311,159.547 371.478 C 157.483 369.217,156.399 360.531,157.949 358.662 C 158.571 357.911,176.833 357.654,177.980 358.379 M242.051 358.663 C 243.611 360.546,242.532 369.202,240.453 371.478 C 238.778 373.311,227.988 373.963,224.767 372.426 C 221.944 371.078,219.742 359.820,222.020 358.379 C 223.167 357.653,241.429 357.911,242.051 358.663 " stroke="none" fill="#008000" fill-rule="evenodd"></path></g></svg>
