<svg id="svg" version="1.1" xmlns="http://www.w3.org/2000/svg" xmlns:xlink="http://www.w3.org/1999/xlink" width="400" height="400" viewBox="0, 0, 400,400"><g id="svgg"><path id="path0" d="M73.864 41.111 C 71.751 41.574,68.400 45.073,68.400 46.817 C 68.400 47.302,72.037 51.258,77.996 57.254 C 88.876 68.201,89.396 68.514,92.032 65.693 C 92.657 65.024,93.353 64.415,93.579 64.339 C 93.804 64.262,94.105 63.350,94.247 62.311 L 94.506 60.421 85.153 51.183 C 74.221 40.385,74.804 40.905,73.864 41.111 M327.080 42.832 C 323.034 46.438,322.958 46.282,334.300 57.591 C 345.394 68.652,345.018 68.468,348.785 64.701 C 351.750 61.736,351.265 60.753,342.820 52.600 C 340.769 50.620,338.890 48.766,338.645 48.481 C 338.400 48.195,337.966 47.745,337.681 47.481 C 337.395 47.216,336.945 46.767,336.681 46.481 C 334.411 44.032,330.393 40.800,329.620 40.800 C 329.477 40.800,328.334 41.714,327.080 42.832 M323.883 56.006 C 321.992 57.493,321.170 66.636,322.755 68.546 C 324.725 70.920,335.008 70.009,336.011 67.371 C 336.370 66.427,326.315 55.200,325.110 55.200 C 324.999 55.200,324.447 55.563,323.883 56.006 M66.975 56.826 C 65.683 58.173,65.083 63.683,65.888 66.807 C 66.856 70.565,79.155 71.176,79.704 67.493 C 79.949 65.847,79.732 65.548,74.330 60.100 C 69.412 55.140,68.836 54.884,66.975 56.826 M59.925 75.655 C 57.060 77.135,56.627 78.677,56.871 86.525 L 57.032 91.691 58.468 93.007 C 60.318 94.702,62.720 94.955,74.673 94.710 C 84.521 94.509,85.213 94.349,86.127 92.065 C 86.479 91.187,86.954 90.352,87.183 90.210 C 87.435 90.055,87.600 88.039,87.600 85.114 C 87.600 78.783,86.895 77.082,83.600 75.473 L 81.400 74.399 71.800 74.439 L 62.200 74.479 59.925 75.655 M316.200 75.517 C 313.122 77.107,312.400 78.932,312.400 85.114 C 312.400 88.039,312.565 90.055,312.817 90.210 C 313.046 90.352,313.521 91.187,313.873 92.065 C 314.787 94.349,315.479 94.509,325.327 94.710 C 337.280 94.955,339.682 94.702,341.532 93.007 L 342.968 91.691 343.129 86.525 C 343.377 78.547,342.964 77.144,339.912 75.619 L 337.472 74.400 327.836 74.442 C 318.296 74.483,318.180 74.494,316.200 75.517 M52.798 100.745 C 46.938 102.805,43.827 105.979,41.764 112.000 L 40.600 115.400 40.490 146.600 C 40.422 165.775,40.529 178.417,40.767 179.400 C 41.775 183.560,42.854 186.591,43.561 187.249 C 43.988 187.647,44.452 188.334,44.592 188.776 C 44.947 189.893,48.889 192.784,52.000 194.209 L 54.600 195.400 72.000 195.400 C 89.237 195.400,89.417 195.392,91.226 194.500 C 92.231 194.005,93.241 193.600,93.471 193.600 C 93.702 193.600,94.561 193.067,95.380 192.416 C 96.200 191.765,97.214 191.122,97.635 190.989 C 98.056 190.855,98.400 190.520,98.400 190.243 C 98.400 189.966,98.850 189.317,99.400 188.800 C 99.950 188.283,100.400 187.647,100.400 187.386 C 100.400 187.125,100.867 186.223,101.438 185.382 C 103.025 183.043,103.178 179.718,103.182 147.400 C 103.186 116.546,102.963 111.251,101.595 109.795 C 101.158 109.329,100.800 108.752,100.800 108.512 C 100.800 108.272,100.170 107.322,99.400 106.400 C 98.630 105.478,98.000 104.573,98.000 104.389 C 98.000 104.205,97.639 103.939,97.198 103.799 C 96.757 103.659,95.902 103.143,95.298 102.652 C 94.694 102.161,92.738 101.274,90.952 100.680 L 87.703 99.600 71.752 99.645 L 55.800 99.690 52.798 100.745 M308.785 100.745 C 307.126 101.325,305.266 102.198,304.652 102.684 C 304.037 103.169,303.189 103.677,302.767 103.810 C 302.345 103.944,302.000 104.205,302.000 104.389 C 302.000 104.573,301.370 105.478,300.600 106.400 C 299.830 107.322,299.200 108.272,299.200 108.512 C 299.200 108.752,298.842 109.329,298.405 109.795 C 297.037 111.251,296.814 116.546,296.818 147.400 C 296.822 179.718,296.975 183.043,298.562 185.382 C 299.133 186.223,299.600 187.125,299.600 187.386 C 299.600 187.647,300.050 188.283,300.600 188.800 C 301.150 189.317,301.600 189.966,301.600 190.243 C 301.600 190.520,301.944 190.855,302.365 190.989 C 302.786 191.122,303.800 191.765,304.620 192.416 C 305.439 193.067,306.298 193.600,306.529 193.600 C 306.759 193.600,307.769 194.005,308.774 194.500 C 310.583 195.392,310.763 195.400,328.000 195.400 L 345.400 195.400 348.000 194.209 C 351.111 192.784,355.053 189.893,355.408 188.776 C 355.548 188.334,356.012 187.647,356.439 187.249 C 357.146 186.591,358.225 183.560,359.233 179.400 C 359.471 178.417,359.578 165.775,359.510 146.600 L 359.400 115.400 358.236 112.000 C 356.142 105.887,353.038 102.768,347.000 100.709 L 343.800 99.617 327.800 99.653 L 311.800 99.690 308.785 100.745 M352.203 117.609 C 352.577 118.788,352.076 120.607,351.144 121.450 C 350.699 121.854,350.088 122.772,349.787 123.492 C 349.487 124.211,349.060 124.800,348.839 124.800 C 348.618 124.800,348.079 125.610,347.641 126.600 C 347.203 127.590,346.682 128.400,346.483 128.400 C 346.284 128.400,345.822 129.075,345.455 129.900 C 344.467 132.126,342.730 134.956,342.128 135.320 C 341.838 135.496,341.600 135.967,341.600 136.366 C 341.600 136.765,341.195 137.599,340.700 138.219 C 339.780 139.371,338.693 141.283,337.245 144.300 C 336.796 145.235,336.256 146.000,336.046 146.000 C 335.836 146.000,335.544 146.544,335.398 147.210 C 335.252 147.875,334.721 148.910,334.218 149.510 C 333.715 150.109,333.180 151.166,333.029 151.859 C 332.878 152.551,332.415 153.424,332.000 153.800 C 331.585 154.176,331.139 154.965,331.010 155.555 C 330.880 156.144,330.330 157.144,329.787 157.775 C 329.244 158.407,328.800 159.232,328.800 159.608 C 328.800 159.984,328.436 160.755,327.991 161.320 C 327.547 161.885,326.912 163.116,326.581 164.054 C 326.250 164.993,325.734 166.039,325.434 166.380 C 325.134 166.721,324.767 167.577,324.617 168.281 C 324.467 168.986,324.026 169.976,323.636 170.481 C 323.247 170.987,322.726 171.993,322.478 172.719 C 322.231 173.444,321.662 174.503,321.214 175.073 C 320.766 175.642,320.400 176.320,320.400 176.579 C 320.400 177.405,318.248 179.148,316.441 179.786 C 313.264 180.906,309.959 179.306,309.197 176.279 C 308.964 175.355,308.434 173.880,308.018 173.000 C 307.603 172.120,307.135 170.500,306.979 169.400 C 306.823 168.300,306.377 166.768,305.988 165.996 C 303.038 160.134,307.505 151.683,312.665 153.363 C 313.636 153.680,315.833 157.755,316.189 159.900 C 316.344 160.835,316.616 161.600,316.794 161.600 C 317.500 161.600,319.509 158.812,319.757 157.487 C 319.902 156.713,320.285 155.861,320.608 155.594 C 320.930 155.326,321.380 154.416,321.608 153.571 C 321.835 152.727,322.292 151.765,322.622 151.435 C 322.953 151.104,323.493 150.070,323.822 149.137 C 324.152 148.203,324.664 147.161,324.960 146.820 C 325.256 146.479,325.703 145.564,325.952 144.787 C 326.201 144.010,326.764 143.066,327.202 142.691 C 327.641 142.315,328.000 141.660,328.000 141.235 C 328.000 140.809,328.425 139.953,328.945 139.331 C 329.465 138.709,330.030 137.750,330.200 137.200 C 330.370 136.650,330.935 135.691,331.455 135.069 C 331.975 134.447,332.400 133.710,332.400 133.431 C 332.400 133.152,332.760 132.598,333.200 132.200 C 333.640 131.802,334.000 131.251,334.000 130.976 C 334.000 130.701,334.585 129.749,335.300 128.862 C 336.015 127.974,337.016 126.652,337.524 125.924 C 340.342 121.883,341.789 120.142,342.739 119.651 C 343.323 119.350,344.160 118.787,344.600 118.401 C 345.040 118.015,346.302 117.489,347.403 117.233 C 348.505 116.976,349.666 116.607,349.982 116.411 C 350.730 115.949,351.871 116.564,352.203 117.609 M236.900 120.812 C 236.405 121.011,236.000 121.333,236.000 121.526 C 236.000 121.719,235.621 122.047,235.158 122.254 C 232.211 123.569,232.922 130.300,236.213 132.229 C 237.196 132.805,238.000 133.427,238.000 133.611 C 238.000 133.795,238.405 134.070,238.900 134.221 C 239.846 134.510,242.622 136.133,244.118 137.272 C 246.411 139.018,247.278 138.988,186.857 139.200 L 129.753 139.400 128.376 140.552 C 127.022 141.685,125.953 143.406,125.481 145.213 C 125.327 145.800,125.628 146.925,126.314 148.326 C 128.172 152.120,122.407 151.773,187.267 152.000 C 218.653 152.110,244.468 152.335,244.633 152.500 C 244.798 152.665,244.717 152.800,244.453 152.800 C 244.189 152.800,243.602 153.429,243.148 154.198 C 242.677 154.996,241.610 155.949,240.661 156.418 C 233.789 159.817,231.840 163.368,234.255 168.093 C 235.484 170.498,241.899 171.305,244.078 169.328 C 244.852 168.625,246.329 167.783,249.883 166.015 C 250.809 165.554,251.680 164.995,251.817 164.772 C 251.955 164.549,252.773 164.084,253.634 163.740 C 254.495 163.395,255.200 162.968,255.200 162.790 C 255.200 162.612,255.998 162.161,256.974 161.789 C 257.950 161.416,258.841 160.871,258.953 160.578 C 259.066 160.285,259.887 159.826,260.779 159.559 C 261.670 159.292,262.400 158.915,262.400 158.722 C 262.400 158.529,263.165 158.005,264.100 157.556 C 266.804 156.260,269.244 154.883,269.949 154.257 C 270.307 153.940,271.230 153.508,272.000 153.298 C 272.770 153.088,274.081 152.453,274.913 151.887 C 275.745 151.321,276.557 150.800,276.717 150.729 C 277.267 150.484,279.200 146.324,279.200 145.383 C 279.200 143.466,275.591 139.200,273.970 139.200 C 273.572 139.200,273.124 139.000,272.972 138.755 C 272.821 138.511,271.776 137.866,270.649 137.321 C 267.476 135.789,265.077 134.447,264.827 134.063 C 264.702 133.871,263.790 133.319,262.800 132.837 C 260.313 131.626,258.530 130.607,257.751 129.953 C 257.067 129.378,254.988 128.233,252.144 126.863 C 251.233 126.425,250.371 125.876,250.227 125.644 C 250.084 125.413,249.209 124.850,248.283 124.395 C 247.358 123.940,245.700 123.046,244.600 122.408 C 240.939 120.285,239.140 119.912,236.900 120.812 M66.650 134.343 C 72.087 139.771,71.600 139.758,76.716 134.605 C 82.127 129.154,81.782 129.127,87.900 135.475 C 90.375 138.043,92.387 140.336,92.372 140.572 C 92.303 141.615,91.563 142.574,87.879 146.384 C 83.217 151.206,83.227 150.885,87.617 155.400 C 91.537 159.430,92.800 160.843,92.800 161.196 C 92.800 161.349,90.675 163.663,88.077 166.338 C 83.075 171.487,81.397 172.359,79.916 170.581 C 79.632 170.240,79.166 169.745,78.881 169.481 C 78.595 169.216,78.145 168.766,77.881 168.481 C 77.616 168.195,77.174 167.745,76.899 167.481 C 73.942 164.646,72.800 163.441,72.800 163.157 C 72.800 162.239,70.328 163.979,67.273 167.047 C 62.939 171.401,62.426 171.742,61.016 171.206 C 59.863 170.768,53.179 164.264,51.771 162.210 L 50.941 161.000 51.971 159.631 C 52.537 158.878,54.273 156.988,55.829 155.431 C 59.593 151.664,60.276 150.576,59.227 150.014 C 58.802 149.787,58.343 149.250,58.207 148.821 C 58.070 148.392,57.617 147.933,57.200 147.800 C 56.783 147.667,56.333 147.217,56.200 146.800 C 56.067 146.383,55.617 145.933,55.200 145.800 C 54.783 145.667,54.333 145.217,54.200 144.800 C 54.067 144.383,53.636 143.938,53.240 143.813 C 51.637 143.304,51.104 140.214,52.405 138.970 C 52.848 138.546,53.433 137.966,53.705 137.681 C 53.977 137.395,54.434 136.945,54.719 136.681 C 55.005 136.416,55.455 135.966,55.719 135.681 C 55.984 135.395,56.434 134.945,56.719 134.681 C 57.005 134.416,57.455 133.962,57.719 133.672 C 61.504 129.515,61.838 129.540,66.650 134.343 M151.000 193.007 C 146.338 193.751,145.763 194.048,145.462 195.868 C 145.139 197.823,145.130 268.696,145.452 269.900 C 145.730 270.936,146.705 271.082,147.361 270.186 C 147.608 269.848,148.798 269.323,150.005 269.019 C 151.212 268.715,152.920 268.189,153.800 267.850 C 154.680 267.512,155.786 267.227,156.257 267.218 C 157.601 267.190,157.600 267.214,157.600 242.629 C 157.600 220.518,157.638 219.290,158.335 218.659 C 159.095 217.971,160.400 218.736,160.400 219.870 C 160.400 220.093,160.785 220.619,161.255 221.038 C 161.726 221.457,162.360 222.340,162.664 223.000 C 162.968 223.660,163.840 225.010,164.602 226.000 C 165.363 226.990,166.336 228.442,166.764 229.227 C 167.192 230.011,167.825 230.889,168.171 231.176 C 168.517 231.463,168.800 231.876,168.800 232.094 C 168.800 232.312,169.266 233.055,169.836 233.745 C 170.829 234.949,173.299 238.607,175.013 241.414 C 175.461 242.147,176.136 243.087,176.513 243.504 C 176.891 243.922,177.200 244.442,177.200 244.662 C 177.200 244.881,177.650 245.483,178.200 246.000 C 178.750 246.517,179.209 247.133,179.220 247.370 C 179.231 247.606,180.038 248.880,181.013 250.200 C 181.988 251.520,183.131 253.230,183.554 254.000 C 185.257 257.104,185.644 257.233,192.914 257.110 C 200.357 256.984,200.746 256.752,198.418 253.822 C 197.748 252.980,197.200 252.088,197.200 251.841 C 197.200 251.594,196.840 251.168,196.400 250.893 C 195.960 250.618,195.600 250.210,195.600 249.987 C 195.600 249.615,193.641 246.533,192.176 244.600 C 190.675 242.620,189.560 240.900,188.998 239.700 C 188.663 238.985,188.214 238.400,188.000 238.400 C 187.786 238.400,187.337 237.815,187.002 237.100 C 186.436 235.891,185.278 234.108,183.819 232.200 C 182.339 230.265,181.162 228.513,180.594 227.400 C 180.258 226.740,179.360 225.390,178.598 224.400 C 177.837 223.410,176.864 221.958,176.436 221.173 C 176.008 220.389,175.375 219.511,175.029 219.224 C 174.683 218.937,174.400 218.482,174.400 218.213 C 174.400 217.944,174.015 217.381,173.545 216.962 C 173.074 216.543,172.440 215.660,172.136 215.000 C 171.832 214.340,170.960 212.990,170.198 212.000 C 169.437 211.010,168.464 209.558,168.036 208.773 C 167.608 207.989,166.975 207.111,166.629 206.824 C 166.283 206.537,166.000 206.082,166.000 205.813 C 166.000 205.544,165.615 204.981,165.145 204.562 C 164.674 204.143,164.037 203.260,163.727 202.600 C 163.119 201.302,161.562 198.965,160.663 198.000 C 160.356 197.670,159.806 196.816,159.443 196.102 C 158.906 195.049,155.955 192.970,154.400 192.551 C 154.290 192.521,152.760 192.726,151.000 193.007 M60.373 200.728 C 58.827 201.399,57.498 202.877,57.170 204.289 C 56.366 207.753,56.933 217.978,57.949 218.316 C 58.183 218.394,59.018 218.895,59.805 219.429 C 61.232 220.397,61.264 220.400,71.982 220.400 L 82.728 220.400 84.376 219.321 C 85.283 218.727,86.127 217.835,86.251 217.337 C 86.376 216.840,86.731 216.223,87.039 215.967 C 87.719 215.403,87.855 205.469,87.193 204.683 C 86.969 204.417,86.379 203.573,85.881 202.806 C 84.354 200.454,84.096 200.410,72.000 200.434 C 65.950 200.446,60.718 200.579,60.373 200.728 M316.012 200.902 C 315.469 201.182,314.617 202.039,314.119 202.806 C 313.621 203.573,313.031 204.417,312.807 204.683 C 312.145 205.469,312.281 215.403,312.961 215.967 C 313.269 216.223,313.624 216.840,313.749 217.337 C 313.873 217.835,314.717 218.727,315.624 219.321 L 317.272 220.400 328.018 220.400 L 338.764 220.400 340.282 219.406 C 342.679 217.835,342.718 217.773,343.017 214.983 C 343.741 208.222,343.007 203.127,341.089 201.600 L 339.833 200.600 328.417 200.497 C 319.786 200.418,316.759 200.517,316.012 200.902 M67.023 225.569 C 65.542 225.879,63.600 227.508,63.600 228.440 C 63.600 229.490,74.453 239.679,75.323 239.446 C 75.805 239.317,76.388 239.208,76.617 239.205 C 78.457 239.181,78.420 226.554,76.578 225.847 C 75.492 225.430,68.641 225.231,67.023 225.569 M323.200 225.538 C 322.210 225.693,321.196 225.948,320.948 226.104 C 319.721 226.874,320.278 230.581,321.688 231.028 C 322.080 231.152,322.400 231.403,322.400 231.586 C 322.400 232.018,327.982 237.600,328.414 237.600 C 328.597 237.600,328.854 237.939,328.985 238.352 C 329.432 239.762,331.596 239.788,332.985 238.400 C 335.318 236.069,334.895 227.335,332.384 225.992 C 331.368 225.448,325.587 225.162,323.200 225.538 M51.300 230.305 C 48.134 233.759,47.625 232.888,60.086 245.328 C 70.130 255.355,69.850 255.209,73.181 252.140 C 76.877 248.736,76.922 248.823,65.649 237.551 C 54.379 226.280,54.795 226.490,51.300 230.305 M307.543 229.943 C 304.089 233.396,303.957 233.147,315.219 244.394 C 325.506 254.668,326.753 255.530,327.986 253.227 C 328.213 252.802,328.714 252.345,329.100 252.212 C 331.000 251.557,331.983 248.595,330.800 247.091 C 330.360 246.531,330.000 245.983,330.000 245.872 C 330.000 245.713,322.999 238.689,312.986 228.804 C 311.524 227.361,309.755 227.731,307.543 229.943 M213.136 233.500 C 212.654 234.692,212.626 235.491,212.997 237.500 C 213.297 239.129,214.000 239.205,214.000 237.609 C 214.000 235.157,213.939 235.164,233.928 235.288 C 248.068 235.376,252.073 235.512,252.480 235.920 C 253.299 236.739,253.457 287.096,252.644 288.208 C 251.635 289.589,216.240 289.628,213.913 288.251 C 213.865 288.223,213.730 281.970,213.613 274.355 L 213.400 260.511 211.400 261.038 C 209.885 261.437,204.781 261.569,190.341 261.582 L 171.283 261.600 170.041 263.014 C 169.359 263.792,168.800 264.680,168.800 264.988 C 168.800 265.681,168.294 266.817,166.836 269.400 L 165.707 271.400 159.732 271.643 C 152.598 271.933,150.139 272.260,149.872 272.957 C 149.762 273.242,148.877 273.698,147.905 273.971 C 145.088 274.759,145.118 274.520,145.181 295.918 C 145.229 312.464,145.308 314.656,145.880 315.288 C 146.472 315.942,147.555 316.000,159.233 316.000 L 171.942 316.000 172.767 317.100 C 173.221 317.705,174.528 319.235,175.671 320.500 L 177.749 322.800 199.889 322.800 L 222.030 322.800 224.315 320.430 C 225.572 319.126,226.916 317.605,227.303 317.051 L 228.006 316.042 240.818 315.921 C 251.679 315.818,253.688 315.709,254.012 315.200 C 254.872 313.850,254.298 233.607,253.424 232.968 C 252.778 232.496,249.351 232.400,233.114 232.400 L 213.580 232.400 213.136 233.500 M252.148 290.605 C 253.724 292.181,253.643 311.952,252.056 313.236 C 250.992 314.097,216.788 314.450,215.230 313.616 C 213.208 312.534,212.779 292.355,214.744 290.764 C 216.046 289.711,251.104 289.561,252.148 290.605 M172.000 327.123 C 171.670 327.276,170.815 327.936,170.100 328.590 L 168.800 329.778 168.800 341.515 C 168.800 354.011,168.855 354.394,170.792 355.396 C 172.576 356.318,227.051 356.304,228.837 355.381 C 230.683 354.426,230.801 353.573,230.788 341.274 L 230.777 329.800 229.505 328.400 L 228.233 327.000 200.416 326.923 C 185.117 326.880,172.330 326.970,172.000 327.123 M143.129 328.259 C 140.946 328.644,141.000 328.079,141.000 350.400 C 141.000 367.338,141.099 371.197,141.549 371.739 C 142.332 372.682,150.034 372.709,150.971 371.771 C 151.889 370.854,151.931 329.573,151.015 328.812 C 150.407 328.308,145.002 327.928,143.129 328.259 M157.603 328.334 C 155.604 328.937,155.589 329.118,155.698 350.839 C 155.781 367.292,155.903 371.201,156.349 371.739 C 156.974 372.492,164.489 372.711,165.600 372.009 C 166.697 371.316,166.705 330.000,165.609 329.008 C 164.714 328.198,159.506 327.760,157.603 328.334 M235.742 328.254 C 233.500 328.752,233.562 328.073,233.686 350.762 C 233.785 368.791,233.882 371.681,234.400 372.009 C 235.511 372.711,243.026 372.492,243.651 371.739 C 244.576 370.624,244.452 329.881,243.521 328.949 C 242.837 328.265,237.741 327.810,235.742 328.254 M250.400 328.268 C 248.324 328.702,248.400 327.871,248.400 350.220 C 248.400 368.707,248.473 371.216,249.029 371.771 C 249.966 372.709,257.668 372.682,258.451 371.739 C 259.350 370.655,259.255 329.884,258.351 328.980 C 257.677 328.306,252.456 327.838,250.400 328.268 " stroke="none" fill="#f7faf6" fill-rule="evenodd"></path><path id="path1" d="M53.600 0.600 C 53.600 1.080,53.000 1.200,50.600 1.200 C 47.667 1.200,47.600 1.222,47.600 2.200 C 47.600 3.183,47.547 3.200,44.400 3.200 C 41.272 3.200,41.200 3.222,41.200 4.178 C 41.200 5.061,41.015 5.168,39.300 5.278 C 37.798 5.374,37.320 5.583,37.017 6.272 C 36.745 6.892,36.109 7.239,34.817 7.474 C 33.362 7.739,32.975 7.984,32.872 8.702 C 32.776 9.379,32.479 9.600,31.667 9.600 C 30.933 9.600,30.464 9.887,30.195 10.500 C 29.926 11.112,29.352 11.464,28.400 11.600 C 27.458 11.735,26.873 12.089,26.612 12.684 C 26.399 13.170,25.859 13.620,25.412 13.684 C 24.860 13.763,24.559 14.153,24.473 14.900 C 24.367 15.821,24.156 16.000,23.173 16.000 C 22.188 16.000,22.000 16.161,22.000 17.000 C 22.000 17.800,21.800 18.000,21.000 18.000 C 20.200 18.000,20.000 18.200,20.000 19.000 C 20.000 19.800,19.800 20.000,19.000 20.000 C 18.200 20.000,18.000 20.200,18.000 21.000 C 18.000 21.800,17.800 22.000,17.000 22.000 C 16.161 22.000,16.000 22.188,16.000 23.173 C 16.000 24.156,15.821 24.367,14.900 24.473 C 14.153 24.559,13.763 24.860,13.684 25.412 C 13.620 25.859,13.170 26.399,12.684 26.612 C 12.089 26.873,11.735 27.458,11.600 28.400 C 11.464 29.352,11.112 29.926,10.500 30.195 C 9.887 30.464,9.600 30.933,9.600 31.667 C 9.600 32.479,9.379 32.776,8.702 32.872 C 7.984 32.975,7.739 33.362,7.474 34.817 C 7.239 36.109,6.892 36.745,6.272 37.017 C 5.583 37.320,5.374 37.798,5.278 39.300 C 5.168 41.015,5.061 41.200,4.178 41.200 C 3.222 41.200,3.200 41.272,3.200 44.400 C 3.200 47.547,3.183 47.600,2.200 47.600 C 1.222 47.600,1.200 47.667,1.200 50.600 C 1.200 53.000,1.080 53.600,0.600 53.600 C 0.068 53.600,0.000 70.133,0.000 200.000 C 0.000 329.867,0.068 346.400,0.600 346.400 C 1.080 346.400,1.200 347.000,1.200 349.400 C 1.200 352.333,1.222 352.400,2.200 352.400 C 3.183 352.400,3.200 352.453,3.200 355.600 C 3.200 358.728,3.222 358.800,4.178 358.800 C 5.061 358.800,5.168 358.985,5.278 360.700 C 5.374 362.202,5.583 362.680,6.272 362.983 C 6.892 363.255,7.239 363.891,7.474 365.183 C 7.739 366.638,7.984 367.025,8.702 367.128 C 9.379 367.224,9.600 367.521,9.600 368.333 C 9.600 369.067,9.887 369.536,10.500 369.805 C 11.112 370.074,11.464 370.648,11.600 371.600 C 11.735 372.542,12.089 373.127,12.684 373.388 C 13.170 373.601,13.620 374.141,13.684 374.588 C 13.763 375.140,14.153 375.441,14.900 375.527 C 15.821 375.633,16.000 375.844,16.000 376.827 C 16.000 377.812,16.161 378.000,17.000 378.000 C 17.800 378.000,18.000 378.200,18.000 379.000 C 18.000 379.800,18.200 380.000,19.000 380.000 C 19.800 380.000,20.000 380.200,20.000 381.000 C 20.000 381.800,20.200 382.000,21.000 382.000 C 21.800 382.000,22.000 382.200,22.000 383.000 C 22.000 383.839,22.188 384.000,23.173 384.000 C 24.156 384.000,24.367 384.179,24.473 385.100 C 24.559 385.847,24.860 386.237,25.412 386.316 C 25.859 386.380,26.399 386.830,26.612 387.316 C 26.873 387.911,27.458 388.265,28.400 388.400 C 29.352 388.536,29.926 388.888,30.195 389.500 C 30.464 390.113,30.933 390.400,31.667 390.400 C 32.479 390.400,32.776 390.621,32.872 391.298 C 32.975 392.016,33.362 392.261,34.817 392.526 C 36.109 392.761,36.745 393.108,37.017 393.728 C 37.320 394.417,37.798 394.626,39.300 394.722 C 41.015 394.832,41.200 394.939,41.200 395.822 C 41.200 396.778,41.272 396.800,44.400 396.800 C 47.547 396.800,47.600 396.817,47.600 397.800 C 47.600 398.778,47.667 398.800,50.600 398.800 C 53.000 398.800,53.600 398.920,53.600 399.400 C 53.600 399.932,70.133 400.000,200.000 400.000 C 329.867 400.000,346.400 399.932,346.400 399.400 C 346.400 398.920,347.000 398.800,349.400 398.800 C 352.333 398.800,352.400 398.778,352.400 397.800 C 352.400 396.817,352.453 396.800,355.600 396.800 C 358.728 396.800,358.800 396.778,358.800 395.822 C 358.800 394.939,358.985 394.832,360.700 394.722 C 362.202 394.626,362.680 394.417,362.983 393.728 C 363.255 393.108,363.891 392.761,365.183 392.526 C 366.638 392.261,367.025 392.016,367.128 391.298 C 367.224 390.621,367.521 390.400,368.333 390.400 C 369.067 390.400,369.536 390.113,369.805 389.500 C 370.074 388.888,370.648 388.536,371.600 388.400 C 372.542 388.265,373.127 387.911,373.388 387.316 C 373.601 386.830,374.141 386.380,374.588 386.316 C 375.140 386.237,375.441 385.847,375.527 385.100 C 375.633 384.179,375.844 384.000,376.827 384.000 C 377.812 384.000,378.000 383.839,378.000 383.000 C 378.000 382.200,378.200 382.000,379.000 382.000 C 379.800 382.000,380.000 381.800,380.000 381.000 C 380.000 380.200,380.200 380.000,381.000 380.000 C 381.800 380.000,382.000 379.800,382.000 379.000 C 382.000 378.200,382.200 378.000,383.000 378.000 C 383.839 378.000,384.000 377.812,384.000 376.827 C 384.000 375.844,384.179 375.633,385.100 375.527 C 385.847 375.441,386.237 375.140,386.316 374.588 C 386.380 374.141,386.830 373.601,387.316 373.388 C 387.911 373.127,388.265 372.542,388.400 371.600 C 388.536 370.648,388.888 370.074,389.500 369.805 C 390.113 369.536,390.400 369.067,390.400 368.333 C 390.400 367.521,390.621 367.224,391.298 367.128 C 392.016 367.025,392.261 366.638,392.526 365.183 C 392.761 363.891,393.108 363.255,393.728 362.983 C 394.417 362.680,394.626 362.202,394.722 360.700 C 394.832 358.985,394.939 358.800,395.822 358.800 C 396.778 358.800,396.800 358.728,396.800 355.600 C 396.800 352.453,396.817 352.400,397.800 352.400 C 398.778 352.400,398.800 352.333,398.800 349.400 C 398.800 347.000,398.920 346.400,399.400 346.400 C 399.932 346.400,400.000 329.867,400.000 200.000 C 400.000 70.133,399.932 53.600,399.400 53.600 C 398.920 53.600,398.800 53.000,398.800 50.600 C 398.800 47.667,398.778 47.600,397.800 47.600 C 396.817 47.600,396.800 47.547,396.800 44.400 C 396.800 41.272,396.778 41.200,395.822 41.200 C 394.939 41.200,394.832 41.015,394.722 39.300 C 394.626 37.798,394.417 37.320,393.728 37.017 C 393.108 36.745,392.761 36.109,392.526 34.817 C 392.261 33.362,392.016 32.975,391.298 32.872 C 390.621 32.776,390.400 32.479,390.400 31.667 C 390.400 30.933,390.113 30.464,389.500 30.195 C 388.888 29.926,388.536 29.352,388.400 28.400 C 388.265 27.458,387.911 26.873,387.316 26.612 C 386.830 26.399,386.380 25.859,386.316 25.412 C 386.237 24.860,385.847 24.559,385.100 24.473 C 384.179 24.367,384.000 24.156,384.000 23.173 C 384.000 22.188,383.839 22.000,383.000 22.000 C 382.200 22.000,382.000 21.800,382.000 21.000 C 382.000 20.200,381.800 20.000,381.000 20.000 C 380.200 20.000,380.000 19.800,380.000 19.000 C 380.000 18.200,379.800 18.000,379.000 18.000 C 378.200 18.000,378.000 17.800,378.000 17.000 C 378.000 16.161,377.812 16.000,376.827 16.000 C 375.844 16.000,375.633 15.821,375.527 14.900 C 375.441 14.153,375.140 13.763,374.588 13.684 C 374.141 13.620,373.601 13.170,373.388 12.684 C 373.127 12.089,372.542 11.735,371.600 11.600 C 370.648 11.464,370.074 11.112,369.805 10.500 C 369.536 9.887,369.067 9.600,368.333 9.600 C 367.521 9.600,367.224 9.379,367.128 8.702 C 367.025 7.984,366.638 7.739,365.183 7.474 C 363.891 7.239,363.255 6.892,362.983 6.272 C 362.680 5.583,362.202 5.374,360.700 5.278 C 358.985 5.168,358.800 5.061,358.800 4.178 C 358.800 3.222,358.728 3.200,355.600 3.200 C 352.453 3.200,352.400 3.183,352.400 2.200 C 352.400 1.222,352.333 1.200,349.400 1.200 C 347.000 1.200,346.400 1.080,346.400 0.600 C 346.400 0.068,329.867 0.000,200.000 0.000 C 70.133 0.000,53.600 0.068,53.600 0.600 M85.153 51.183 L 94.506 60.421 94.247 62.311 C 94.105 63.350,93.804 64.262,93.579 64.339 C 93.353 64.415,92.657 65.024,92.032 65.693 C 89.396 68.514,88.876 68.201,77.996 57.254 C 72.037 51.258,68.400 47.302,68.400 46.817 C 68.400 45.073,71.751 41.574,73.864 41.111 C 74.804 40.905,74.221 40.385,85.153 51.183 M331.508 41.900 C 332.927 42.859,335.139 44.818,336.681 46.481 C 336.945 46.767,337.395 47.216,337.681 47.481 C 337.966 47.745,338.400 48.195,338.645 48.481 C 338.890 48.766,340.769 50.620,342.820 52.600 C 351.265 60.753,351.750 61.736,348.785 64.701 C 345.018 68.468,345.394 68.652,334.300 57.591 C 322.958 46.282,323.034 46.438,327.080 42.832 C 329.756 40.447,329.452 40.511,331.508 41.900 M330.864 60.752 C 337.080 66.968,337.371 67.701,334.158 69.044 C 331.105 70.319,323.968 70.008,322.755 68.546 C 322.057 67.705,321.778 60.085,322.379 58.263 C 322.784 57.038,324.422 55.200,325.110 55.200 C 325.221 55.200,327.811 57.698,330.864 60.752 M74.330 60.100 C 79.732 65.548,79.949 65.847,79.704 67.493 C 79.155 71.176,66.856 70.565,65.888 66.807 C 65.083 63.683,65.683 58.173,66.975 56.826 C 68.836 54.884,69.412 55.140,74.330 60.100 M83.600 75.473 C 86.895 77.082,87.600 78.783,87.600 85.114 C 87.600 88.039,87.435 90.055,87.183 90.210 C 86.954 90.352,86.479 91.187,86.127 92.065 C 85.213 94.349,84.521 94.509,74.673 94.710 C 62.720 94.955,60.318 94.702,58.468 93.007 L 57.032 91.691 56.871 86.525 C 56.627 78.677,57.060 77.135,59.925 75.655 L 62.200 74.479 71.800 74.439 L 81.400 74.399 83.600 75.473 M339.912 75.619 C 342.964 77.144,343.377 78.547,343.129 86.525 L 342.968 91.691 341.532 93.007 C 339.682 94.702,337.280 94.955,325.327 94.710 C 315.479 94.509,314.787 94.349,313.873 92.065 C 313.521 91.187,313.046 90.352,312.817 90.210 C 311.929 89.662,312.306 80.472,313.300 78.413 C 315.012 74.870,316.396 74.492,327.836 74.442 L 337.472 74.400 339.912 75.619 M90.952 100.680 C 92.738 101.274,94.694 102.161,95.298 102.652 C 95.902 103.143,96.757 103.659,97.198 103.799 C 97.639 103.939,98.000 104.205,98.000 104.389 C 98.000 104.573,98.630 105.478,99.400 106.400 C 100.170 107.322,100.800 108.272,100.800 108.512 C 100.800 108.752,101.158 109.329,101.595 109.795 C 102.963 111.251,103.186 116.546,103.182 147.400 C 103.178 179.718,103.025 183.043,101.438 185.382 C 100.867 186.223,100.400 187.125,100.400 187.386 C 100.400 187.647,99.950 188.283,99.400 188.800 C 98.850 189.317,98.400 189.966,98.400 190.243 C 98.400 190.520,98.056 190.855,97.635 190.989 C 97.214 191.122,96.200 191.765,95.380 192.416 C 94.561 193.067,93.702 193.600,93.471 193.600 C 93.241 193.600,92.231 194.005,91.226 194.500 C 89.417 195.392,89.237 195.400,72.000 195.400 L 54.600 195.400 52.000 194.209 C 48.889 192.784,44.947 189.893,44.592 188.776 C 44.452 188.334,43.988 187.647,43.561 187.249 C 42.854 186.591,41.775 183.560,40.767 179.400 C 40.529 178.417,40.422 165.775,40.490 146.600 L 40.600 115.400 41.764 112.000 C 43.827 105.979,46.938 102.805,52.798 100.745 L 55.800 99.690 71.752 99.645 L 87.703 99.600 90.952 100.680 M347.000 100.709 C 353.038 102.768,356.142 105.887,358.236 112.000 L 359.400 115.400 359.510 146.600 C 359.578 165.775,359.471 178.417,359.233 179.400 C 358.225 183.560,357.146 186.591,356.439 187.249 C 356.012 187.647,355.548 188.334,355.408 188.776 C 355.053 189.893,351.111 192.784,348.000 194.209 L 345.400 195.400 328.000 195.400 C 310.763 195.400,310.583 195.392,308.774 194.500 C 307.769 194.005,306.759 193.600,306.529 193.600 C 306.298 193.600,305.439 193.067,304.620 192.416 C 303.800 191.765,302.786 191.122,302.365 190.989 C 301.944 190.855,301.600 190.520,301.600 190.243 C 301.600 189.966,301.150 189.317,300.600 188.800 C 300.050 188.283,299.600 187.647,299.600 187.386 C 299.600 187.125,299.133 186.223,298.562 185.382 C 296.975 183.043,296.822 179.718,296.818 147.400 C 296.814 116.546,297.037 111.251,298.405 109.795 C 298.842 109.329,299.200 108.752,299.200 108.512 C 299.200 108.272,299.830 107.322,300.600 106.400 C 301.370 105.478,302.000 104.573,302.000 104.389 C 302.000 104.205,302.345 103.944,302.767 103.810 C 303.189 103.677,304.037 103.169,304.652 102.684 C 305.266 102.198,307.126 101.325,308.785 100.745 L 311.800 99.690 327.800 99.653 L 343.800 99.617 347.000 100.709 M349.982 116.411 C 349.666 116.607,348.505 116.976,347.403 117.233 C 346.302 117.489,345.040 118.015,344.600 118.401 C 344.160 118.787,343.323 119.350,342.739 119.651 C 341.789 120.142,340.342 121.883,337.524 125.924 C 337.016 126.652,336.015 127.974,335.300 128.862 C 334.585 129.749,334.000 130.701,334.000 130.976 C 334.000 131.251,333.640 131.802,333.200 132.200 C 332.760 132.598,332.400 133.152,332.400 133.431 C 332.400 133.710,331.975 134.447,331.455 135.069 C 330.935 135.691,330.370 136.650,330.200 137.200 C 330.030 137.750,329.465 138.709,328.945 139.331 C 328.425 139.953,328.000 140.809,328.000 141.235 C 328.000 141.660,327.641 142.315,327.202 142.691 C 326.764 143.066,326.201 144.010,325.952 144.787 C 325.703 145.564,325.256 146.479,324.960 146.820 C 324.664 147.161,324.152 148.203,323.822 149.137 C 323.493 150.070,322.953 151.104,322.622 151.435 C 322.292 151.765,321.835 152.727,321.608 153.571 C 321.380 154.416,320.930 155.326,320.608 155.594 C 320.285 155.861,319.902 156.713,319.757 157.487 C 319.509 158.812,317.500 161.600,316.794 161.600 C 316.616 161.600,316.344 160.835,316.189 159.900 C 316.034 158.965,315.343 157.166,314.653 155.901 C 310.559 148.392,302.092 158.255,305.988 165.996 C 306.377 166.768,306.823 168.300,306.979 169.400 C 307.135 170.500,307.603 172.120,308.018 173.000 C 308.434 173.880,308.964 175.355,309.197 176.279 C 309.959 179.306,313.264 180.906,316.441 179.786 C 318.248 179.148,320.400 177.405,320.400 176.579 C 320.400 176.320,320.766 175.642,321.214 175.073 C 321.662 174.503,322.231 173.444,322.478 172.719 C 322.726 171.993,323.247 170.987,323.636 170.481 C 324.026 169.976,324.467 168.986,324.617 168.281 C 324.767 167.577,325.134 166.721,325.434 166.380 C 325.734 166.039,326.250 164.993,326.581 164.054 C 326.912 163.116,327.547 161.885,327.991 161.320 C 328.436 160.755,328.800 159.984,328.800 159.608 C 328.800 159.232,329.244 158.407,329.787 157.775 C 330.330 157.144,330.880 156.144,331.010 155.555 C 331.139 154.965,331.585 154.176,332.000 153.800 C 332.415 153.424,332.878 152.551,333.029 151.859 C 333.180 151.166,333.715 150.109,334.218 149.510 C 334.721 148.910,335.252 147.875,335.398 147.210 C 335.544 146.544,335.836 146.000,336.046 146.000 C 336.256 146.000,336.796 145.235,337.245 144.300 C 338.693 141.283,339.780 139.371,340.700 138.219 C 341.195 137.599,341.600 136.765,341.600 136.366 C 341.600 135.967,341.838 135.496,342.128 135.320 C 342.730 134.956,344.467 132.126,345.455 129.900 C 345.822 129.075,346.284 128.400,346.483 128.400 C 346.682 128.400,347.203 127.590,347.641 126.600 C 348.079 125.610,348.618 124.800,348.839 124.800 C 349.060 124.800,349.487 124.211,349.787 123.492 C 350.088 122.772,350.699 121.854,351.144 121.450 C 353.198 119.592,352.154 115.069,349.982 116.411 M241.674 120.824 C 242.183 121.057,243.500 121.770,244.600 122.408 C 245.700 123.046,247.358 123.940,248.283 124.395 C 249.209 124.850,250.084 125.413,250.227 125.644 C 250.371 125.876,251.233 126.425,252.144 126.863 C 254.988 128.233,257.067 129.378,257.751 129.953 C 258.530 130.607,260.313 131.626,262.800 132.837 C 263.790 133.319,264.702 133.871,264.827 134.063 C 265.077 134.447,267.476 135.789,270.649 137.321 C 271.776 137.866,272.821 138.511,272.972 138.755 C 273.124 139.000,273.572 139.200,273.970 139.200 C 275.591 139.200,279.200 143.466,279.200 145.383 C 279.200 146.324,277.267 150.484,276.717 150.729 C 276.557 150.800,275.745 151.321,274.913 151.887 C 274.081 152.453,272.770 153.088,272.000 153.298 C 271.230 153.508,270.307 153.940,269.949 154.257 C 269.244 154.883,266.804 156.260,264.100 157.556 C 263.165 158.005,262.400 158.529,262.400 158.722 C 262.400 158.915,261.670 159.292,260.779 159.559 C 259.887 159.826,259.066 160.285,258.953 160.578 C 258.841 160.871,257.950 161.416,256.974 161.789 C 255.998 162.161,255.200 162.612,255.200 162.790 C 255.200 162.968,254.495 163.395,253.634 163.740 C 252.773 164.084,251.955 164.549,251.817 164.772 C 251.680 164.995,250.809 165.554,249.883 166.015 C 246.329 167.783,244.852 168.625,244.078 169.328 C 241.899 171.305,235.484 170.498,234.255 168.093 C 231.840 163.368,233.789 159.817,240.661 156.418 C 241.610 155.949,242.677 154.996,243.148 154.198 C 243.602 153.429,244.189 152.800,244.453 152.800 C 244.717 152.800,244.798 152.665,244.633 152.500 C 244.468 152.335,218.653 152.110,187.267 152.000 C 122.407 151.773,128.172 152.120,126.314 148.326 C 125.628 146.925,125.327 145.800,125.481 145.213 C 125.953 143.406,127.022 141.685,128.376 140.552 L 129.753 139.400 186.857 139.200 C 247.278 138.988,246.411 139.018,244.118 137.272 C 242.622 136.133,239.846 134.510,238.900 134.221 C 238.405 134.070,238.000 133.795,238.000 133.611 C 238.000 133.427,237.196 132.805,236.213 132.229 C 232.922 130.300,232.211 123.569,235.158 122.254 C 235.621 122.047,236.000 121.719,236.000 121.526 C 236.000 120.554,240.003 120.059,241.674 120.824 M60.495 131.100 C 59.312 132.101,58.275 133.062,57.719 133.672 C 57.455 133.962,57.005 134.416,56.719 134.681 C 56.434 134.945,55.984 135.395,55.719 135.681 C 55.455 135.966,55.005 136.416,54.719 136.681 C 54.434 136.945,53.977 137.395,53.705 137.681 C 53.433 137.966,52.848 138.546,52.405 138.970 C 51.104 140.214,51.637 143.304,53.240 143.813 C 53.636 143.938,54.067 144.383,54.200 144.800 C 54.333 145.217,54.783 145.667,55.200 145.800 C 55.617 145.933,56.067 146.383,56.200 146.800 C 56.333 147.217,56.783 147.667,57.200 147.800 C 57.617 147.933,58.070 148.392,58.207 148.821 C 58.343 149.250,58.802 149.787,59.227 150.014 C 60.276 150.576,59.593 151.664,55.829 155.431 C 54.273 156.988,52.537 158.878,51.971 159.631 L 50.941 161.000 51.771 162.210 C 53.179 164.264,59.863 170.768,61.016 171.206 C 62.426 171.742,62.939 171.401,67.273 167.047 C 70.328 163.979,72.800 162.239,72.800 163.157 C 72.800 163.441,73.942 164.646,76.899 167.481 C 77.174 167.745,77.616 168.195,77.881 168.481 C 78.145 168.766,78.595 169.216,78.881 169.481 C 79.166 169.745,79.632 170.240,79.916 170.581 C 81.397 172.359,83.075 171.487,88.077 166.338 C 90.675 163.663,92.800 161.349,92.800 161.196 C 92.800 160.843,91.537 159.430,87.617 155.400 C 83.227 150.885,83.217 151.206,87.879 146.384 C 91.563 142.574,92.303 141.615,92.372 140.572 C 92.387 140.336,90.375 138.043,87.900 135.475 C 81.782 129.127,82.127 129.154,76.716 134.605 C 71.600 139.758,72.087 139.771,66.650 134.343 C 62.567 130.268,61.896 129.914,60.495 131.100 M156.691 193.704 C 158.033 194.410,159.018 195.269,159.443 196.102 C 159.806 196.816,160.356 197.670,160.663 198.000 C 161.562 198.965,163.119 201.302,163.727 202.600 C 164.037 203.260,164.674 204.143,165.145 204.562 C 165.615 204.981,166.000 205.544,166.000 205.813 C 166.000 206.082,166.283 206.537,166.629 206.824 C 166.975 207.111,167.608 207.989,168.036 208.773 C 168.464 209.558,169.437 211.010,170.198 212.000 C 170.960 212.990,171.832 214.340,172.136 215.000 C 172.440 215.660,173.074 216.543,173.545 216.962 C 174.015 217.381,174.400 217.944,174.400 218.213 C 174.400 218.482,174.683 218.937,175.029 219.224 C 175.375 219.511,176.008 220.389,176.436 221.173 C 176.864 221.958,177.837 223.410,178.598 224.400 C 179.360 225.390,180.258 226.740,180.594 227.400 C 181.162 228.513,182.339 230.265,183.819 232.200 C 185.278 234.108,186.436 235.891,187.002 237.100 C 187.337 237.815,187.786 238.400,188.000 238.400 C 188.214 238.400,188.663 238.985,188.998 239.700 C 189.560 240.900,190.675 242.620,192.176 244.600 C 193.641 246.533,195.600 249.615,195.600 249.987 C 195.600 250.210,195.960 250.618,196.400 250.893 C 196.840 251.168,197.200 251.594,197.200 251.841 C 197.200 252.088,197.748 252.980,198.418 253.822 C 200.746 256.752,200.357 256.984,192.914 257.110 C 185.644 257.233,185.257 257.104,183.554 254.000 C 183.131 253.230,181.988 251.520,181.013 250.200 C 180.038 248.880,179.231 247.606,179.220 247.370 C 179.209 247.133,178.750 246.517,178.200 246.000 C 177.650 245.483,177.200 244.881,177.200 244.662 C 177.200 244.442,176.891 243.922,176.513 243.504 C 176.136 243.087,175.461 242.147,175.013 241.414 C 173.299 238.607,170.829 234.949,169.836 233.745 C 169.266 233.055,168.800 232.312,168.800 232.094 C 168.800 231.876,168.517 231.463,168.171 231.176 C 167.825 230.889,167.192 230.011,166.764 229.227 C 166.336 228.442,165.363 226.990,164.602 226.000 C 163.840 225.010,162.968 223.660,162.664 223.000 C 162.360 222.340,161.726 221.457,161.255 221.038 C 160.785 220.619,160.400 220.093,160.400 219.870 C 160.400 218.736,159.095 217.971,158.335 218.659 C 157.638 219.290,157.600 220.518,157.600 242.629 C 157.600 267.214,157.601 267.190,156.257 267.218 C 155.786 267.227,154.680 267.512,153.800 267.850 C 152.920 268.189,151.212 268.715,150.005 269.019 C 148.798 269.323,147.608 269.848,147.361 270.186 C 146.705 271.082,145.730 270.936,145.452 269.900 C 145.130 268.696,145.139 197.823,145.462 195.868 C 145.653 194.711,145.970 194.236,146.757 193.927 C 147.720 193.549,153.945 192.428,154.400 192.551 C 154.510 192.580,155.541 193.099,156.691 193.704 M83.988 200.912 C 84.531 201.187,85.383 202.039,85.881 202.806 C 86.379 203.573,86.969 204.417,87.193 204.683 C 87.855 205.469,87.719 215.403,87.039 215.967 C 86.731 216.223,86.376 216.840,86.251 217.337 C 86.127 217.835,85.283 218.727,84.376 219.321 L 82.728 220.400 71.982 220.400 C 61.264 220.400,61.232 220.397,59.805 219.429 C 59.018 218.895,58.183 218.394,57.949 218.316 C 56.933 217.978,56.366 207.753,57.170 204.289 C 57.498 202.877,58.827 201.399,60.373 200.728 C 61.580 200.205,82.919 200.371,83.988 200.912 M341.089 201.600 C 343.007 203.127,343.741 208.222,343.017 214.983 C 342.718 217.773,342.679 217.835,340.282 219.406 L 338.764 220.400 328.018 220.400 L 317.272 220.400 315.624 219.321 C 314.717 218.727,313.873 217.835,313.749 217.337 C 313.624 216.840,313.269 216.223,312.961 215.967 C 312.281 215.403,312.145 205.469,312.807 204.683 C 313.031 204.417,313.621 203.573,314.119 202.806 C 315.675 200.408,315.836 200.383,328.417 200.497 L 339.833 200.600 341.089 201.600 M76.578 225.847 C 78.420 226.554,78.457 239.181,76.617 239.205 C 76.388 239.208,75.805 239.317,75.323 239.446 C 74.453 239.679,63.600 229.490,63.600 228.440 C 63.600 225.926,72.270 224.194,76.578 225.847 M332.384 225.992 C 334.895 227.335,335.318 236.069,332.985 238.400 C 331.596 239.788,329.432 239.762,328.985 238.352 C 328.854 237.939,328.597 237.600,328.414 237.600 C 327.982 237.600,322.400 232.018,322.400 231.586 C 322.400 231.403,322.080 231.152,321.688 231.028 C 320.278 230.581,319.721 226.874,320.948 226.104 C 322.387 225.201,330.753 225.119,332.384 225.992 M65.649 237.551 C 76.922 248.823,76.877 248.736,73.181 252.140 C 69.850 255.209,70.130 255.355,60.086 245.328 C 47.625 232.888,48.134 233.759,51.300 230.305 C 54.795 226.490,54.379 226.280,65.649 237.551 M312.986 228.804 C 322.999 238.689,330.000 245.713,330.000 245.872 C 330.000 245.983,330.360 246.531,330.800 247.091 C 331.983 248.595,331.000 251.557,329.100 252.212 C 328.714 252.345,328.213 252.802,327.986 253.227 C 326.753 255.530,325.506 254.668,315.219 244.394 C 303.957 233.147,304.089 233.396,307.543 229.943 C 309.755 227.731,311.524 227.361,312.986 228.804 M253.424 232.968 C 254.298 233.607,254.872 313.850,254.012 315.200 C 253.688 315.709,251.679 315.818,240.818 315.921 L 228.006 316.042 227.303 317.051 C 226.916 317.605,225.572 319.126,224.315 320.430 L 222.030 322.800 199.889 322.800 L 177.749 322.800 175.671 320.500 C 174.528 319.235,173.221 317.705,172.767 317.100 L 171.942 316.000 159.233 316.000 C 147.555 316.000,146.472 315.942,145.880 315.288 C 145.308 314.656,145.229 312.464,145.181 295.918 C 145.118 274.520,145.088 274.759,147.905 273.971 C 148.877 273.698,149.762 273.242,149.872 272.957 C 150.139 272.260,152.598 271.933,159.732 271.643 L 165.707 271.400 166.836 269.400 C 168.294 266.817,168.800 265.681,168.800 264.988 C 168.800 264.680,169.359 263.792,170.041 263.014 L 171.283 261.600 190.341 261.582 C 204.781 261.569,209.885 261.437,211.400 261.038 L 213.400 260.511 213.613 274.355 C 213.730 281.970,213.865 288.223,213.913 288.251 C 216.240 289.628,251.635 289.589,252.644 288.208 C 253.457 287.096,253.299 236.739,252.480 235.920 C 252.073 235.512,248.068 235.376,233.928 235.288 C 213.939 235.164,214.000 235.157,214.000 237.609 C 214.000 239.205,213.297 239.129,212.997 237.500 C 212.626 235.491,212.654 234.692,213.136 233.500 L 213.580 232.400 233.114 232.400 C 249.351 232.400,252.778 232.496,253.424 232.968 M214.744 290.764 C 212.779 292.355,213.208 312.534,215.230 313.616 C 216.788 314.450,250.992 314.097,252.056 313.236 C 253.643 311.952,253.724 292.181,252.148 290.605 C 251.104 289.561,216.046 289.711,214.744 290.764 M229.505 328.400 L 230.777 329.800 230.788 341.274 C 230.801 353.573,230.683 354.426,228.837 355.381 C 227.051 356.304,172.576 356.318,170.792 355.396 C 168.855 354.394,168.800 354.011,168.800 341.515 L 168.800 329.778 170.100 328.590 C 170.815 327.936,171.670 327.276,172.000 327.123 C 172.330 326.970,185.117 326.880,200.416 326.923 L 228.233 327.000 229.505 328.400 M151.015 328.812 C 151.931 329.573,151.889 370.854,150.971 371.771 C 150.034 372.709,142.332 372.682,141.549 371.739 C 140.753 370.779,140.734 330.044,141.529 329.085 C 142.462 327.961,149.737 327.752,151.015 328.812 M165.609 329.008 C 166.705 330.000,166.697 371.316,165.600 372.009 C 164.489 372.711,156.974 372.492,156.349 371.739 C 155.570 370.800,155.336 331.106,156.101 329.617 C 157.013 327.843,163.838 327.405,165.609 329.008 M243.521 328.949 C 244.452 329.881,244.576 370.624,243.651 371.739 C 243.026 372.492,235.511 372.711,234.400 372.009 C 233.442 371.404,233.277 330.220,234.228 329.169 C 235.453 327.816,242.227 327.656,243.521 328.949 M258.351 328.980 C 259.255 329.884,259.350 370.655,258.451 371.739 C 257.668 372.682,249.966 372.709,249.029 371.771 C 248.185 370.928,248.061 329.577,248.900 328.887 C 250.206 327.815,257.256 327.884,258.351 328.980 " stroke="none" fill="#008000" fill-rule="evenodd"></path></g></svg>
