<svg id="svg" version="1.1" xmlns="http://www.w3.org/2000/svg" xmlns:xlink="http://www.w3.org/1999/xlink" width="400" height="400" viewBox="0, 0, 400,400"><g id="svgg"><path id="path0" d="M71.927 41.770 C 71.337 42.290,70.707 42.779,70.527 42.858 C 69.896 43.132,68.473 45.477,68.346 46.452 C 68.184 47.682,67.672 47.097,78.397 57.921 L 87.394 67.000 89.211 67.000 C 92.096 67.000,95.015 63.706,94.503 61.029 C 94.326 60.098,80.071 45.381,75.500 41.408 C 74.502 40.541,73.169 40.676,71.927 41.770 M326.636 42.915 C 322.879 46.468,322.662 46.044,334.109 57.491 C 345.535 68.916,345.106 68.695,348.677 65.008 C 352.097 61.478,352.326 61.908,341.000 50.587 C 329.849 39.440,330.144 39.598,326.636 42.915 M66.995 56.578 L 65.600 57.973 65.605 62.287 C 65.608 64.659,65.716 66.990,65.844 67.467 C 66.648 70.467,78.531 71.011,79.638 68.099 C 80.359 66.205,79.994 65.575,75.500 60.951 C 73.025 58.404,70.910 56.186,70.800 56.022 C 70.095 54.970,68.348 55.225,66.995 56.578 M323.415 56.149 C 320.659 58.905,321.076 68.382,324.000 69.435 C 327.184 70.582,334.044 69.956,335.626 68.374 C 337.048 66.952,336.593 66.186,331.004 60.596 C 325.287 54.880,324.907 54.657,323.415 56.149 M59.697 75.542 C 55.533 77.636,55.052 91.248,59.048 93.869 C 60.417 94.767,79.842 95.210,83.400 94.424 C 89.530 93.071,89.947 78.425,83.942 75.408 C 80.774 73.817,62.930 73.915,59.697 75.542 M315.926 75.437 C 311.819 77.572,310.426 86.053,313.289 91.491 C 315.043 94.824,315.444 94.905,329.219 94.733 C 343.387 94.556,343.373 94.565,343.390 85.000 C 343.402 77.902,343.059 76.911,340.104 75.499 L 337.800 74.399 327.800 74.431 C 318.015 74.463,317.760 74.484,315.926 75.437 M56.400 99.462 C 49.176 100.744,43.948 105.014,41.692 111.473 L 40.600 114.600 40.600 147.600 L 40.600 180.600 41.742 183.800 C 42.370 185.560,43.059 187.109,43.273 187.242 C 43.486 187.376,44.052 188.122,44.530 188.900 C 45.593 190.630,48.355 192.769,51.469 194.273 L 53.800 195.400 72.000 195.400 L 90.200 195.400 92.200 194.406 C 96.890 192.075,99.271 190.028,100.812 187.000 C 101.259 186.120,101.935 184.860,102.313 184.200 C 103.361 182.369,103.372 112.862,102.325 111.000 C 101.953 110.340,101.266 109.052,100.799 108.139 C 100.331 107.225,99.600 106.162,99.174 105.777 C 98.748 105.391,98.400 104.867,98.400 104.612 C 98.400 104.357,97.782 103.854,97.027 103.494 C 96.272 103.134,95.311 102.545,94.892 102.186 C 94.472 101.826,92.885 101.070,91.364 100.506 L 88.600 99.480 73.000 99.382 C 64.420 99.328,56.950 99.364,56.400 99.462 M312.400 99.480 C 310.354 99.882,305.845 101.555,305.108 102.186 C 304.688 102.545,303.728 103.134,302.973 103.494 C 302.218 103.854,301.600 104.357,301.600 104.612 C 301.600 104.867,301.252 105.391,300.826 105.777 C 300.400 106.162,299.669 107.225,299.201 108.139 C 298.734 109.052,298.047 110.340,297.675 111.000 C 296.628 112.862,296.639 182.369,297.687 184.200 C 298.065 184.860,298.741 186.120,299.188 187.000 C 300.729 190.028,303.110 192.075,307.800 194.406 L 309.800 195.400 328.000 195.400 L 346.200 195.400 348.531 194.273 C 351.645 192.769,354.407 190.630,355.470 188.900 C 355.948 188.122,356.514 187.376,356.727 187.242 C 356.941 187.109,357.630 185.560,358.258 183.800 L 359.400 180.600 359.400 147.600 L 359.400 114.600 358.308 111.473 C 356.387 105.973,353.324 102.866,347.606 100.618 L 344.600 99.437 329.000 99.360 C 320.420 99.318,312.950 99.372,312.400 99.480 M350.998 116.655 C 352.717 117.314,352.412 119.933,350.357 122.138 C 349.941 122.585,349.600 123.116,349.600 123.318 C 349.600 123.519,349.195 124.183,348.700 124.792 C 348.205 125.401,347.440 126.502,347.000 127.239 C 346.560 127.975,345.801 129.213,345.312 129.989 C 344.824 130.765,344.061 132.141,343.617 133.047 C 343.173 133.953,342.537 134.920,342.205 135.196 C 341.872 135.472,341.600 135.919,341.600 136.189 C 341.600 136.459,341.101 137.382,340.492 138.240 C 339.883 139.098,339.151 140.250,338.865 140.800 C 338.580 141.350,337.821 142.700,337.179 143.800 C 336.538 144.900,335.638 146.606,335.181 147.592 C 334.724 148.578,334.206 149.478,334.032 149.592 C 333.857 149.706,333.316 150.610,332.831 151.600 C 331.223 154.878,329.806 157.505,329.349 158.056 C 329.101 158.355,328.765 159.050,328.602 159.600 C 328.439 160.150,328.061 160.879,327.763 161.220 C 327.465 161.561,326.942 162.632,326.600 163.600 C 326.258 164.568,325.736 165.639,325.440 165.980 C 325.144 166.321,324.672 167.320,324.392 168.200 C 324.113 169.080,323.550 170.229,323.142 170.754 C 322.734 171.279,322.400 172.009,322.400 172.376 C 322.400 172.744,321.950 173.655,321.400 174.400 C 320.850 175.145,320.400 175.970,320.400 176.231 C 320.400 177.196,317.314 179.510,315.655 179.791 C 312.670 180.295,309.215 178.198,309.191 175.869 C 309.186 175.391,308.815 174.190,308.365 173.200 C 307.916 172.210,307.291 170.178,306.976 168.684 C 306.662 167.191,306.133 165.445,305.802 164.804 C 303.479 160.311,307.161 153.346,311.685 153.677 C 313.521 153.812,315.971 157.472,315.991 160.113 C 316.012 162.716,318.835 161.256,319.642 158.226 C 319.880 157.332,320.323 156.321,320.627 155.980 C 320.930 155.639,321.458 154.568,321.800 153.600 C 322.142 152.632,322.664 151.561,322.960 151.220 C 323.256 150.879,323.711 149.939,323.970 149.132 C 324.229 148.325,324.693 147.455,325.000 147.200 C 325.307 146.945,325.770 146.075,326.029 145.268 C 326.287 144.461,326.816 143.440,327.203 143.000 C 327.591 142.560,328.037 141.776,328.194 141.259 C 328.351 140.741,328.912 139.681,329.440 138.903 C 329.968 138.125,330.400 137.321,330.400 137.117 C 330.400 136.914,330.850 136.157,331.400 135.436 C 331.950 134.714,332.400 133.943,332.400 133.721 C 332.400 133.499,332.850 132.831,333.400 132.238 C 333.950 131.644,334.400 130.987,334.400 130.778 C 334.400 130.568,335.345 129.150,336.500 127.626 C 337.655 126.102,339.320 123.837,340.200 122.593 C 341.080 121.348,342.442 119.999,343.227 119.594 C 344.011 119.190,344.889 118.575,345.176 118.229 C 345.463 117.883,346.081 117.590,346.549 117.577 C 347.200 117.560,349.822 116.763,350.267 116.448 C 350.304 116.421,350.633 116.515,350.998 116.655 M235.482 121.702 C 232.776 124.109,232.345 127.567,234.319 131.032 C 234.632 131.581,238.705 134.400,239.186 134.400 C 239.354 134.400,239.925 134.741,240.454 135.157 C 240.984 135.573,242.031 136.257,242.781 136.676 C 246.946 139.003,247.358 138.985,186.132 139.200 L 129.264 139.400 128.184 140.400 C 125.108 143.248,124.553 145.731,126.299 148.837 C 128.347 152.481,123.150 152.185,187.299 152.307 L 243.598 152.414 243.137 153.307 C 242.883 153.798,242.551 154.467,242.398 154.793 C 242.160 155.305,240.594 156.297,237.400 157.961 C 233.724 159.877,232.185 163.787,233.732 167.284 C 235.630 171.576,240.013 171.822,246.600 168.006 C 247.700 167.369,249.230 166.529,250.000 166.139 C 250.770 165.750,251.703 165.183,252.072 164.879 C 252.836 164.251,254.639 163.217,257.047 162.025 C 257.953 161.576,258.905 160.955,259.164 160.644 C 259.422 160.333,260.108 159.959,260.690 159.813 C 261.271 159.667,262.267 159.110,262.904 158.574 C 263.540 158.038,264.249 157.600,264.479 157.600 C 264.861 157.600,266.211 156.821,269.743 154.562 C 270.464 154.101,271.578 153.592,272.218 153.431 C 275.853 152.519,279.231 148.574,279.173 145.307 C 279.115 141.971,276.739 140.012,266.917 135.202 C 265.991 134.748,265.128 134.207,265.000 134.000 C 264.872 133.793,264.009 133.253,263.083 132.800 C 261.156 131.859,259.067 130.662,256.200 128.856 C 255.100 128.164,253.442 127.233,252.517 126.787 C 251.591 126.342,250.728 125.807,250.600 125.600 C 250.472 125.393,249.609 124.850,248.683 124.395 C 247.758 123.940,246.100 123.046,245.000 122.408 C 240.498 119.798,237.844 119.601,235.482 121.702 M66.572 134.600 C 71.934 139.995,71.663 139.989,76.819 134.800 C 82.010 129.577,81.668 129.562,87.461 135.278 C 93.296 141.035,93.299 140.744,87.359 146.714 C 82.866 151.228,82.818 150.815,88.496 156.531 C 93.274 161.341,93.319 160.621,87.900 166.191 C 81.767 172.494,82.099 172.470,76.629 167.020 C 71.539 161.948,72.184 161.932,66.835 167.262 C 63.009 171.075,62.715 171.283,61.493 171.039 C 60.138 170.769,54.632 165.710,52.364 162.651 L 51.216 161.102 52.102 159.851 C 52.589 159.163,54.341 157.265,55.994 155.633 C 60.968 150.723,60.959 151.328,56.124 146.534 C 50.609 141.065,50.604 140.962,55.692 135.885 C 62.329 129.261,61.377 129.374,66.572 134.600 M60.868 200.380 C 55.618 201.688,54.319 215.925,59.141 219.299 L 61.000 220.600 72.000 220.600 L 83.000 220.600 84.479 219.468 C 89.334 215.754,89.193 203.518,84.262 200.694 C 83.245 200.111,63.034 199.841,60.868 200.380 M317.023 200.396 C 310.996 201.556,309.923 215.186,315.521 219.468 L 317.000 220.600 328.000 220.600 L 339.000 220.600 340.859 219.299 C 345.800 215.842,344.362 201.635,338.945 200.377 C 337.096 199.948,319.269 199.963,317.023 200.396 M155.200 219.580 C 149.780 220.444,145.841 222.892,142.532 227.453 C 140.872 229.741,140.800 232.237,140.800 287.600 C 140.800 342.016,140.899 345.751,142.383 347.400 C 142.779 347.840,143.350 348.668,143.651 349.239 C 144.400 350.657,146.527 352.438,149.400 354.052 L 151.800 355.400 199.832 355.400 L 247.863 355.400 250.232 354.224 C 252.919 352.890,255.538 350.751,256.349 349.230 C 256.650 348.663,257.221 347.840,257.617 347.400 C 259.101 345.751,259.200 342.016,259.200 287.600 C 259.200 232.237,259.128 229.741,257.468 227.453 C 255.100 224.190,251.952 221.657,248.860 220.529 L 245.800 219.412 201.400 219.353 C 176.980 219.320,156.190 219.423,155.200 219.580 M65.604 225.879 C 62.521 227.472,62.795 228.182,68.813 234.213 C 74.411 239.822,75.486 240.457,76.937 239.006 C 78.781 237.162,78.742 227.446,76.884 225.904 C 75.824 225.024,67.296 225.005,65.604 225.879 M321.829 225.527 C 320.532 225.829,319.811 227.449,320.215 229.151 C 320.579 230.683,329.821 239.600,331.045 239.600 C 334.784 239.600,336.141 228.239,332.672 225.993 C 331.718 225.375,323.918 225.040,321.829 225.527 M53.782 227.982 C 50.750 229.211,48.321 233.570,49.778 235.166 C 54.260 240.077,68.642 253.974,69.452 254.177 C 71.514 254.695,75.600 250.898,75.600 248.466 C 75.600 247.355,74.448 246.057,65.784 237.404 C 56.208 227.840,55.501 227.286,53.782 227.982 M240.264 228.686 C 244.916 230.015,247.749 232.805,249.407 237.691 L 250.394 240.600 250.397 273.844 L 250.400 307.089 249.424 310.163 C 248.888 311.853,248.033 313.693,247.524 314.252 C 245.171 316.836,243.714 317.878,241.061 318.877 L 238.200 319.953 200.000 319.953 L 161.800 319.953 158.939 318.877 C 156.286 317.878,154.829 316.836,152.476 314.252 C 151.967 313.693,151.112 311.853,150.576 310.163 L 149.600 307.089 149.603 273.844 L 149.606 240.600 150.594 237.687 C 152.651 231.627,156.457 228.850,164.028 227.887 C 169.465 227.195,237.543 227.908,240.264 228.686 M309.573 227.986 C 303.146 231.800,303.557 232.985,315.412 244.804 C 326.678 256.036,325.998 255.703,329.741 251.809 C 332.982 248.435,333.180 248.800,322.048 237.607 C 312.486 227.993,311.215 227.012,309.573 227.986 M168.478 327.720 C 173.491 331.831,173.676 341.873,168.813 345.907 C 166.456 347.862,161.713 348.532,156.809 347.602 C 147.916 345.915,147.018 330.307,155.584 326.313 C 155.923 326.155,158.545 326.065,161.412 326.113 L 166.624 326.200 168.478 327.720 M246.356 327.600 C 253.100 332.982,251.022 346.117,243.191 347.602 C 238.287 348.532,233.544 347.862,231.187 345.907 C 226.427 341.959,226.510 331.815,231.335 327.882 C 233.632 326.009,233.570 326.022,239.401 326.116 L 244.601 326.200 246.356 327.600 M158.365 359.473 C 156.745 363.668,158.716 371.490,161.600 372.309 C 163.384 372.815,173.298 372.643,174.625 372.083 C 176.698 371.207,178.193 367.455,178.197 363.120 C 178.201 358.335,178.835 358.623,167.981 358.473 L 158.801 358.346 158.365 359.473 M223.222 358.753 C 220.153 359.609,221.933 370.629,225.375 372.083 C 226.702 372.643,236.616 372.815,238.400 372.309 C 241.267 371.494,243.451 362.659,241.627 359.251 C 241.160 358.377,226.035 357.967,223.222 358.753 " stroke="none" fill="#ffffff" fill-rule="evenodd"></path><path id="path1" d="M53.600 0.600 C 53.600 1.080,53.000 1.200,50.600 1.200 C 47.667 1.200,47.600 1.222,47.600 2.200 C 47.600 3.183,47.547 3.200,44.400 3.200 C 41.272 3.200,41.200 3.222,41.200 4.178 C 41.200 5.061,41.015 5.168,39.300 5.278 C 37.798 5.374,37.320 5.583,37.017 6.272 C 36.745 6.892,36.109 7.239,34.817 7.474 C 33.362 7.739,32.975 7.984,32.872 8.702 C 32.776 9.379,32.479 9.600,31.667 9.600 C 30.933 9.600,30.464 9.887,30.195 10.500 C 29.926 11.112,29.352 11.464,28.400 11.600 C 27.458 11.735,26.873 12.089,26.612 12.684 C 26.399 13.170,25.859 13.620,25.412 13.684 C 24.860 13.763,24.559 14.153,24.473 14.900 C 24.367 15.821,24.156 16.000,23.173 16.000 C 22.188 16.000,22.000 16.161,22.000 17.000 C 22.000 17.800,21.800 18.000,21.000 18.000 C 20.200 18.000,20.000 18.200,20.000 19.000 C 20.000 19.800,19.800 20.000,19.000 20.000 C 18.200 20.000,18.000 20.200,18.000 21.000 C 18.000 21.800,17.800 22.000,17.000 22.000 C 16.161 22.000,16.000 22.188,16.000 23.173 C 16.000 24.156,15.821 24.367,14.900 24.473 C 14.153 24.559,13.763 24.860,13.684 25.412 C 13.620 25.859,13.170 26.399,12.684 26.612 C 12.089 26.873,11.735 27.458,11.600 28.400 C 11.464 29.352,11.112 29.926,10.500 30.195 C 9.887 30.464,9.600 30.933,9.600 31.667 C 9.600 32.479,9.379 32.776,8.702 32.872 C 7.984 32.975,7.739 33.362,7.474 34.817 C 7.239 36.109,6.892 36.745,6.272 37.017 C 5.583 37.320,5.374 37.798,5.278 39.300 C 5.168 41.015,5.061 41.200,4.178 41.200 C 3.222 41.200,3.200 41.272,3.200 44.400 C 3.200 47.547,3.183 47.600,2.200 47.600 C 1.222 47.600,1.200 47.667,1.200 50.600 C 1.200 53.000,1.080 53.600,0.600 53.600 C 0.068 53.600,0.000 70.133,0.000 200.000 C 0.000 329.867,0.068 346.400,0.600 346.400 C 1.080 346.400,1.200 347.000,1.200 349.400 C 1.200 352.333,1.222 352.400,2.200 352.400 C 3.183 352.400,3.200 352.453,3.200 355.600 C 3.200 358.728,3.222 358.800,4.178 358.800 C 5.061 358.800,5.168 358.985,5.278 360.700 C 5.374 362.202,5.583 362.680,6.272 362.983 C 6.892 363.255,7.239 363.891,7.474 365.183 C 7.739 366.638,7.984 367.025,8.702 367.128 C 9.379 367.224,9.600 367.521,9.600 368.333 C 9.600 369.067,9.887 369.536,10.500 369.805 C 11.112 370.074,11.464 370.648,11.600 371.600 C 11.735 372.542,12.089 373.127,12.684 373.388 C 13.170 373.601,13.620 374.141,13.684 374.588 C 13.763 375.140,14.153 375.441,14.900 375.527 C 15.821 375.633,16.000 375.844,16.000 376.827 C 16.000 377.812,16.161 378.000,17.000 378.000 C 17.800 378.000,18.000 378.200,18.000 379.000 C 18.000 379.800,18.200 380.000,19.000 380.000 C 19.800 380.000,20.000 380.200,20.000 381.000 C 20.000 381.800,20.200 382.000,21.000 382.000 C 21.800 382.000,22.000 382.200,22.000 383.000 C 22.000 383.839,22.188 384.000,23.173 384.000 C 24.156 384.000,24.367 384.179,24.473 385.100 C 24.559 385.847,24.860 386.237,25.412 386.316 C 25.859 386.380,26.399 386.830,26.612 387.316 C 26.873 387.911,27.458 388.265,28.400 388.400 C 29.352 388.536,29.926 388.888,30.195 389.500 C 30.464 390.113,30.933 390.400,31.667 390.400 C 32.479 390.400,32.776 390.621,32.872 391.298 C 32.975 392.016,33.362 392.261,34.817 392.526 C 36.109 392.761,36.745 393.108,37.017 393.728 C 37.320 394.417,37.798 394.626,39.300 394.722 C 41.015 394.832,41.200 394.939,41.200 395.822 C 41.200 396.778,41.272 396.800,44.400 396.800 C 47.547 396.800,47.600 396.817,47.600 397.800 C 47.600 398.778,47.667 398.800,50.600 398.800 C 53.000 398.800,53.600 398.920,53.600 399.400 C 53.600 399.932,70.133 400.000,200.000 400.000 C 329.867 400.000,346.400 399.932,346.400 399.400 C 346.400 398.920,347.000 398.800,349.400 398.800 C 352.333 398.800,352.400 398.778,352.400 397.800 C 352.400 396.817,352.453 396.800,355.600 396.800 C 358.728 396.800,358.800 396.778,358.800 395.822 C 358.800 394.939,358.985 394.832,360.700 394.722 C 362.202 394.626,362.680 394.417,362.983 393.728 C 363.255 393.108,363.891 392.761,365.183 392.526 C 366.638 392.261,367.025 392.016,367.128 391.298 C 367.224 390.621,367.521 390.400,368.333 390.400 C 369.067 390.400,369.536 390.113,369.805 389.500 C 370.074 388.888,370.648 388.536,371.600 388.400 C 372.542 388.265,373.127 387.911,373.388 387.316 C 373.601 386.830,374.141 386.380,374.588 386.316 C 375.140 386.237,375.441 385.847,375.527 385.100 C 375.633 384.179,375.844 384.000,376.827 384.000 C 377.812 384.000,378.000 383.839,378.000 383.000 C 378.000 382.200,378.200 382.000,379.000 382.000 C 379.800 382.000,380.000 381.800,380.000 381.000 C 380.000 380.200,380.200 380.000,381.000 380.000 C 381.800 380.000,382.000 379.800,382.000 379.000 C 382.000 378.200,382.200 378.000,383.000 378.000 C 383.839 378.000,384.000 377.812,384.000 376.827 C 384.000 375.844,384.179 375.633,385.100 375.527 C 385.847 375.441,386.237 375.140,386.316 374.588 C 386.380 374.141,386.830 373.601,387.316 373.388 C 387.911 373.127,388.265 372.542,388.400 371.600 C 388.536 370.648,388.888 370.074,389.500 369.805 C 390.113 369.536,390.400 369.067,390.400 368.333 C 390.400 367.521,390.621 367.224,391.298 367.128 C 392.016 367.025,392.261 366.638,392.526 365.183 C 392.761 363.891,393.108 363.255,393.728 362.983 C 394.417 362.680,394.626 362.202,394.722 360.700 C 394.832 358.985,394.939 358.800,395.822 358.800 C 396.778 358.800,396.800 358.728,396.800 355.600 C 396.800 352.453,396.817 352.400,397.800 352.400 C 398.778 352.400,398.800 352.333,398.800 349.400 C 398.800 347.000,398.920 346.400,399.400 346.400 C 399.932 346.400,400.000 329.867,400.000 200.000 C 400.000 70.133,399.932 53.600,399.400 53.600 C 398.920 53.600,398.800 53.000,398.800 50.600 C 398.800 47.667,398.778 47.600,397.800 47.600 C 396.817 47.600,396.800 47.547,396.800 44.400 C 396.800 41.272,396.778 41.200,395.822 41.200 C 394.939 41.200,394.832 41.015,394.722 39.300 C 394.626 37.798,394.417 37.320,393.728 37.017 C 393.108 36.745,392.761 36.109,392.526 34.817 C 392.261 33.362,392.016 32.975,391.298 32.872 C 390.621 32.776,390.400 32.479,390.400 31.667 C 390.400 30.933,390.113 30.464,389.500 30.195 C 388.888 29.926,388.536 29.352,388.400 28.400 C 388.265 27.458,387.911 26.873,387.316 26.612 C 386.830 26.399,386.380 25.859,386.316 25.412 C 386.237 24.860,385.847 24.559,385.100 24.473 C 384.179 24.367,384.000 24.156,384.000 23.173 C 384.000 22.188,383.839 22.000,383.000 22.000 C 382.200 22.000,382.000 21.800,382.000 21.000 C 382.000 20.200,381.800 20.000,381.000 20.000 C 380.200 20.000,380.000 19.800,380.000 19.000 C 380.000 18.200,379.800 18.000,379.000 18.000 C 378.200 18.000,378.000 17.800,378.000 17.000 C 378.000 16.161,377.812 16.000,376.827 16.000 C 375.844 16.000,375.633 15.821,375.527 14.900 C 375.441 14.153,375.140 13.763,374.588 13.684 C 374.141 13.620,373.601 13.170,373.388 12.684 C 373.127 12.089,372.542 11.735,371.600 11.600 C 370.648 11.464,370.074 11.112,369.805 10.500 C 369.536 9.887,369.067 9.600,368.333 9.600 C 367.521 9.600,367.224 9.379,367.128 8.702 C 367.025 7.984,366.638 7.739,365.183 7.474 C 363.891 7.239,363.255 6.892,362.983 6.272 C 362.680 5.583,362.202 5.374,360.700 5.278 C 358.985 5.168,358.800 5.061,358.800 4.178 C 358.800 3.222,358.728 3.200,355.600 3.200 C 352.453 3.200,352.400 3.183,352.400 2.200 C 352.400 1.222,352.333 1.200,349.400 1.200 C 347.000 1.200,346.400 1.080,346.400 0.600 C 346.400 0.068,329.867 0.000,200.000 0.000 C 70.133 0.000,53.600 0.068,53.600 0.600 M75.500 41.408 C 80.071 45.381,94.326 60.098,94.503 61.029 C 95.015 63.706,92.096 67.000,89.211 67.000 L 87.394 67.000 78.397 57.921 C 67.672 47.097,68.184 47.682,68.346 46.452 C 68.473 45.477,69.896 43.132,70.527 42.858 C 70.707 42.779,71.337 42.290,71.927 41.770 C 73.169 40.676,74.502 40.541,75.500 41.408 M331.962 41.895 C 333.646 43.177,348.089 57.551,349.700 59.547 C 351.305 61.536,351.129 62.478,348.677 65.008 C 345.106 68.695,345.535 68.916,334.109 57.491 C 322.662 46.044,322.879 46.468,326.636 42.915 C 329.184 40.506,329.946 40.360,331.962 41.895 M70.800 56.022 C 70.910 56.186,73.025 58.404,75.500 60.951 C 79.994 65.575,80.359 66.205,79.638 68.099 C 78.531 71.011,66.648 70.467,65.844 67.467 C 65.716 66.990,65.608 64.659,65.605 62.287 L 65.600 57.973 66.995 56.578 C 68.348 55.225,70.095 54.970,70.800 56.022 M331.004 60.596 C 336.593 66.186,337.048 66.952,335.626 68.374 C 334.044 69.956,327.184 70.582,324.000 69.435 C 320.235 68.079,321.126 55.200,324.985 55.200 C 325.327 55.200,328.036 57.628,331.004 60.596 M83.942 75.408 C 88.178 77.536,89.627 85.951,86.711 91.491 C 84.957 94.824,84.556 94.905,70.781 94.733 C 56.613 94.556,56.627 94.565,56.610 85.000 C 56.593 74.814,57.041 74.504,71.867 74.442 C 81.870 74.400,81.947 74.406,83.942 75.408 M340.104 75.499 C 343.059 76.911,343.402 77.902,343.390 85.000 C 343.373 94.565,343.387 94.556,329.219 94.733 C 315.444 94.905,315.043 94.824,313.289 91.491 C 311.491 88.075,311.369 82.084,313.026 78.581 C 314.850 74.725,315.760 74.470,327.800 74.431 L 337.800 74.399 340.104 75.499 M91.364 100.506 C 92.885 101.070,94.472 101.826,94.892 102.186 C 95.311 102.545,96.272 103.134,97.027 103.494 C 97.782 103.854,98.400 104.357,98.400 104.612 C 98.400 104.867,98.748 105.391,99.174 105.777 C 99.600 106.162,100.331 107.225,100.799 108.139 C 101.266 109.052,101.953 110.340,102.325 111.000 C 103.372 112.862,103.361 182.369,102.313 184.200 C 101.935 184.860,101.259 186.120,100.812 187.000 C 99.271 190.028,96.890 192.075,92.200 194.406 L 90.200 195.400 72.000 195.400 L 53.800 195.400 51.469 194.273 C 48.355 192.769,45.593 190.630,44.530 188.900 C 44.052 188.122,43.486 187.376,43.273 187.242 C 43.059 187.109,42.370 185.560,41.742 183.800 L 40.600 180.600 40.600 147.600 L 40.600 114.600 41.692 111.473 C 43.629 105.926,46.894 102.641,52.400 100.698 C 56.588 99.220,55.747 99.274,73.000 99.382 L 88.600 99.480 91.364 100.506 M347.606 100.618 C 353.324 102.866,356.387 105.973,358.308 111.473 L 359.400 114.600 359.400 147.600 L 359.400 180.600 358.258 183.800 C 357.630 185.560,356.941 187.109,356.727 187.242 C 356.514 187.376,355.948 188.122,355.470 188.900 C 354.407 190.630,351.645 192.769,348.531 194.273 L 346.200 195.400 328.000 195.400 L 309.800 195.400 307.800 194.406 C 303.110 192.075,300.729 190.028,299.188 187.000 C 298.741 186.120,298.065 184.860,297.687 184.200 C 296.639 182.369,296.628 112.862,297.675 111.000 C 298.047 110.340,298.734 109.052,299.201 108.139 C 299.669 107.225,300.400 106.162,300.826 105.777 C 301.252 105.391,301.600 104.867,301.600 104.612 C 301.600 104.357,302.218 103.854,302.973 103.494 C 303.728 103.134,304.688 102.545,305.108 102.186 C 305.845 101.555,310.354 99.882,312.400 99.480 C 312.950 99.372,320.420 99.318,329.000 99.360 L 344.600 99.437 347.606 100.618 M348.800 117.025 C 348.030 117.316,347.017 117.565,346.549 117.577 C 346.081 117.590,345.463 117.883,345.176 118.229 C 344.889 118.575,344.011 119.190,343.227 119.594 C 342.442 119.999,341.080 121.348,340.200 122.593 C 339.320 123.837,337.655 126.102,336.500 127.626 C 335.345 129.150,334.400 130.568,334.400 130.778 C 334.400 130.987,333.950 131.644,333.400 132.238 C 332.850 132.831,332.400 133.499,332.400 133.721 C 332.400 133.943,331.950 134.714,331.400 135.436 C 330.850 136.157,330.400 136.914,330.400 137.117 C 330.400 137.321,329.968 138.125,329.440 138.903 C 328.912 139.681,328.351 140.741,328.194 141.259 C 328.037 141.776,327.591 142.560,327.203 143.000 C 326.816 143.440,326.287 144.461,326.029 145.268 C 325.770 146.075,325.307 146.945,325.000 147.200 C 324.693 147.455,324.229 148.325,323.970 149.132 C 323.711 149.939,323.256 150.879,322.960 151.220 C 322.664 151.561,322.142 152.632,321.800 153.600 C 321.458 154.568,320.930 155.639,320.627 155.980 C 320.323 156.321,319.880 157.332,319.642 158.226 C 318.835 161.256,316.012 162.716,315.991 160.113 C 315.971 157.472,313.521 153.812,311.685 153.677 C 307.161 153.346,303.479 160.311,305.802 164.804 C 306.133 165.445,306.662 167.191,306.976 168.684 C 307.291 170.178,307.916 172.210,308.365 173.200 C 308.815 174.190,309.186 175.391,309.191 175.869 C 309.215 178.198,312.670 180.295,315.655 179.791 C 317.314 179.510,320.400 177.196,320.400 176.231 C 320.400 175.970,320.850 175.145,321.400 174.400 C 321.950 173.655,322.400 172.744,322.400 172.376 C 322.400 172.009,322.734 171.279,323.142 170.754 C 323.550 170.229,324.113 169.080,324.392 168.200 C 324.672 167.320,325.144 166.321,325.440 165.980 C 325.736 165.639,326.258 164.568,326.600 163.600 C 326.942 162.632,327.465 161.561,327.763 161.220 C 328.061 160.879,328.439 160.150,328.602 159.600 C 328.765 159.050,329.101 158.355,329.349 158.056 C 329.806 157.505,331.223 154.878,332.831 151.600 C 333.316 150.610,333.857 149.706,334.032 149.592 C 334.206 149.478,334.724 148.578,335.181 147.592 C 335.638 146.606,336.538 144.900,337.179 143.800 C 337.821 142.700,338.580 141.350,338.865 140.800 C 339.151 140.250,339.883 139.098,340.492 138.240 C 341.101 137.382,341.600 136.459,341.600 136.189 C 341.600 135.919,341.872 135.472,342.205 135.196 C 342.537 134.920,343.173 133.953,343.617 133.047 C 344.061 132.141,344.824 130.765,345.312 129.989 C 345.801 129.213,346.560 127.975,347.000 127.239 C 347.440 126.502,348.205 125.401,348.700 124.792 C 349.195 124.183,349.600 123.519,349.600 123.318 C 349.600 123.116,349.941 122.585,350.357 122.138 C 351.759 120.633,352.429 118.927,352.029 117.877 C 351.738 117.110,350.616 116.200,350.267 116.448 C 350.230 116.474,349.570 116.734,348.800 117.025 M242.074 120.824 C 242.583 121.057,243.900 121.770,245.000 122.408 C 246.100 123.046,247.758 123.940,248.683 124.395 C 249.609 124.850,250.472 125.393,250.600 125.600 C 250.728 125.807,251.591 126.342,252.517 126.787 C 253.442 127.233,255.100 128.164,256.200 128.856 C 259.067 130.662,261.156 131.859,263.083 132.800 C 264.009 133.253,264.872 133.793,265.000 134.000 C 265.128 134.207,265.991 134.748,266.917 135.202 C 276.739 140.012,279.115 141.971,279.173 145.307 C 279.231 148.574,275.853 152.519,272.218 153.431 C 271.578 153.592,270.464 154.101,269.743 154.562 C 266.211 156.821,264.861 157.600,264.479 157.600 C 264.249 157.600,263.540 158.038,262.904 158.574 C 262.267 159.110,261.271 159.667,260.690 159.813 C 260.108 159.959,259.422 160.333,259.164 160.644 C 258.905 160.955,257.953 161.576,257.047 162.025 C 254.639 163.217,252.836 164.251,252.072 164.879 C 251.703 165.183,250.770 165.750,250.000 166.139 C 249.230 166.529,247.700 167.369,246.600 168.006 C 240.013 171.822,235.630 171.576,233.732 167.284 C 232.185 163.787,233.724 159.877,237.400 157.961 C 240.594 156.297,242.160 155.305,242.398 154.793 C 242.551 154.467,242.883 153.798,243.137 153.307 L 243.598 152.414 187.299 152.307 C 123.150 152.185,128.347 152.481,126.299 148.837 C 124.553 145.731,125.108 143.248,128.184 140.400 L 129.264 139.400 186.132 139.200 C 247.358 138.985,246.946 139.003,242.781 136.676 C 242.031 136.257,240.984 135.573,240.454 135.157 C 239.925 134.741,239.354 134.400,239.186 134.400 C 238.705 134.400,234.632 131.581,234.319 131.032 C 230.837 124.920,236.047 118.064,242.074 120.824 M60.570 131.300 C 59.918 131.795,57.723 133.858,55.692 135.885 C 50.604 140.962,50.609 141.065,56.124 146.534 C 60.959 151.328,60.968 150.723,55.994 155.633 C 54.341 157.265,52.589 159.163,52.102 159.851 L 51.216 161.102 52.364 162.651 C 54.632 165.710,60.138 170.769,61.493 171.039 C 62.715 171.283,63.009 171.075,66.835 167.262 C 72.184 161.932,71.539 161.948,76.629 167.020 C 82.099 172.470,81.767 172.494,87.900 166.191 C 93.319 160.621,93.274 161.341,88.496 156.531 C 82.818 150.815,82.866 151.228,87.359 146.714 C 93.299 140.744,93.296 141.035,87.461 135.278 C 81.668 129.562,82.010 129.577,76.819 134.800 C 71.663 139.989,71.934 139.995,66.572 134.600 C 61.912 129.912,62.194 130.067,60.570 131.300 M84.262 200.694 C 89.193 203.518,89.334 215.754,84.479 219.468 L 83.000 220.600 72.000 220.600 L 61.000 220.600 59.141 219.299 C 54.319 215.925,55.618 201.688,60.868 200.380 C 63.034 199.841,83.245 200.111,84.262 200.694 M338.945 200.377 C 344.362 201.635,345.800 215.842,340.859 219.299 L 339.000 220.600 328.000 220.600 L 317.000 220.600 315.521 219.468 C 309.923 215.186,310.996 201.556,317.023 200.396 C 319.269 199.963,337.096 199.948,338.945 200.377 M248.860 220.529 C 251.952 221.657,255.100 224.190,257.468 227.453 C 259.128 229.741,259.200 232.237,259.200 287.600 C 259.200 342.016,259.101 345.751,257.617 347.400 C 257.221 347.840,256.650 348.663,256.349 349.230 C 255.538 350.751,252.919 352.890,250.232 354.224 L 247.863 355.400 199.832 355.400 L 151.800 355.400 149.400 354.052 C 146.527 352.438,144.400 350.657,143.651 349.239 C 143.350 348.668,142.779 347.840,142.383 347.400 C 140.899 345.751,140.800 342.016,140.800 287.600 C 140.800 232.237,140.872 229.741,142.532 227.453 C 145.841 222.892,149.780 220.444,155.200 219.580 C 156.190 219.423,176.980 219.320,201.400 219.353 L 245.800 219.412 248.860 220.529 M76.884 225.904 C 78.742 227.446,78.781 237.162,76.937 239.006 C 75.076 240.867,62.898 230.379,63.823 227.713 C 64.629 225.388,74.599 224.007,76.884 225.904 M332.672 225.993 C 336.141 228.239,334.784 239.600,331.045 239.600 C 329.821 239.600,320.579 230.683,320.215 229.151 C 319.811 227.449,320.532 225.829,321.829 225.527 C 323.918 225.040,331.718 225.375,332.672 225.993 M65.784 237.404 C 74.448 246.057,75.600 247.355,75.600 248.466 C 75.600 250.898,71.514 254.695,69.452 254.177 C 68.642 253.974,54.260 240.077,49.778 235.166 C 47.947 233.160,51.895 227.751,55.284 227.625 C 55.663 227.611,60.332 231.959,65.784 237.404 M164.028 227.887 C 156.457 228.850,152.651 231.627,150.594 237.687 L 149.606 240.600 149.603 273.844 L 149.600 307.089 150.576 310.163 C 151.112 311.853,151.967 313.693,152.476 314.252 C 154.829 316.836,156.286 317.878,158.939 318.877 L 161.800 319.953 200.000 319.953 L 238.200 319.953 241.061 318.877 C 243.714 317.878,245.171 316.836,247.524 314.252 C 248.033 313.693,248.888 311.853,249.424 310.163 L 250.400 307.089 250.397 273.844 L 250.394 240.600 249.407 237.691 C 247.749 232.805,244.916 230.015,240.264 228.686 C 237.543 227.908,169.465 227.195,164.028 227.887 M322.048 237.607 C 333.180 248.800,332.982 248.435,329.741 251.809 C 325.998 255.703,326.678 256.036,315.412 244.804 C 303.876 233.303,303.803 233.163,307.533 229.679 C 311.005 226.435,310.856 226.353,322.048 237.607 M155.584 326.313 C 147.018 330.307,147.916 345.915,156.809 347.602 C 161.713 348.532,166.456 347.862,168.813 345.907 C 173.676 341.873,173.491 331.831,168.478 327.720 L 166.624 326.200 161.412 326.113 C 158.545 326.065,155.923 326.155,155.584 326.313 M233.600 326.278 C 227.029 328.971,225.524 341.210,231.187 345.907 C 233.544 347.862,238.287 348.532,243.191 347.602 C 251.022 346.117,253.100 332.982,246.356 327.600 L 244.601 326.200 239.401 326.116 C 236.540 326.070,233.930 326.143,233.600 326.278 M177.681 359.120 C 179.672 361.114,177.359 370.928,174.625 372.083 C 173.298 372.643,163.384 372.815,161.600 372.309 C 158.716 371.490,156.745 363.668,158.365 359.473 L 158.801 358.346 167.981 358.473 C 174.841 358.568,177.293 358.731,177.681 359.120 M241.627 359.251 C 243.451 362.659,241.267 371.494,238.400 372.309 C 236.616 372.815,226.702 372.643,225.375 372.083 C 221.933 370.629,220.153 359.609,223.222 358.753 C 226.035 357.967,241.160 358.377,241.627 359.251 " stroke="none" fill="#008000" fill-rule="evenodd"></path></g></svg>
