<svg id="svg" version="1.1" xmlns="http://www.w3.org/2000/svg" xmlns:xlink="http://www.w3.org/1999/xlink" width="400" height="400" viewBox="0, 0, 400,400"><g id="svgg"><path id="path0" d="M72.209 41.590 C 71.816 42.024,71.203 42.474,70.847 42.589 C 69.362 43.069,67.712 47.011,68.591 47.979 C 68.901 48.321,73.329 52.806,78.431 57.946 L 87.708 67.292 89.414 67.100 C 92.266 66.778,94.982 63.532,94.501 61.018 C 94.322 60.078,80.127 45.428,75.500 41.408 C 74.531 40.567,73.062 40.648,72.209 41.590 M326.636 42.915 C 322.879 46.468,322.662 46.044,334.109 57.491 C 345.535 68.916,345.106 68.695,348.677 65.008 C 352.103 61.472,352.292 61.827,341.007 50.573 C 329.691 39.287,330.191 39.554,326.636 42.915 M66.995 56.578 L 65.600 57.973 65.605 62.287 C 65.608 64.659,65.716 66.990,65.844 67.467 C 66.648 70.467,78.531 71.011,79.638 68.099 C 80.359 66.205,79.994 65.575,75.500 60.951 C 73.025 58.404,70.910 56.186,70.800 56.022 C 70.095 54.970,68.348 55.225,66.995 56.578 M323.415 56.149 C 320.624 58.940,321.052 68.369,324.019 69.440 C 327.182 70.583,334.048 69.952,335.626 68.374 C 337.048 66.952,336.593 66.186,331.004 60.596 C 325.287 54.880,324.907 54.657,323.415 56.149 M59.697 75.542 C 55.533 77.636,55.052 91.248,59.048 93.869 C 60.417 94.767,79.842 95.210,83.400 94.424 C 89.530 93.071,89.947 78.425,83.942 75.408 C 80.774 73.817,62.930 73.915,59.697 75.542 M315.926 75.437 C 311.819 77.572,310.426 86.053,313.289 91.491 C 315.043 94.824,315.444 94.905,329.219 94.733 C 343.387 94.556,343.373 94.565,343.390 85.000 C 343.402 77.902,343.059 76.911,340.104 75.499 L 337.800 74.399 327.800 74.431 C 318.015 74.463,317.760 74.484,315.926 75.437 M56.400 99.462 C 54.033 99.883,49.276 101.819,47.801 102.961 C 44.409 105.587,42.997 107.654,41.575 112.077 L 40.382 115.790 40.491 148.195 L 40.600 180.600 41.742 183.800 C 42.370 185.560,43.059 187.109,43.273 187.242 C 43.486 187.376,44.052 188.122,44.530 188.900 C 45.593 190.630,48.355 192.769,51.469 194.273 L 53.800 195.400 72.000 195.400 L 90.200 195.400 92.800 194.085 C 97.240 191.838,99.313 189.981,100.929 186.800 C 101.320 186.030,101.946 184.860,102.320 184.200 C 103.362 182.361,103.366 112.851,102.325 111.000 C 101.953 110.340,101.266 109.052,100.799 108.139 C 100.331 107.225,99.600 106.162,99.174 105.777 C 98.748 105.391,98.400 104.867,98.400 104.612 C 98.400 104.357,97.782 103.854,97.027 103.494 C 96.272 103.134,95.311 102.545,94.892 102.186 C 94.472 101.826,92.885 101.070,91.364 100.506 L 88.600 99.480 73.000 99.382 C 64.420 99.328,56.950 99.364,56.400 99.462 M312.400 99.480 C 310.354 99.882,305.845 101.555,305.108 102.186 C 304.688 102.545,303.728 103.134,302.973 103.494 C 302.218 103.854,301.600 104.357,301.600 104.612 C 301.600 104.867,301.252 105.391,300.826 105.777 C 300.400 106.162,299.669 107.225,299.201 108.139 C 298.734 109.052,298.047 110.340,297.675 111.000 C 296.634 112.851,296.638 182.361,297.680 184.200 C 298.054 184.860,298.680 186.030,299.071 186.800 C 300.687 189.981,302.760 191.838,307.200 194.085 L 309.800 195.400 328.000 195.400 L 346.200 195.400 348.531 194.273 C 351.645 192.769,354.407 190.630,355.470 188.900 C 355.948 188.122,356.514 187.376,356.727 187.242 C 356.941 187.109,357.630 185.560,358.258 183.800 L 359.400 180.600 359.509 148.195 L 359.618 115.790 358.425 112.077 C 356.490 106.056,353.435 102.812,347.600 100.581 L 344.600 99.434 329.000 99.359 C 320.420 99.318,312.950 99.372,312.400 99.480 M350.998 116.655 C 352.717 117.314,352.412 119.933,350.357 122.138 C 349.941 122.585,349.600 123.116,349.600 123.318 C 349.600 123.519,349.195 124.183,348.700 124.792 C 348.205 125.401,347.440 126.502,347.000 127.239 C 346.560 127.975,345.807 129.213,345.326 129.989 C 344.396 131.490,342.614 134.530,341.564 136.408 C 341.215 137.033,340.585 138.051,340.166 138.672 C 339.746 139.292,339.167 140.250,338.879 140.800 C 338.592 141.350,337.829 142.700,337.184 143.800 C 336.540 144.900,335.638 146.606,335.181 147.592 C 334.724 148.578,334.206 149.478,334.032 149.592 C 333.857 149.706,333.321 150.610,332.840 151.600 C 332.360 152.590,331.359 154.480,330.615 155.800 C 329.872 157.120,329.070 158.650,328.832 159.200 C 328.595 159.750,328.219 160.470,327.997 160.800 C 327.542 161.477,327.104 162.367,326.223 164.400 C 325.889 165.170,325.451 166.070,325.250 166.400 C 325.048 166.730,324.309 168.260,323.608 169.800 C 322.906 171.340,322.080 173.050,321.773 173.600 C 321.466 174.150,320.949 175.159,320.626 175.842 C 318.735 179.835,313.153 181.221,310.549 178.344 C 309.735 177.444,308.290 173.591,307.345 169.800 C 307.016 168.480,306.399 166.497,305.973 165.392 C 304.280 160.997,305.209 157.214,308.619 154.613 C 311.779 152.203,315.148 154.575,315.893 159.735 C 316.300 162.552,318.753 161.565,319.642 158.226 C 319.880 157.332,320.323 156.321,320.627 155.980 C 320.930 155.639,321.458 154.568,321.800 153.600 C 322.142 152.632,322.664 151.561,322.960 151.220 C 323.256 150.879,323.711 149.939,323.970 149.132 C 324.229 148.325,324.693 147.455,325.000 147.200 C 325.307 146.945,325.770 146.075,326.029 145.268 C 326.287 144.461,326.816 143.440,327.203 143.000 C 327.591 142.560,328.037 141.776,328.194 141.259 C 328.351 140.741,328.912 139.681,329.440 138.903 C 329.968 138.125,330.400 137.271,330.400 137.006 C 330.400 136.741,330.753 136.204,331.185 135.814 C 331.617 135.423,332.171 134.495,332.416 133.752 C 332.661 133.008,333.032 132.400,333.240 132.400 C 333.447 132.400,333.836 131.905,334.104 131.300 C 334.371 130.695,335.492 128.997,336.595 127.528 C 337.698 126.058,339.320 123.837,340.200 122.593 C 341.080 121.348,342.442 119.999,343.227 119.594 C 344.011 119.190,344.889 118.575,345.176 118.229 C 345.463 117.883,346.081 117.590,346.549 117.577 C 347.200 117.560,349.822 116.763,350.267 116.448 C 350.304 116.421,350.633 116.515,350.998 116.655 M235.482 121.702 C 232.601 124.265,232.339 130.146,235.033 131.800 C 235.391 132.020,236.320 132.695,237.097 133.300 C 237.874 133.905,238.741 134.400,239.024 134.400 C 239.307 134.400,240.047 134.823,240.669 135.339 C 241.291 135.856,242.327 136.531,242.970 136.839 C 247.380 138.952,246.530 138.988,186.132 139.200 L 129.264 139.400 128.184 140.400 C 125.108 143.248,124.553 145.731,126.299 148.837 C 128.347 152.481,123.150 152.185,187.299 152.307 L 243.598 152.414 243.137 153.307 C 242.883 153.798,242.551 154.467,242.398 154.793 C 242.160 155.305,240.594 156.297,237.400 157.961 C 233.724 159.877,232.185 163.787,233.732 167.284 C 235.631 171.578,240.040 171.823,246.600 167.998 C 247.700 167.357,249.358 166.460,250.283 166.005 C 251.209 165.550,252.077 165.000,252.211 164.783 C 252.345 164.565,253.027 164.122,253.727 163.797 C 254.427 163.473,255.900 162.663,257.000 161.998 C 258.100 161.333,259.758 160.427,260.683 159.983 C 261.609 159.540,262.484 158.987,262.627 158.756 C 262.771 158.524,263.633 157.982,264.544 157.551 C 266.753 156.508,269.658 154.855,270.400 154.220 C 270.730 153.938,271.536 153.580,272.191 153.423 C 275.817 152.558,279.231 148.590,279.173 145.307 C 279.115 141.971,276.739 140.012,266.917 135.202 C 265.991 134.748,265.128 134.207,265.000 134.000 C 264.872 133.793,264.009 133.249,263.083 132.791 C 261.087 131.806,259.418 130.855,257.872 129.824 C 256.444 128.871,254.663 127.869,252.517 126.809 C 251.591 126.351,250.728 125.807,250.600 125.600 C 250.472 125.393,249.609 124.850,248.683 124.395 C 247.758 123.940,246.100 123.046,245.000 122.408 C 240.498 119.798,237.844 119.601,235.482 121.702 M66.572 134.600 C 71.960 140.021,71.710 140.016,76.839 134.800 C 81.986 129.565,81.657 129.551,87.461 135.278 C 93.296 141.035,93.299 140.744,87.359 146.714 C 82.866 151.228,82.818 150.815,88.496 156.531 C 93.274 161.341,93.319 160.621,87.900 166.191 C 81.767 172.494,82.099 172.470,76.629 167.020 C 71.539 161.948,72.184 161.932,66.835 167.262 C 63.009 171.075,62.715 171.283,61.493 171.039 C 60.138 170.769,54.632 165.710,52.364 162.651 L 51.216 161.102 52.098 159.851 C 52.583 159.163,54.320 157.294,55.957 155.697 C 57.595 154.100,59.230 152.305,59.591 151.708 L 60.248 150.623 56.124 146.534 C 50.609 141.065,50.604 140.962,55.692 135.885 C 62.329 129.261,61.377 129.374,66.572 134.600 M60.868 200.380 C 55.618 201.688,54.319 215.925,59.141 219.299 L 61.000 220.600 72.000 220.600 L 83.000 220.600 84.479 219.468 C 89.334 215.754,89.193 203.518,84.262 200.694 C 83.245 200.111,63.034 199.841,60.868 200.380 M317.023 200.396 C 310.996 201.556,309.923 215.186,315.521 219.468 L 317.000 220.600 328.000 220.600 L 339.000 220.600 340.859 219.299 C 345.800 215.842,344.362 201.635,338.945 200.377 C 337.096 199.948,319.269 199.963,317.023 200.396 M165.200 219.577 C 162.510 219.917,158.086 221.418,157.000 222.359 C 156.560 222.740,155.705 223.360,155.100 223.735 C 154.495 224.111,154.000 224.613,154.000 224.851 C 154.000 225.090,153.555 225.814,153.011 226.460 C 152.466 227.107,151.823 228.393,151.580 229.318 C 151.338 230.243,150.887 231.760,150.578 232.689 C 149.517 235.882,144.790 235.601,199.343 235.594 C 226.214 235.591,248.436 235.438,248.725 235.255 C 249.429 234.808,248.217 228.547,247.204 227.400 C 246.815 226.960,246.250 226.125,245.949 225.545 C 245.114 223.940,241.986 221.772,238.727 220.541 L 235.800 219.435 201.600 219.367 C 182.790 219.330,166.410 219.424,165.200 219.577 M65.604 225.879 C 62.521 227.472,62.795 228.182,68.813 234.213 C 74.411 239.822,75.486 240.457,76.937 239.006 C 78.781 237.162,78.742 227.446,76.884 225.904 C 75.824 225.024,67.296 225.005,65.604 225.879 M321.829 225.547 C 320.531 225.827,319.809 227.440,320.215 229.151 C 320.579 230.683,329.821 239.600,331.045 239.600 C 335.459 239.600,336.057 226.831,331.699 225.621 C 330.097 225.176,323.769 225.129,321.829 225.547 M53.782 227.982 C 50.750 229.211,48.321 233.570,49.778 235.166 C 54.260 240.077,68.642 253.974,69.452 254.177 C 71.522 254.697,75.600 250.979,75.600 248.573 C 75.600 247.322,74.774 246.383,65.784 237.404 C 56.208 227.840,55.501 227.286,53.782 227.982 M309.573 227.986 C 306.977 229.526,305.303 231.907,305.519 233.754 C 305.786 236.041,324.672 254.606,326.384 254.263 C 327.855 253.969,332.135 249.727,331.811 248.884 C 331.695 248.582,331.600 248.082,331.600 247.773 C 331.600 247.464,327.325 242.913,322.100 237.660 C 312.485 227.991,311.216 227.011,309.573 227.986 M147.600 240.388 C 144.055 240.705,142.017 242.183,141.244 245.000 C 140.647 247.172,140.619 347.918,141.214 350.692 C 141.647 352.710,143.175 354.354,145.409 355.203 C 146.840 355.747,253.160 355.747,254.591 355.203 C 256.825 354.354,258.353 352.710,258.786 350.692 C 259.381 347.918,259.353 247.172,258.756 245.000 C 257.955 242.080,255.982 240.726,252.000 240.365 C 247.866 239.990,151.824 240.012,147.600 240.388 M254.168 248.243 C 254.516 248.376,255.160 249.299,255.600 250.294 C 256.562 252.468,256.868 290.705,255.938 292.505 C 255.684 292.997,255.351 293.670,255.199 294.000 C 254.458 295.605,255.029 295.588,200.000 295.588 C 142.118 295.588,145.568 295.737,144.319 293.189 C 142.285 289.039,143.504 249.148,145.692 248.268 C 146.419 247.975,253.406 247.951,254.168 248.243 M171.886 335.313 C 173.035 336.461,173.176 345.447,172.067 346.818 L 171.272 347.800 161.542 347.927 C 149.823 348.080,149.332 348.014,148.570 346.189 C 147.350 343.269,147.953 336.070,149.518 334.882 C 150.698 333.986,170.949 334.377,171.886 335.313 M250.472 334.900 C 252.843 336.795,252.517 346.558,250.049 347.580 C 247.953 348.448,229.085 347.984,228.041 347.038 C 226.241 345.407,226.950 335.599,228.926 334.803 C 230.372 334.220,249.732 334.308,250.472 334.900 M149.728 359.900 C 148.967 361.709,149.266 371.050,150.112 371.866 C 151.033 372.757,154.077 372.895,155.598 372.116 C 157.267 371.261,157.542 370.179,157.577 364.326 C 157.611 358.530,157.524 358.400,153.589 358.400 L 150.359 358.400 149.728 359.900 M161.826 359.338 C 160.128 361.036,160.667 369.904,162.592 371.935 C 163.135 372.508,166.049 372.697,167.450 372.249 C 169.287 371.662,170.506 361.432,168.979 359.413 C 167.952 358.053,163.160 358.003,161.826 359.338 M232.000 358.696 C 229.843 359.535,229.877 370.888,232.041 372.226 C 232.752 372.665,236.782 372.513,237.370 372.025 C 239.179 370.523,239.811 361.176,238.219 359.458 C 237.240 358.402,233.831 357.985,232.000 358.696 M242.790 359.426 C 242.348 360.588,242.303 367.796,242.723 370.160 C 243.161 372.622,248.830 373.790,249.971 371.653 C 250.715 370.258,250.935 361.498,250.266 359.896 L 249.641 358.400 246.411 358.400 C 243.311 358.400,243.164 358.442,242.790 359.426 " stroke="none" fill="#f7fbf6" fill-rule="evenodd"></path><path id="path1" d="M53.600 0.600 C 53.600 1.080,53.000 1.200,50.600 1.200 C 47.667 1.200,47.600 1.222,47.600 2.200 C 47.600 3.183,47.547 3.200,44.400 3.200 C 41.272 3.200,41.200 3.222,41.200 4.178 C 41.200 5.061,41.015 5.168,39.300 5.278 C 37.798 5.374,37.320 5.583,37.017 6.272 C 36.745 6.892,36.109 7.239,34.817 7.474 C 33.362 7.739,32.975 7.984,32.872 8.702 C 32.776 9.379,32.479 9.600,31.667 9.600 C 30.933 9.600,30.464 9.887,30.195 10.500 C 29.926 11.112,29.352 11.464,28.400 11.600 C 27.458 11.735,26.873 12.089,26.612 12.684 C 26.399 13.170,25.859 13.620,25.412 13.684 C 24.860 13.763,24.559 14.153,24.473 14.900 C 24.367 15.821,24.156 16.000,23.173 16.000 C 22.188 16.000,22.000 16.161,22.000 17.000 C 22.000 17.800,21.800 18.000,21.000 18.000 C 20.200 18.000,20.000 18.200,20.000 19.000 C 20.000 19.800,19.800 20.000,19.000 20.000 C 18.200 20.000,18.000 20.200,18.000 21.000 C 18.000 21.800,17.800 22.000,17.000 22.000 C 16.161 22.000,16.000 22.188,16.000 23.173 C 16.000 24.156,15.821 24.367,14.900 24.473 C 14.153 24.559,13.763 24.860,13.684 25.412 C 13.620 25.859,13.170 26.399,12.684 26.612 C 12.089 26.873,11.735 27.458,11.600 28.400 C 11.464 29.352,11.112 29.926,10.500 30.195 C 9.887 30.464,9.600 30.933,9.600 31.667 C 9.600 32.479,9.379 32.776,8.702 32.872 C 7.984 32.975,7.739 33.362,7.474 34.817 C 7.239 36.109,6.892 36.745,6.272 37.017 C 5.583 37.320,5.374 37.798,5.278 39.300 C 5.168 41.015,5.061 41.200,4.178 41.200 C 3.222 41.200,3.200 41.272,3.200 44.400 C 3.200 47.547,3.183 47.600,2.200 47.600 C 1.222 47.600,1.200 47.667,1.200 50.600 C 1.200 53.000,1.080 53.600,0.600 53.600 C 0.068 53.600,0.000 70.133,0.000 200.000 C 0.000 329.867,0.068 346.400,0.600 346.400 C 1.080 346.400,1.200 347.000,1.200 349.400 C 1.200 352.333,1.222 352.400,2.200 352.400 C 3.183 352.400,3.200 352.453,3.200 355.600 C 3.200 358.728,3.222 358.800,4.178 358.800 C 5.061 358.800,5.168 358.985,5.278 360.700 C 5.374 362.202,5.583 362.680,6.272 362.983 C 6.892 363.255,7.239 363.891,7.474 365.183 C 7.739 366.638,7.984 367.025,8.702 367.128 C 9.379 367.224,9.600 367.521,9.600 368.333 C 9.600 369.067,9.887 369.536,10.500 369.805 C 11.112 370.074,11.464 370.648,11.600 371.600 C 11.735 372.542,12.089 373.127,12.684 373.388 C 13.170 373.601,13.620 374.141,13.684 374.588 C 13.763 375.140,14.153 375.441,14.900 375.527 C 15.821 375.633,16.000 375.844,16.000 376.827 C 16.000 377.812,16.161 378.000,17.000 378.000 C 17.800 378.000,18.000 378.200,18.000 379.000 C 18.000 379.800,18.200 380.000,19.000 380.000 C 19.800 380.000,20.000 380.200,20.000 381.000 C 20.000 381.800,20.200 382.000,21.000 382.000 C 21.800 382.000,22.000 382.200,22.000 383.000 C 22.000 383.839,22.188 384.000,23.173 384.000 C 24.156 384.000,24.367 384.179,24.473 385.100 C 24.559 385.847,24.860 386.237,25.412 386.316 C 25.859 386.380,26.399 386.830,26.612 387.316 C 26.873 387.911,27.458 388.265,28.400 388.400 C 29.352 388.536,29.926 388.888,30.195 389.500 C 30.464 390.113,30.933 390.400,31.667 390.400 C 32.479 390.400,32.776 390.621,32.872 391.298 C 32.975 392.016,33.362 392.261,34.817 392.526 C 36.109 392.761,36.745 393.108,37.017 393.728 C 37.320 394.417,37.798 394.626,39.300 394.722 C 41.015 394.832,41.200 394.939,41.200 395.822 C 41.200 396.778,41.272 396.800,44.400 396.800 C 47.547 396.800,47.600 396.817,47.600 397.800 C 47.600 398.778,47.667 398.800,50.600 398.800 C 53.000 398.800,53.600 398.920,53.600 399.400 C 53.600 399.932,70.133 400.000,200.000 400.000 C 329.867 400.000,346.400 399.932,346.400 399.400 C 346.400 398.920,347.000 398.800,349.400 398.800 C 352.333 398.800,352.400 398.778,352.400 397.800 C 352.400 396.817,352.453 396.800,355.600 396.800 C 358.728 396.800,358.800 396.778,358.800 395.822 C 358.800 394.939,358.985 394.832,360.700 394.722 C 362.202 394.626,362.680 394.417,362.983 393.728 C 363.255 393.108,363.891 392.761,365.183 392.526 C 366.638 392.261,367.025 392.016,367.128 391.298 C 367.224 390.621,367.521 390.400,368.333 390.400 C 369.067 390.400,369.536 390.113,369.805 389.500 C 370.074 388.888,370.648 388.536,371.600 388.400 C 372.542 388.265,373.127 387.911,373.388 387.316 C 373.601 386.830,374.141 386.380,374.588 386.316 C 375.140 386.237,375.441 385.847,375.527 385.100 C 375.633 384.179,375.844 384.000,376.827 384.000 C 377.812 384.000,378.000 383.839,378.000 383.000 C 378.000 382.200,378.200 382.000,379.000 382.000 C 379.800 382.000,380.000 381.800,380.000 381.000 C 380.000 380.200,380.200 380.000,381.000 380.000 C 381.800 380.000,382.000 379.800,382.000 379.000 C 382.000 378.200,382.200 378.000,383.000 378.000 C 383.839 378.000,384.000 377.812,384.000 376.827 C 384.000 375.844,384.179 375.633,385.100 375.527 C 385.847 375.441,386.237 375.140,386.316 374.588 C 386.380 374.141,386.830 373.601,387.316 373.388 C 387.911 373.127,388.265 372.542,388.400 371.600 C 388.536 370.648,388.888 370.074,389.500 369.805 C 390.113 369.536,390.400 369.067,390.400 368.333 C 390.400 367.521,390.621 367.224,391.298 367.128 C 392.016 367.025,392.261 366.638,392.526 365.183 C 392.761 363.891,393.108 363.255,393.728 362.983 C 394.417 362.680,394.626 362.202,394.722 360.700 C 394.832 358.985,394.939 358.800,395.822 358.800 C 396.778 358.800,396.800 358.728,396.800 355.600 C 396.800 352.453,396.817 352.400,397.800 352.400 C 398.778 352.400,398.800 352.333,398.800 349.400 C 398.800 347.000,398.920 346.400,399.400 346.400 C 399.932 346.400,400.000 329.867,400.000 200.000 C 400.000 70.133,399.932 53.600,399.400 53.600 C 398.920 53.600,398.800 53.000,398.800 50.600 C 398.800 47.667,398.778 47.600,397.800 47.600 C 396.817 47.600,396.800 47.547,396.800 44.400 C 396.800 41.272,396.778 41.200,395.822 41.200 C 394.939 41.200,394.832 41.015,394.722 39.300 C 394.626 37.798,394.417 37.320,393.728 37.017 C 393.108 36.745,392.761 36.109,392.526 34.817 C 392.261 33.362,392.016 32.975,391.298 32.872 C 390.621 32.776,390.400 32.479,390.400 31.667 C 390.400 30.933,390.113 30.464,389.500 30.195 C 388.888 29.926,388.536 29.352,388.400 28.400 C 388.265 27.458,387.911 26.873,387.316 26.612 C 386.830 26.399,386.380 25.859,386.316 25.412 C 386.237 24.860,385.847 24.559,385.100 24.473 C 384.179 24.367,384.000 24.156,384.000 23.173 C 384.000 22.188,383.839 22.000,383.000 22.000 C 382.200 22.000,382.000 21.800,382.000 21.000 C 382.000 20.200,381.800 20.000,381.000 20.000 C 380.200 20.000,380.000 19.800,380.000 19.000 C 380.000 18.200,379.800 18.000,379.000 18.000 C 378.200 18.000,378.000 17.800,378.000 17.000 C 378.000 16.161,377.812 16.000,376.827 16.000 C 375.844 16.000,375.633 15.821,375.527 14.900 C 375.441 14.153,375.140 13.763,374.588 13.684 C 374.141 13.620,373.601 13.170,373.388 12.684 C 373.127 12.089,372.542 11.735,371.600 11.600 C 370.648 11.464,370.074 11.112,369.805 10.500 C 369.536 9.887,369.067 9.600,368.333 9.600 C 367.521 9.600,367.224 9.379,367.128 8.702 C 367.025 7.984,366.638 7.739,365.183 7.474 C 363.891 7.239,363.255 6.892,362.983 6.272 C 362.680 5.583,362.202 5.374,360.700 5.278 C 358.985 5.168,358.800 5.061,358.800 4.178 C 358.800 3.222,358.728 3.200,355.600 3.200 C 352.453 3.200,352.400 3.183,352.400 2.200 C 352.400 1.222,352.333 1.200,349.400 1.200 C 347.000 1.200,346.400 1.080,346.400 0.600 C 346.400 0.068,329.867 0.000,200.000 0.000 C 70.133 0.000,53.600 0.068,53.600 0.600 M75.500 41.408 C 80.127 45.428,94.322 60.078,94.501 61.018 C 94.982 63.532,92.266 66.778,89.414 67.100 L 87.708 67.292 78.431 57.946 C 73.329 52.806,68.901 48.321,68.591 47.979 C 67.712 47.011,69.362 43.069,70.847 42.589 C 71.203 42.474,71.816 42.024,72.209 41.590 C 73.062 40.648,74.531 40.567,75.500 41.408 M332.052 41.900 C 333.903 43.395,348.328 57.803,349.700 59.528 C 351.303 61.543,351.129 62.477,348.677 65.008 C 345.106 68.695,345.535 68.916,334.109 57.491 C 322.662 46.044,322.879 46.468,326.636 42.915 C 329.205 40.486,330.095 40.319,332.052 41.900 M70.800 56.022 C 70.910 56.186,73.025 58.404,75.500 60.951 C 79.994 65.575,80.359 66.205,79.638 68.099 C 78.531 71.011,66.648 70.467,65.844 67.467 C 65.716 66.990,65.608 64.659,65.605 62.287 L 65.600 57.973 66.995 56.578 C 68.348 55.225,70.095 54.970,70.800 56.022 M331.004 60.596 C 336.593 66.186,337.048 66.952,335.626 68.374 C 334.048 69.952,327.182 70.583,324.019 69.440 C 320.217 68.067,321.091 55.200,324.985 55.200 C 325.327 55.200,328.036 57.628,331.004 60.596 M83.942 75.408 C 88.178 77.536,89.627 85.951,86.711 91.491 C 84.957 94.824,84.556 94.905,70.781 94.733 C 56.613 94.556,56.627 94.565,56.610 85.000 C 56.593 74.814,57.041 74.504,71.867 74.442 C 81.870 74.400,81.947 74.406,83.942 75.408 M340.104 75.499 C 343.059 76.911,343.402 77.902,343.390 85.000 C 343.373 94.565,343.387 94.556,329.219 94.733 C 315.444 94.905,315.043 94.824,313.289 91.491 C 311.491 88.075,311.369 82.084,313.026 78.581 C 314.850 74.725,315.760 74.470,327.800 74.431 L 337.800 74.399 340.104 75.499 M91.364 100.506 C 92.885 101.070,94.472 101.826,94.892 102.186 C 95.311 102.545,96.272 103.134,97.027 103.494 C 97.782 103.854,98.400 104.357,98.400 104.612 C 98.400 104.867,98.748 105.391,99.174 105.777 C 99.600 106.162,100.331 107.225,100.799 108.139 C 101.266 109.052,101.953 110.340,102.325 111.000 C 103.366 112.851,103.362 182.361,102.320 184.200 C 101.946 184.860,101.320 186.030,100.929 186.800 C 99.313 189.981,97.240 191.838,92.800 194.085 L 90.200 195.400 72.000 195.400 L 53.800 195.400 51.469 194.273 C 48.355 192.769,45.593 190.630,44.530 188.900 C 44.052 188.122,43.486 187.376,43.273 187.242 C 43.059 187.109,42.370 185.560,41.742 183.800 L 40.600 180.600 40.491 148.195 L 40.382 115.790 41.575 112.077 C 43.832 105.057,48.821 100.811,56.400 99.462 C 56.950 99.364,64.420 99.328,73.000 99.382 L 88.600 99.480 91.364 100.506 M347.600 100.581 C 353.435 102.812,356.490 106.056,358.425 112.077 L 359.618 115.790 359.509 148.195 L 359.400 180.600 358.258 183.800 C 357.630 185.560,356.941 187.109,356.727 187.242 C 356.514 187.376,355.948 188.122,355.470 188.900 C 354.407 190.630,351.645 192.769,348.531 194.273 L 346.200 195.400 328.000 195.400 L 309.800 195.400 307.200 194.085 C 302.760 191.838,300.687 189.981,299.071 186.800 C 298.680 186.030,298.054 184.860,297.680 184.200 C 296.638 182.361,296.634 112.851,297.675 111.000 C 298.047 110.340,298.734 109.052,299.201 108.139 C 299.669 107.225,300.400 106.162,300.826 105.777 C 301.252 105.391,301.600 104.867,301.600 104.612 C 301.600 104.357,302.218 103.854,302.973 103.494 C 303.728 103.134,304.688 102.545,305.108 102.186 C 305.845 101.555,310.354 99.882,312.400 99.480 C 312.950 99.372,320.420 99.318,329.000 99.359 L 344.600 99.434 347.600 100.581 M348.800 117.025 C 348.030 117.316,347.017 117.565,346.549 117.577 C 346.081 117.590,345.463 117.883,345.176 118.229 C 344.889 118.575,344.011 119.190,343.227 119.594 C 342.442 119.999,341.080 121.348,340.200 122.593 C 339.320 123.837,337.698 126.058,336.595 127.528 C 335.492 128.997,334.371 130.695,334.104 131.300 C 333.836 131.905,333.447 132.400,333.240 132.400 C 333.032 132.400,332.661 133.008,332.416 133.752 C 332.171 134.495,331.617 135.423,331.185 135.814 C 330.753 136.204,330.400 136.741,330.400 137.006 C 330.400 137.271,329.968 138.125,329.440 138.903 C 328.912 139.681,328.351 140.741,328.194 141.259 C 328.037 141.776,327.591 142.560,327.203 143.000 C 326.816 143.440,326.287 144.461,326.029 145.268 C 325.770 146.075,325.307 146.945,325.000 147.200 C 324.693 147.455,324.229 148.325,323.970 149.132 C 323.711 149.939,323.256 150.879,322.960 151.220 C 322.664 151.561,322.142 152.632,321.800 153.600 C 321.458 154.568,320.930 155.639,320.627 155.980 C 320.323 156.321,319.880 157.332,319.642 158.226 C 318.753 161.565,316.300 162.552,315.893 159.735 C 315.148 154.575,311.779 152.203,308.619 154.613 C 305.209 157.214,304.280 160.997,305.973 165.392 C 306.399 166.497,307.016 168.480,307.345 169.800 C 308.290 173.591,309.735 177.444,310.549 178.344 C 313.153 181.221,318.735 179.835,320.626 175.842 C 320.949 175.159,321.466 174.150,321.773 173.600 C 322.080 173.050,322.906 171.340,323.608 169.800 C 324.309 168.260,325.048 166.730,325.250 166.400 C 325.451 166.070,325.889 165.170,326.223 164.400 C 327.104 162.367,327.542 161.477,327.997 160.800 C 328.219 160.470,328.595 159.750,328.832 159.200 C 329.070 158.650,329.872 157.120,330.615 155.800 C 331.359 154.480,332.360 152.590,332.840 151.600 C 333.321 150.610,333.857 149.706,334.032 149.592 C 334.206 149.478,334.724 148.578,335.181 147.592 C 335.638 146.606,336.540 144.900,337.184 143.800 C 337.829 142.700,338.592 141.350,338.879 140.800 C 339.167 140.250,339.746 139.292,340.166 138.672 C 340.585 138.051,341.215 137.033,341.564 136.408 C 342.614 134.530,344.396 131.490,345.326 129.989 C 345.807 129.213,346.560 127.975,347.000 127.239 C 347.440 126.502,348.205 125.401,348.700 124.792 C 349.195 124.183,349.600 123.519,349.600 123.318 C 349.600 123.116,349.941 122.585,350.357 122.138 C 351.759 120.633,352.429 118.927,352.029 117.877 C 351.738 117.110,350.616 116.200,350.267 116.448 C 350.230 116.474,349.570 116.734,348.800 117.025 M242.074 120.824 C 242.583 121.057,243.900 121.770,245.000 122.408 C 246.100 123.046,247.758 123.940,248.683 124.395 C 249.609 124.850,250.472 125.393,250.600 125.600 C 250.728 125.807,251.591 126.351,252.517 126.809 C 254.663 127.869,256.444 128.871,257.872 129.824 C 259.418 130.855,261.087 131.806,263.083 132.791 C 264.009 133.249,264.872 133.793,265.000 134.000 C 265.128 134.207,265.991 134.748,266.917 135.202 C 276.739 140.012,279.115 141.971,279.173 145.307 C 279.231 148.590,275.817 152.558,272.191 153.423 C 271.536 153.580,270.730 153.938,270.400 154.220 C 269.658 154.855,266.753 156.508,264.544 157.551 C 263.633 157.982,262.771 158.524,262.627 158.756 C 262.484 158.987,261.609 159.540,260.683 159.983 C 259.758 160.427,258.100 161.333,257.000 161.998 C 255.900 162.663,254.427 163.473,253.727 163.797 C 253.027 164.122,252.345 164.565,252.211 164.783 C 252.077 165.000,251.209 165.550,250.283 166.005 C 249.358 166.460,247.700 167.357,246.600 167.998 C 240.040 171.823,235.631 171.578,233.732 167.284 C 232.185 163.787,233.724 159.877,237.400 157.961 C 240.594 156.297,242.160 155.305,242.398 154.793 C 242.551 154.467,242.883 153.798,243.137 153.307 L 243.598 152.414 187.299 152.307 C 123.150 152.185,128.347 152.481,126.299 148.837 C 124.553 145.731,125.108 143.248,128.184 140.400 L 129.264 139.400 186.132 139.200 C 246.530 138.988,247.380 138.952,242.970 136.839 C 242.327 136.531,241.291 135.856,240.669 135.339 C 240.047 134.823,239.307 134.400,239.024 134.400 C 238.741 134.400,237.874 133.905,237.097 133.300 C 236.320 132.695,235.391 132.020,235.033 131.800 C 234.674 131.580,234.010 130.360,233.557 129.088 C 231.599 123.596,236.899 118.454,242.074 120.824 M60.570 131.300 C 59.918 131.795,57.723 133.858,55.692 135.885 C 50.604 140.962,50.609 141.065,56.124 146.534 L 60.248 150.623 59.591 151.708 C 59.230 152.305,57.595 154.100,55.957 155.697 C 54.320 157.294,52.583 159.163,52.098 159.851 L 51.216 161.102 52.364 162.651 C 54.632 165.710,60.138 170.769,61.493 171.039 C 62.715 171.283,63.009 171.075,66.835 167.262 C 72.184 161.932,71.539 161.948,76.629 167.020 C 82.099 172.470,81.767 172.494,87.900 166.191 C 93.319 160.621,93.274 161.341,88.496 156.531 C 82.818 150.815,82.866 151.228,87.359 146.714 C 93.299 140.744,93.296 141.035,87.461 135.278 C 81.657 129.551,81.986 129.565,76.839 134.800 C 71.710 140.016,71.960 140.021,66.572 134.600 C 61.912 129.912,62.194 130.067,60.570 131.300 M84.262 200.694 C 89.193 203.518,89.334 215.754,84.479 219.468 L 83.000 220.600 72.000 220.600 L 61.000 220.600 59.141 219.299 C 54.319 215.925,55.618 201.688,60.868 200.380 C 63.034 199.841,83.245 200.111,84.262 200.694 M338.945 200.377 C 344.362 201.635,345.800 215.842,340.859 219.299 L 339.000 220.600 328.000 220.600 L 317.000 220.600 315.521 219.468 C 309.923 215.186,310.996 201.556,317.023 200.396 C 319.269 199.963,337.096 199.948,338.945 200.377 M238.727 220.541 C 241.986 221.772,245.114 223.940,245.949 225.545 C 246.250 226.125,246.815 226.960,247.204 227.400 C 248.217 228.547,249.429 234.808,248.725 235.255 C 248.436 235.438,226.214 235.591,199.343 235.594 C 144.790 235.601,149.517 235.882,150.578 232.689 C 150.887 231.760,151.338 230.243,151.580 229.318 C 151.823 228.393,152.466 227.107,153.011 226.460 C 153.555 225.814,154.000 225.090,154.000 224.851 C 154.000 224.613,154.495 224.111,155.100 223.735 C 155.705 223.360,156.560 222.740,157.000 222.359 C 160.373 219.436,162.555 219.289,201.600 219.367 L 235.800 219.435 238.727 220.541 M76.884 225.904 C 78.742 227.446,78.781 237.162,76.937 239.006 C 75.076 240.867,62.898 230.379,63.823 227.713 C 64.629 225.388,74.599 224.007,76.884 225.904 M331.699 225.621 C 336.057 226.831,335.459 239.600,331.045 239.600 C 329.821 239.600,320.579 230.683,320.215 229.151 C 319.809 227.440,320.531 225.827,321.829 225.547 C 323.769 225.129,330.097 225.176,331.699 225.621 M65.784 237.404 C 74.774 246.383,75.600 247.322,75.600 248.573 C 75.600 250.979,71.522 254.697,69.452 254.177 C 68.642 253.974,54.260 240.077,49.778 235.166 C 47.947 233.160,51.895 227.751,55.284 227.625 C 55.663 227.611,60.332 231.959,65.784 237.404 M322.100 237.660 C 327.325 242.913,331.600 247.464,331.600 247.773 C 331.600 248.082,331.695 248.582,331.811 248.884 C 332.135 249.727,327.855 253.969,326.384 254.263 C 325.204 254.499,324.710 254.073,315.412 244.804 C 303.876 233.303,303.803 233.163,307.533 229.679 C 311.007 226.433,310.850 226.348,322.100 237.660 M252.000 240.365 C 255.982 240.726,257.955 242.080,258.756 245.000 C 259.353 247.172,259.381 347.918,258.786 350.692 C 258.353 352.710,256.825 354.354,254.591 355.203 C 253.920 355.458,234.425 355.600,200.000 355.600 C 165.575 355.600,146.080 355.458,145.409 355.203 C 143.175 354.354,141.647 352.710,141.214 350.692 C 140.619 347.918,140.647 247.172,141.244 245.000 C 142.017 242.183,144.055 240.705,147.600 240.388 C 151.824 240.012,247.866 239.990,252.000 240.365 M145.692 248.268 C 143.504 249.148,142.285 289.039,144.319 293.189 C 145.568 295.737,142.118 295.588,200.000 295.588 C 255.029 295.588,254.458 295.605,255.199 294.000 C 255.351 293.670,255.684 292.997,255.938 292.505 C 256.868 290.705,256.562 252.468,255.600 250.294 C 255.160 249.299,254.516 248.376,254.168 248.243 C 253.406 247.951,146.419 247.975,145.692 248.268 M149.518 334.882 C 147.953 336.070,147.350 343.269,148.570 346.189 C 149.332 348.014,149.823 348.080,161.542 347.927 L 171.272 347.800 172.067 346.818 C 173.176 345.447,173.035 336.461,171.886 335.313 C 170.949 334.377,150.698 333.986,149.518 334.882 M228.926 334.803 C 226.950 335.599,226.241 345.407,228.041 347.038 C 229.085 347.984,247.953 348.448,250.049 347.580 C 252.517 346.558,252.843 336.795,250.472 334.900 C 249.732 334.308,230.372 334.220,228.926 334.803 M157.210 359.426 C 157.653 360.592,157.696 367.388,157.275 369.800 C 156.815 372.435,152.107 373.793,150.112 371.866 C 149.266 371.050,148.967 361.709,149.728 359.900 L 150.359 358.400 153.589 358.400 C 156.689 358.400,156.836 358.442,157.210 359.426 M168.979 359.413 C 170.506 361.432,169.287 371.662,167.450 372.249 C 166.049 372.697,163.135 372.508,162.592 371.935 C 160.667 369.904,160.128 361.036,161.826 359.338 C 163.160 358.003,167.952 358.053,168.979 359.413 M238.219 359.458 C 239.811 361.176,239.179 370.523,237.370 372.025 C 236.782 372.513,232.752 372.665,232.041 372.226 C 230.671 371.379,229.753 361.077,230.913 359.565 C 232.138 357.968,236.775 357.901,238.219 359.458 M250.266 359.896 C 250.935 361.498,250.715 370.258,249.971 371.653 C 249.466 372.598,246.517 372.937,244.592 372.271 C 242.683 371.610,242.459 370.810,242.423 364.526 C 242.389 358.511,242.461 358.400,246.411 358.400 L 249.641 358.400 250.266 359.896 " stroke="none" fill="#008000" fill-rule="evenodd"></path></g></svg>
