<svg id="svg" version="1.1" xmlns="http://www.w3.org/2000/svg" xmlns:xlink="http://www.w3.org/1999/xlink" width="400" height="400" viewBox="0, 0, 400,400"><g id="svgg"><path id="path0" d="M193.200 47.247 C 192.210 47.445,188.678 47.858,185.352 48.166 C 181.735 48.501,178.826 48.973,178.115 49.340 C 177.462 49.678,175.864 50.225,174.564 50.556 C 169.046 51.959,165.583 53.397,159.400 56.852 C 158.300 57.467,156.827 58.244,156.126 58.580 C 153.794 59.695,143.773 67.396,141.812 69.579 C 140.925 70.568,140.912 72.984,141.789 74.000 C 142.074 74.330,142.733 75.383,143.253 76.340 C 143.774 77.297,144.650 78.854,145.200 79.799 C 145.750 80.744,146.707 82.391,147.326 83.459 C 147.945 84.526,148.890 86.120,149.425 87.000 C 149.960 87.880,150.763 89.356,151.209 90.280 C 152.652 93.270,154.687 94.250,155.820 92.500 C 156.830 90.939,159.173 88.463,162.347 85.600 C 163.990 84.118,169.166 80.464,170.800 79.633 C 171.790 79.130,173.680 78.172,175.000 77.506 C 176.320 76.840,178.444 76.048,179.720 75.747 C 180.996 75.446,182.573 74.924,183.224 74.588 C 187.149 72.558,207.000 72.666,211.091 74.739 C 211.921 75.160,213.371 75.632,214.313 75.789 C 215.254 75.946,217.324 76.774,218.913 77.629 C 220.501 78.483,222.398 79.464,223.129 79.809 C 229.202 82.670,239.465 92.700,242.178 98.425 C 242.537 99.181,243.471 100.970,244.254 102.400 C 245.037 103.830,246.005 106.080,246.405 107.400 C 246.805 108.720,247.401 110.520,247.729 111.400 C 248.056 112.280,248.536 114.771,248.793 116.935 C 249.051 119.100,249.515 121.840,249.823 123.025 C 251.117 127.990,250.366 128.400,239.989 128.400 C 231.219 128.400,230.773 128.563,232.548 131.125 C 233.127 131.960,233.600 132.845,233.600 133.091 C 233.600 133.337,234.009 134.047,234.509 134.669 C 235.009 135.291,235.738 136.430,236.129 137.200 C 236.520 137.970,237.274 139.320,237.806 140.200 C 238.337 141.080,239.273 142.674,239.886 143.741 C 240.499 144.809,241.450 146.456,242.000 147.400 C 242.550 148.344,243.502 149.991,244.115 151.059 C 244.728 152.126,245.748 153.900,246.383 155.000 C 247.017 156.100,247.931 157.767,248.415 158.705 C 248.898 159.643,249.447 160.505,249.635 160.622 C 249.823 160.738,250.348 161.591,250.801 162.517 C 251.254 163.442,252.063 164.920,252.598 165.800 C 253.133 166.680,254.073 168.274,254.686 169.341 C 255.299 170.409,256.250 172.056,256.800 173.000 C 258.104 175.239,259.782 178.172,260.986 180.316 C 262.838 183.612,264.288 184.270,265.359 182.300 C 265.747 181.585,266.493 180.213,267.015 179.251 C 267.537 178.289,268.205 177.209,268.498 176.851 C 268.792 176.493,269.350 175.570,269.739 174.800 C 270.129 174.030,270.932 172.564,271.524 171.541 C 272.116 170.519,273.102 168.809,273.715 167.741 C 277.532 161.093,278.944 158.669,280.202 156.600 C 280.737 155.720,281.546 154.242,281.999 153.317 C 282.452 152.391,282.993 151.528,283.200 151.400 C 283.407 151.272,283.950 150.409,284.405 149.483 C 284.860 148.558,285.720 146.964,286.316 145.941 C 288.449 142.284,289.812 139.870,290.547 138.446 C 290.958 137.651,291.432 136.910,291.600 136.800 C 291.768 136.690,292.242 135.949,292.653 135.154 C 293.064 134.358,293.905 132.769,294.523 131.622 C 296.263 128.389,296.292 128.400,285.827 128.400 C 275.164 128.400,275.779 128.678,275.453 123.717 C 275.320 121.692,275.042 119.262,274.836 118.317 C 274.629 117.373,274.257 114.530,274.009 112.000 C 273.760 109.458,273.277 106.863,272.930 106.200 C 272.584 105.540,271.975 103.740,271.575 102.200 C 270.704 98.840,269.364 94.902,268.718 93.800 C 268.460 93.360,267.831 92.190,267.321 91.200 C 263.145 83.101,260.517 79.149,255.977 74.144 C 255.550 73.673,254.526 72.477,253.700 71.487 C 252.397 69.922,243.542 62.334,240.627 60.285 C 239.658 59.604,237.097 58.197,231.800 55.435 C 230.480 54.747,228.950 53.886,228.400 53.521 C 227.850 53.157,226.680 52.732,225.800 52.576 C 224.920 52.419,223.570 51.978,222.800 51.594 C 222.030 51.210,220.590 50.764,219.600 50.603 C 218.610 50.442,216.810 49.903,215.600 49.405 C 214.031 48.760,212.146 48.419,209.026 48.218 C 206.620 48.063,203.200 47.681,201.426 47.369 C 197.851 46.740,195.887 46.711,193.200 47.247 M130.426 68.100 C 129.952 69.035,128.952 70.790,128.203 72.000 C 127.455 73.210,126.551 74.740,126.195 75.400 C 124.725 78.122,123.726 79.862,123.019 80.928 C 122.063 82.370,121.059 84.157,120.009 86.283 C 119.551 87.209,119.007 88.072,118.800 88.200 C 118.593 88.328,118.052 89.191,117.599 90.117 C 117.146 91.042,116.337 92.520,115.802 93.400 C 115.267 94.280,114.327 95.874,113.714 96.941 C 113.101 98.009,112.150 99.656,111.600 100.600 C 111.050 101.544,110.060 103.254,109.400 104.400 C 108.740 105.546,107.750 107.256,107.200 108.200 C 106.650 109.144,105.699 110.791,105.086 111.859 C 104.473 112.926,103.537 114.520,103.006 115.400 C 102.474 116.280,101.739 117.630,101.371 118.400 C 101.003 119.170,100.557 120.092,100.380 120.449 C 99.767 121.680,101.658 122.000,109.557 122.000 C 118.554 122.000,118.399 121.926,118.401 126.231 C 118.402 127.754,118.657 130.530,118.969 132.400 C 119.280 134.270,119.656 137.330,119.804 139.199 C 119.951 141.069,120.344 143.319,120.676 144.199 C 121.009 145.080,121.616 146.970,122.025 148.400 C 123.160 152.361,124.425 156.132,124.844 156.800 C 125.050 157.130,125.676 158.300,126.235 159.400 C 126.793 160.500,127.771 162.300,128.407 163.400 C 129.044 164.500,129.859 166.019,130.219 166.775 C 131.663 169.809,140.175 179.961,144.068 183.292 C 151.196 189.392,153.311 191.063,154.804 191.773 C 155.572 192.138,157.280 193.040,158.600 193.779 C 159.920 194.518,161.616 195.414,162.369 195.770 C 163.122 196.126,164.004 196.638,164.327 196.909 C 164.944 197.423,169.061 198.943,171.800 199.668 C 172.680 199.901,174.570 200.525,176.000 201.055 C 177.430 201.585,180.580 202.283,183.000 202.606 C 185.420 202.929,188.570 203.371,190.000 203.589 C 196.208 204.533,212.808 203.068,217.075 201.200 C 217.996 200.797,219.796 200.256,221.075 199.997 C 222.354 199.738,223.763 199.297,224.206 199.016 C 224.649 198.735,225.639 198.372,226.406 198.209 C 227.173 198.047,228.429 197.528,229.198 197.057 C 229.967 196.586,231.227 195.888,231.998 195.506 C 238.591 192.241,241.386 190.391,247.600 185.175 C 255.612 178.450,255.655 178.349,252.610 173.400 C 252.068 172.520,251.254 171.042,250.801 170.117 C 250.348 169.191,249.807 168.328,249.600 168.200 C 249.393 168.072,248.855 167.209,248.405 166.283 C 247.956 165.358,246.967 163.610,246.208 162.400 C 245.449 161.190,244.637 159.769,244.402 159.242 C 243.340 156.856,240.400 154.139,240.400 155.544 C 240.400 155.733,239.815 156.539,239.100 157.335 C 238.385 158.131,236.900 159.803,235.800 161.050 C 234.700 162.298,233.565 163.517,233.278 163.759 C 232.991 164.002,232.241 164.650,231.612 165.200 C 230.983 165.750,230.048 166.566,229.534 167.013 C 227.669 168.636,224.131 170.831,220.800 172.433 C 219.810 172.909,218.730 173.521,218.400 173.793 C 218.070 174.065,216.918 174.502,215.840 174.765 C 214.761 175.027,213.376 175.502,212.761 175.820 C 207.189 178.702,186.845 178.719,181.292 175.848 C 180.626 175.503,179.208 175.031,178.141 174.797 C 177.073 174.563,175.747 174.044,175.192 173.642 C 174.638 173.241,173.738 172.775,173.192 172.607 C 172.647 172.439,171.953 172.099,171.650 171.851 C 171.348 171.603,170.224 170.950,169.153 170.400 C 162.865 167.173,154.596 158.310,150.502 150.407 C 149.535 148.541,148.582 146.820,148.385 146.582 C 148.187 146.343,147.775 145.075,147.469 143.763 C 147.163 142.451,146.621 140.814,146.265 140.126 C 145.909 139.437,145.339 136.562,144.998 133.737 C 144.657 130.912,144.203 128.078,143.989 127.440 C 143.440 125.805,143.505 122.908,144.100 122.524 C 144.375 122.346,148.920 122.110,154.200 122.000 L 163.800 121.800 163.935 120.846 C 164.009 120.321,163.707 119.400,163.263 118.799 C 162.819 118.199,162.164 117.099,161.806 116.354 C 161.023 114.720,160.038 112.993,159.024 111.472 C 158.205 110.245,157.311 108.690,155.992 106.200 C 155.526 105.320,154.532 103.610,153.783 102.400 C 153.034 101.190,152.071 99.455,151.644 98.544 C 151.216 97.633,150.676 96.771,150.444 96.627 C 150.213 96.484,149.652 95.609,149.199 94.683 C 148.746 93.758,147.937 92.280,147.402 91.400 C 146.867 90.520,145.927 88.926,145.314 87.859 C 144.701 86.791,143.750 85.144,143.200 84.200 C 141.872 81.920,140.015 78.673,138.879 76.645 C 138.372 75.740,137.523 74.280,136.993 73.400 C 136.463 72.520,135.577 70.961,135.025 69.935 C 134.186 68.375,132.207 66.400,131.482 66.400 C 131.375 66.400,130.900 67.165,130.426 68.100 M155.800 248.878 C 152.769 250.598,148.608 255.976,145.185 262.600 C 144.731 263.480,143.844 265.100,143.215 266.200 C 141.878 268.540,139.193 273.903,137.509 277.600 C 136.857 279.030,135.992 280.920,135.587 281.800 C 135.182 282.680,134.438 284.300,133.934 285.400 C 133.429 286.500,132.718 288.480,132.353 289.800 C 131.987 291.120,131.355 293.010,130.948 294.000 C 130.065 296.144,129.586 336.314,130.367 342.696 C 130.943 347.408,133.314 350.316,138.168 352.263 L 141.000 353.400 200.000 353.400 L 259.000 353.400 261.937 352.222 C 265.326 350.863,268.458 347.800,269.309 345.010 C 270.220 342.024,269.993 296.267,269.056 294.000 C 268.647 293.010,268.013 291.120,267.647 289.800 C 267.282 288.480,266.571 286.500,266.066 285.400 C 265.562 284.300,264.818 282.680,264.413 281.800 C 264.008 280.920,263.143 279.030,262.491 277.600 C 260.807 273.903,258.122 268.540,256.785 266.200 C 256.156 265.100,255.269 263.480,254.815 262.600 C 251.343 255.881,247.106 250.435,244.126 248.861 C 242.887 248.207,156.954 248.223,155.800 248.878 M236.782 256.797 C 238.495 257.122,239.184 257.523,240.598 259.019 C 242.517 261.051,243.145 261.954,247.331 268.700 C 247.843 269.525,248.731 270.920,249.305 271.800 C 249.880 272.680,250.468 273.888,250.614 274.484 C 250.759 275.080,251.122 275.769,251.419 276.016 C 251.716 276.262,252.171 277.125,252.430 277.932 C 252.689 278.739,253.144 279.679,253.440 280.020 C 253.736 280.361,254.256 281.425,254.595 282.385 C 254.934 283.345,255.433 284.398,255.705 284.724 C 255.977 285.050,256.584 286.415,257.054 287.758 C 257.523 289.101,258.204 290.985,258.567 291.943 C 259.071 293.278,259.118 293.817,258.764 294.243 C 258.093 295.051,141.931 295.081,141.261 294.273 C 140.772 293.684,141.286 291.266,142.207 289.826 C 142.497 289.372,142.947 288.196,143.206 287.214 C 143.465 286.232,144.020 284.993,144.439 284.460 C 144.857 283.928,145.200 283.307,145.200 283.082 C 145.200 282.500,150.230 272.558,151.617 270.400 C 152.253 269.410,153.145 267.970,153.600 267.200 C 157.776 260.132,160.138 257.416,162.600 256.849 C 164.825 256.336,234.097 256.287,236.782 256.797 M160.547 319.423 C 163.003 320.406,164.672 321.900,165.905 324.217 C 167.512 327.238,166.755 336.707,164.703 339.261 C 160.761 344.166,150.603 344.876,145.710 340.588 C 141.201 336.635,140.681 326.270,144.772 321.884 C 148.042 318.378,155.162 317.267,160.547 319.423 M251.247 319.266 C 260.537 323.003,260.121 340.290,250.680 342.832 C 245.032 344.353,238.072 342.713,235.246 339.197 C 232.158 335.354,232.515 325.638,235.889 321.705 C 238.578 318.571,246.421 317.325,251.247 319.266 M145.126 356.056 C 142.357 357.070,143.455 368.152,146.629 371.228 C 149.757 374.260,163.828 374.054,166.685 370.935 C 168.929 368.486,169.957 357.047,168.026 356.014 C 167.027 355.479,146.599 355.517,145.126 356.056 M231.900 356.032 C 231.289 356.388,231.200 357.113,231.200 361.723 C 231.200 371.801,232.692 373.180,243.600 373.181 C 250.063 373.181,251.692 372.855,253.371 371.228 C 256.666 368.035,257.638 357.049,254.715 356.030 C 253.096 355.466,232.869 355.467,231.900 356.032 " stroke="none" fill="#f7faf6" fill-rule="evenodd"></path><path id="path1" d="M53.600 0.600 C 53.600 1.080,53.000 1.200,50.600 1.200 C 47.667 1.200,47.600 1.222,47.600 2.200 C 47.600 3.183,47.547 3.200,44.400 3.200 C 41.272 3.200,41.200 3.222,41.200 4.178 C 41.200 5.061,41.015 5.168,39.300 5.278 C 37.798 5.374,37.320 5.583,37.017 6.272 C 36.745 6.892,36.109 7.239,34.817 7.474 C 33.362 7.739,32.975 7.984,32.872 8.702 C 32.776 9.379,32.479 9.600,31.667 9.600 C 30.933 9.600,30.464 9.887,30.195 10.500 C 29.926 11.112,29.352 11.464,28.400 11.600 C 27.458 11.735,26.873 12.089,26.612 12.684 C 26.399 13.170,25.859 13.620,25.412 13.684 C 24.860 13.763,24.559 14.153,24.473 14.900 C 24.367 15.821,24.156 16.000,23.173 16.000 C 22.188 16.000,22.000 16.161,22.000 17.000 C 22.000 17.800,21.800 18.000,21.000 18.000 C 20.200 18.000,20.000 18.200,20.000 19.000 C 20.000 19.800,19.800 20.000,19.000 20.000 C 18.200 20.000,18.000 20.200,18.000 21.000 C 18.000 21.800,17.800 22.000,17.000 22.000 C 16.161 22.000,16.000 22.188,16.000 23.173 C 16.000 24.156,15.821 24.367,14.900 24.473 C 14.153 24.559,13.763 24.860,13.684 25.412 C 13.620 25.859,13.170 26.399,12.684 26.612 C 12.089 26.873,11.735 27.458,11.600 28.400 C 11.464 29.352,11.112 29.926,10.500 30.195 C 9.887 30.464,9.600 30.933,9.600 31.667 C 9.600 32.479,9.379 32.776,8.702 32.872 C 7.984 32.975,7.739 33.362,7.474 34.817 C 7.239 36.109,6.892 36.745,6.272 37.017 C 5.583 37.320,5.374 37.798,5.278 39.300 C 5.168 41.015,5.061 41.200,4.178 41.200 C 3.222 41.200,3.200 41.272,3.200 44.400 C 3.200 47.547,3.183 47.600,2.200 47.600 C 1.222 47.600,1.200 47.667,1.200 50.600 C 1.200 53.000,1.080 53.600,0.600 53.600 C 0.068 53.600,0.000 70.133,0.000 200.000 C 0.000 329.867,0.068 346.400,0.600 346.400 C 1.080 346.400,1.200 347.000,1.200 349.400 C 1.200 352.333,1.222 352.400,2.200 352.400 C 3.183 352.400,3.200 352.453,3.200 355.600 C 3.200 358.728,3.222 358.800,4.178 358.800 C 5.061 358.800,5.168 358.985,5.278 360.700 C 5.374 362.202,5.583 362.680,6.272 362.983 C 6.892 363.255,7.239 363.891,7.474 365.183 C 7.739 366.638,7.984 367.025,8.702 367.128 C 9.379 367.224,9.600 367.521,9.600 368.333 C 9.600 369.067,9.887 369.536,10.500 369.805 C 11.112 370.074,11.464 370.648,11.600 371.600 C 11.735 372.542,12.089 373.127,12.684 373.388 C 13.170 373.601,13.620 374.141,13.684 374.588 C 13.763 375.140,14.153 375.441,14.900 375.527 C 15.821 375.633,16.000 375.844,16.000 376.827 C 16.000 377.812,16.161 378.000,17.000 378.000 C 17.800 378.000,18.000 378.200,18.000 379.000 C 18.000 379.800,18.200 380.000,19.000 380.000 C 19.800 380.000,20.000 380.200,20.000 381.000 C 20.000 381.800,20.200 382.000,21.000 382.000 C 21.800 382.000,22.000 382.200,22.000 383.000 C 22.000 383.839,22.188 384.000,23.173 384.000 C 24.156 384.000,24.367 384.179,24.473 385.100 C 24.559 385.847,24.860 386.237,25.412 386.316 C 25.859 386.380,26.399 386.830,26.612 387.316 C 26.873 387.911,27.458 388.265,28.400 388.400 C 29.352 388.536,29.926 388.888,30.195 389.500 C 30.464 390.113,30.933 390.400,31.667 390.400 C 32.479 390.400,32.776 390.621,32.872 391.298 C 32.975 392.016,33.362 392.261,34.817 392.526 C 36.109 392.761,36.745 393.108,37.017 393.728 C 37.320 394.417,37.798 394.626,39.300 394.722 C 41.015 394.832,41.200 394.939,41.200 395.822 C 41.200 396.778,41.272 396.800,44.400 396.800 C 47.547 396.800,47.600 396.817,47.600 397.800 C 47.600 398.778,47.667 398.800,50.600 398.800 C 53.000 398.800,53.600 398.920,53.600 399.400 C 53.600 399.932,70.133 400.000,200.000 400.000 C 329.867 400.000,346.400 399.932,346.400 399.400 C 346.400 398.920,347.000 398.800,349.400 398.800 C 352.333 398.800,352.400 398.778,352.400 397.800 C 352.400 396.817,352.453 396.800,355.600 396.800 C 358.728 396.800,358.800 396.778,358.800 395.822 C 358.800 394.939,358.985 394.832,360.700 394.722 C 362.202 394.626,362.680 394.417,362.983 393.728 C 363.255 393.108,363.891 392.761,365.183 392.526 C 366.638 392.261,367.025 392.016,367.128 391.298 C 367.224 390.621,367.521 390.400,368.333 390.400 C 369.067 390.400,369.536 390.113,369.805 389.500 C 370.074 388.888,370.648 388.536,371.600 388.400 C 372.542 388.265,373.127 387.911,373.388 387.316 C 373.601 386.830,374.141 386.380,374.588 386.316 C 375.140 386.237,375.441 385.847,375.527 385.100 C 375.633 384.179,375.844 384.000,376.827 384.000 C 377.812 384.000,378.000 383.839,378.000 383.000 C 378.000 382.200,378.200 382.000,379.000 382.000 C 379.800 382.000,380.000 381.800,380.000 381.000 C 380.000 380.200,380.200 380.000,381.000 380.000 C 381.800 380.000,382.000 379.800,382.000 379.000 C 382.000 378.200,382.200 378.000,383.000 378.000 C 383.839 378.000,384.000 377.812,384.000 376.827 C 384.000 375.844,384.179 375.633,385.100 375.527 C 385.847 375.441,386.237 375.140,386.316 374.588 C 386.380 374.141,386.830 373.601,387.316 373.388 C 387.911 373.127,388.265 372.542,388.400 371.600 C 388.536 370.648,388.888 370.074,389.500 369.805 C 390.113 369.536,390.400 369.067,390.400 368.333 C 390.400 367.521,390.621 367.224,391.298 367.128 C 392.016 367.025,392.261 366.638,392.526 365.183 C 392.761 363.891,393.108 363.255,393.728 362.983 C 394.417 362.680,394.626 362.202,394.722 360.700 C 394.832 358.985,394.939 358.800,395.822 358.800 C 396.778 358.800,396.800 358.728,396.800 355.600 C 396.800 352.453,396.817 352.400,397.800 352.400 C 398.778 352.400,398.800 352.333,398.800 349.400 C 398.800 347.000,398.920 346.400,399.400 346.400 C 399.932 346.400,400.000 329.867,400.000 200.000 C 400.000 70.133,399.932 53.600,399.400 53.600 C 398.920 53.600,398.800 53.000,398.800 50.600 C 398.800 47.667,398.778 47.600,397.800 47.600 C 396.817 47.600,396.800 47.547,396.800 44.400 C 396.800 41.272,396.778 41.200,395.822 41.200 C 394.939 41.200,394.832 41.015,394.722 39.300 C 394.626 37.798,394.417 37.320,393.728 37.017 C 393.108 36.745,392.761 36.109,392.526 34.817 C 392.261 33.362,392.016 32.975,391.298 32.872 C 390.621 32.776,390.400 32.479,390.400 31.667 C 390.400 30.933,390.113 30.464,389.500 30.195 C 388.888 29.926,388.536 29.352,388.400 28.400 C 388.265 27.458,387.911 26.873,387.316 26.612 C 386.830 26.399,386.380 25.859,386.316 25.412 C 386.237 24.860,385.847 24.559,385.100 24.473 C 384.179 24.367,384.000 24.156,384.000 23.173 C 384.000 22.188,383.839 22.000,383.000 22.000 C 382.200 22.000,382.000 21.800,382.000 21.000 C 382.000 20.200,381.800 20.000,381.000 20.000 C 380.200 20.000,380.000 19.800,380.000 19.000 C 380.000 18.200,379.800 18.000,379.000 18.000 C 378.200 18.000,378.000 17.800,378.000 17.000 C 378.000 16.161,377.812 16.000,376.827 16.000 C 375.844 16.000,375.633 15.821,375.527 14.900 C 375.441 14.153,375.140 13.763,374.588 13.684 C 374.141 13.620,373.601 13.170,373.388 12.684 C 373.127 12.089,372.542 11.735,371.600 11.600 C 370.648 11.464,370.074 11.112,369.805 10.500 C 369.536 9.887,369.067 9.600,368.333 9.600 C 367.521 9.600,367.224 9.379,367.128 8.702 C 367.025 7.984,366.638 7.739,365.183 7.474 C 363.891 7.239,363.255 6.892,362.983 6.272 C 362.680 5.583,362.202 5.374,360.700 5.278 C 358.985 5.168,358.800 5.061,358.800 4.178 C 358.800 3.222,358.728 3.200,355.600 3.200 C 352.453 3.200,352.400 3.183,352.400 2.200 C 352.400 1.222,352.333 1.200,349.400 1.200 C 347.000 1.200,346.400 1.080,346.400 0.600 C 346.400 0.068,329.867 0.000,200.000 0.000 C 70.133 0.000,53.600 0.068,53.600 0.600 M201.426 47.369 C 203.200 47.681,206.620 48.063,209.026 48.218 C 212.146 48.419,214.031 48.760,215.600 49.405 C 216.810 49.903,218.610 50.442,219.600 50.603 C 220.590 50.764,222.030 51.210,222.800 51.594 C 223.570 51.978,224.920 52.419,225.800 52.576 C 226.680 52.732,227.850 53.157,228.400 53.521 C 228.950 53.886,230.480 54.747,231.800 55.435 C 237.097 58.197,239.658 59.604,240.627 60.285 C 243.542 62.334,252.397 69.922,253.700 71.487 C 254.526 72.477,255.550 73.673,255.977 74.144 C 260.517 79.149,263.145 83.101,267.321 91.200 C 267.831 92.190,268.460 93.360,268.718 93.800 C 269.364 94.902,270.704 98.840,271.575 102.200 C 271.975 103.740,272.584 105.540,272.930 106.200 C 273.277 106.863,273.760 109.458,274.009 112.000 C 274.257 114.530,274.629 117.373,274.836 118.317 C 275.042 119.262,275.320 121.692,275.453 123.717 C 275.779 128.678,275.164 128.400,285.827 128.400 C 296.292 128.400,296.263 128.389,294.523 131.622 C 293.905 132.769,293.064 134.358,292.653 135.154 C 292.242 135.949,291.768 136.690,291.600 136.800 C 291.432 136.910,290.958 137.651,290.547 138.446 C 289.812 139.870,288.449 142.284,286.316 145.941 C 285.720 146.964,284.860 148.558,284.405 149.483 C 283.950 150.409,283.407 151.272,283.200 151.400 C 282.993 151.528,282.452 152.391,281.999 153.317 C 281.546 154.242,280.737 155.720,280.202 156.600 C 278.944 158.669,277.532 161.093,273.715 167.741 C 273.102 168.809,272.116 170.519,271.524 171.541 C 270.932 172.564,270.129 174.030,269.739 174.800 C 269.350 175.570,268.792 176.493,268.498 176.851 C 268.205 177.209,267.537 178.289,267.015 179.251 C 266.493 180.213,265.747 181.585,265.359 182.300 C 264.288 184.270,262.838 183.612,260.986 180.316 C 259.782 178.172,258.104 175.239,256.800 173.000 C 256.250 172.056,255.299 170.409,254.686 169.341 C 254.073 168.274,253.133 166.680,252.598 165.800 C 252.063 164.920,251.254 163.442,250.801 162.517 C 250.348 161.591,249.823 160.738,249.635 160.622 C 249.447 160.505,248.898 159.643,248.415 158.705 C 247.931 157.767,247.017 156.100,246.383 155.000 C 245.748 153.900,244.728 152.126,244.115 151.059 C 243.502 149.991,242.550 148.344,242.000 147.400 C 241.450 146.456,240.499 144.809,239.886 143.741 C 239.273 142.674,238.337 141.080,237.806 140.200 C 237.274 139.320,236.520 137.970,236.129 137.200 C 235.738 136.430,235.009 135.291,234.509 134.669 C 234.009 134.047,233.600 133.337,233.600 133.091 C 233.600 132.845,233.127 131.960,232.548 131.125 C 230.773 128.563,231.219 128.400,239.989 128.400 C 250.366 128.400,251.117 127.990,249.823 123.025 C 249.515 121.840,249.051 119.100,248.793 116.935 C 248.536 114.771,248.056 112.280,247.729 111.400 C 247.401 110.520,246.805 108.720,246.405 107.400 C 246.005 106.080,245.037 103.830,244.254 102.400 C 243.471 100.970,242.537 99.181,242.178 98.425 C 239.465 92.700,229.202 82.670,223.129 79.809 C 222.398 79.464,220.501 78.483,218.913 77.629 C 217.324 76.774,215.254 75.946,214.313 75.789 C 213.371 75.632,211.921 75.160,211.091 74.739 C 207.000 72.666,187.149 72.558,183.224 74.588 C 182.573 74.924,180.996 75.446,179.720 75.747 C 178.444 76.048,176.320 76.840,175.000 77.506 C 173.680 78.172,171.790 79.130,170.800 79.633 C 169.166 80.464,163.990 84.118,162.347 85.600 C 159.173 88.463,156.830 90.939,155.820 92.500 C 154.687 94.250,152.652 93.270,151.209 90.280 C 150.763 89.356,149.960 87.880,149.425 87.000 C 148.890 86.120,147.945 84.526,147.326 83.459 C 146.707 82.391,145.750 80.744,145.200 79.799 C 144.650 78.854,143.774 77.297,143.253 76.340 C 142.733 75.383,142.074 74.330,141.789 74.000 C 140.912 72.984,140.925 70.568,141.812 69.579 C 143.773 67.396,153.794 59.695,156.126 58.580 C 156.827 58.244,158.300 57.467,159.400 56.852 C 165.583 53.397,169.046 51.959,174.564 50.556 C 175.864 50.225,177.462 49.678,178.115 49.340 C 178.826 48.973,181.735 48.501,185.352 48.166 C 188.678 47.858,192.210 47.445,193.200 47.247 C 195.887 46.711,197.851 46.740,201.426 47.369 M132.849 67.235 C 133.494 67.694,134.474 68.909,135.025 69.935 C 135.577 70.961,136.463 72.520,136.993 73.400 C 137.523 74.280,138.372 75.740,138.879 76.645 C 140.015 78.673,141.872 81.920,143.200 84.200 C 143.750 85.144,144.701 86.791,145.314 87.859 C 145.927 88.926,146.867 90.520,147.402 91.400 C 147.937 92.280,148.746 93.758,149.199 94.683 C 149.652 95.609,150.213 96.484,150.444 96.627 C 150.676 96.771,151.216 97.633,151.644 98.544 C 152.071 99.455,153.034 101.190,153.783 102.400 C 154.532 103.610,155.526 105.320,155.992 106.200 C 157.311 108.690,158.205 110.245,159.024 111.472 C 160.038 112.993,161.023 114.720,161.806 116.354 C 162.164 117.099,162.819 118.199,163.263 118.799 C 163.707 119.400,164.009 120.321,163.935 120.846 L 163.800 121.800 154.200 122.000 C 148.920 122.110,144.375 122.346,144.100 122.524 C 143.505 122.908,143.440 125.805,143.989 127.440 C 144.203 128.078,144.657 130.912,144.998 133.737 C 145.339 136.562,145.909 139.437,146.265 140.126 C 146.621 140.814,147.163 142.451,147.469 143.763 C 147.775 145.075,148.187 146.343,148.385 146.582 C 148.582 146.820,149.535 148.541,150.502 150.407 C 154.596 158.310,162.865 167.173,169.153 170.400 C 170.224 170.950,171.348 171.603,171.650 171.851 C 171.953 172.099,172.647 172.439,173.192 172.607 C 173.738 172.775,174.638 173.241,175.192 173.642 C 175.747 174.044,177.073 174.563,178.141 174.797 C 179.208 175.031,180.626 175.503,181.292 175.848 C 186.845 178.719,207.189 178.702,212.761 175.820 C 213.376 175.502,214.761 175.027,215.840 174.765 C 216.918 174.502,218.070 174.065,218.400 173.793 C 218.730 173.521,219.810 172.909,220.800 172.433 C 224.131 170.831,227.669 168.636,229.534 167.013 C 230.048 166.566,230.983 165.750,231.612 165.200 C 232.241 164.650,232.991 164.002,233.278 163.759 C 233.565 163.517,234.700 162.298,235.800 161.050 C 236.900 159.803,238.385 158.131,239.100 157.335 C 239.815 156.539,240.400 155.733,240.400 155.544 C 240.400 154.139,243.340 156.856,244.402 159.242 C 244.637 159.769,245.449 161.190,246.208 162.400 C 246.967 163.610,247.956 165.358,248.405 166.283 C 248.855 167.209,249.393 168.072,249.600 168.200 C 249.807 168.328,250.348 169.191,250.801 170.117 C 251.254 171.042,252.068 172.520,252.610 173.400 C 255.655 178.349,255.612 178.450,247.600 185.175 C 241.386 190.391,238.591 192.241,231.998 195.506 C 231.227 195.888,229.967 196.586,229.198 197.057 C 228.429 197.528,227.173 198.047,226.406 198.209 C 225.639 198.372,224.649 198.735,224.206 199.016 C 223.763 199.297,222.354 199.738,221.075 199.997 C 219.796 200.256,217.996 200.797,217.075 201.200 C 212.808 203.068,196.208 204.533,190.000 203.589 C 188.570 203.371,185.420 202.929,183.000 202.606 C 180.580 202.283,177.430 201.585,176.000 201.055 C 174.570 200.525,172.680 199.901,171.800 199.668 C 169.061 198.943,164.944 197.423,164.327 196.909 C 164.004 196.638,163.122 196.126,162.369 195.770 C 161.616 195.414,159.920 194.518,158.600 193.779 C 157.280 193.040,155.572 192.138,154.804 191.773 C 153.311 191.063,151.196 189.392,144.068 183.292 C 140.175 179.961,131.663 169.809,130.219 166.775 C 129.859 166.019,129.044 164.500,128.407 163.400 C 127.771 162.300,126.793 160.500,126.235 159.400 C 125.676 158.300,125.050 157.130,124.844 156.800 C 124.425 156.132,123.160 152.361,122.025 148.400 C 121.616 146.970,121.009 145.080,120.676 144.199 C 120.344 143.319,119.951 141.069,119.804 139.199 C 119.656 137.330,119.280 134.270,118.969 132.400 C 118.657 130.530,118.402 127.754,118.401 126.231 C 118.399 121.926,118.554 122.000,109.557 122.000 C 101.658 122.000,99.767 121.680,100.380 120.449 C 100.557 120.092,101.003 119.170,101.371 118.400 C 101.739 117.630,102.474 116.280,103.006 115.400 C 103.537 114.520,104.473 112.926,105.086 111.859 C 105.699 110.791,106.650 109.144,107.200 108.200 C 107.750 107.256,108.740 105.546,109.400 104.400 C 110.060 103.254,111.050 101.544,111.600 100.600 C 112.150 99.656,113.101 98.009,113.714 96.941 C 114.327 95.874,115.267 94.280,115.802 93.400 C 116.337 92.520,117.146 91.042,117.599 90.117 C 118.052 89.191,118.593 88.328,118.800 88.200 C 119.007 88.072,119.551 87.209,120.009 86.283 C 121.059 84.157,122.063 82.370,123.019 80.928 C 123.726 79.862,124.725 78.122,126.195 75.400 C 126.551 74.740,127.455 73.210,128.203 72.000 C 128.952 70.790,129.952 69.035,130.426 68.100 C 131.429 66.123,131.334 66.156,132.849 67.235 M244.126 248.861 C 247.106 250.435,251.343 255.881,254.815 262.600 C 255.269 263.480,256.156 265.100,256.785 266.200 C 258.122 268.540,260.807 273.903,262.491 277.600 C 263.143 279.030,264.008 280.920,264.413 281.800 C 264.818 282.680,265.562 284.300,266.066 285.400 C 266.571 286.500,267.282 288.480,267.647 289.800 C 268.013 291.120,268.647 293.010,269.056 294.000 C 269.993 296.267,270.220 342.024,269.309 345.010 C 268.458 347.800,265.326 350.863,261.937 352.222 L 259.000 353.400 200.000 353.400 L 141.000 353.400 138.168 352.263 C 133.314 350.316,130.943 347.408,130.367 342.696 C 129.586 336.314,130.065 296.144,130.948 294.000 C 131.355 293.010,131.987 291.120,132.353 289.800 C 132.718 288.480,133.429 286.500,133.934 285.400 C 134.438 284.300,135.182 282.680,135.587 281.800 C 135.992 280.920,136.857 279.030,137.509 277.600 C 139.193 273.903,141.878 268.540,143.215 266.200 C 143.844 265.100,144.731 263.480,145.185 262.600 C 148.608 255.976,152.769 250.598,155.800 248.878 C 156.954 248.223,242.887 248.207,244.126 248.861 M162.600 256.849 C 160.138 257.416,157.776 260.132,153.600 267.200 C 153.145 267.970,152.253 269.410,151.617 270.400 C 150.230 272.558,145.200 282.500,145.200 283.082 C 145.200 283.307,144.857 283.928,144.439 284.460 C 144.020 284.993,143.465 286.232,143.206 287.214 C 142.947 288.196,142.497 289.372,142.207 289.826 C 141.286 291.266,140.772 293.684,141.261 294.273 C 141.931 295.081,258.093 295.051,258.764 294.243 C 259.118 293.817,259.071 293.278,258.567 291.943 C 258.204 290.985,257.523 289.101,257.054 287.758 C 256.584 286.415,255.977 285.050,255.705 284.724 C 255.433 284.398,254.934 283.345,254.595 282.385 C 254.256 281.425,253.736 280.361,253.440 280.020 C 253.144 279.679,252.689 278.739,252.430 277.932 C 252.171 277.125,251.716 276.262,251.419 276.016 C 251.122 275.769,250.759 275.080,250.614 274.484 C 250.468 273.888,249.880 272.680,249.305 271.800 C 248.731 270.920,247.843 269.525,247.331 268.700 C 243.145 261.954,242.517 261.051,240.598 259.019 C 239.184 257.523,238.495 257.122,236.782 256.797 C 234.097 256.287,164.825 256.336,162.600 256.849 M148.425 319.385 C 139.318 323.215,140.023 340.314,149.392 342.850 C 154.907 344.342,161.946 342.692,164.703 339.261 C 166.755 336.707,167.512 327.238,165.905 324.217 C 163.107 318.957,154.861 316.678,148.425 319.385 M239.400 319.422 C 234.242 321.545,232.191 327.028,233.537 335.095 C 234.596 341.439,242.540 345.024,250.680 342.832 C 256.809 341.182,259.855 331.404,256.608 323.800 C 254.582 319.057,245.748 316.809,239.400 319.422 M168.026 356.014 C 169.957 357.047,168.929 368.486,166.685 370.935 C 163.828 374.054,149.757 374.260,146.629 371.228 C 143.455 368.152,142.357 357.070,145.126 356.056 C 146.599 355.517,167.027 355.479,168.026 356.014 M254.715 356.030 C 257.638 357.049,256.666 368.035,253.371 371.228 C 251.692 372.855,250.063 373.181,243.600 373.181 C 232.692 373.180,231.200 371.801,231.200 361.723 C 231.200 357.113,231.289 356.388,231.900 356.032 C 232.869 355.467,253.096 355.466,254.715 356.030 " stroke="none" fill="#008000" fill-rule="evenodd"></path></g></svg>
